<?xml version="1.0" encoding="utf-8" standalone="no"?>
<!DOCTYPE svg PUBLIC "-//W3C//DTD SVG 1.1//EN"
  "http://www.w3.org/Graphics/SVG/1.1/DTD/svg11.dtd">
<svg xmlns:xlink="http://www.w3.org/1999/xlink" width="604.385938pt" height="639.76pt" viewBox="0 0 604.385938 639.76" xmlns="http://www.w3.org/2000/svg" version="1.1">
 <metadata>
  <rdf:RDF xmlns:dc="http://purl.org/dc/elements/1.1/" xmlns:cc="http://creativecommons.org/ns#" xmlns:rdf="http://www.w3.org/1999/02/22-rdf-syntax-ns#">
   <cc:Work>
    <dc:type rdf:resource="http://purl.org/dc/dcmitype/StillImage"/>
    <dc:date>2025-09-13T00:24:14.825292</dc:date>
    <dc:format>image/svg+xml</dc:format>
    <dc:creator>
     <cc:Agent>
      <dc:title>Matplotlib v3.7.2, https://matplotlib.org/</dc:title>
     </cc:Agent>
    </dc:creator>
   </cc:Work>
  </rdf:RDF>
 </metadata>
 <defs>
  <style type="text/css">*{stroke-linejoin: round; stroke-linecap: butt}</style>
 </defs>
 <g id="figure_1">
  <g id="patch_1">
   <path d="M 0 639.76 
L 604.385938 639.76 
L 604.385938 0 
L 0 0 
z
" style="fill: #ffffff"/>
  </g>
  <g id="axes_1">
   <g id="patch_2">
    <path d="M 61.912969 197.32 
L 579.392969 197.32 
L 579.392969 71.52 
L 61.912969 71.52 
z
" style="fill: #ffffff"/>
   </g>
   <g id="PolyCollection_1">
    <defs>
     <path id="m6770567323" d="M 85.434787 -465.013553 
L 85.434787 -461.229173 
L 101.115999 -473.29427 
L 116.797211 -485.419296 
L 132.478423 -499.05446 
L 148.159635 -498.361289 
L 163.840848 -490.494775 
L 179.52206 -486.912228 
L 195.203272 -500.109511 
L 210.884484 -496.446806 
L 226.565696 -489.439394 
L 242.246908 -490.288485 
L 257.92812 -492.395929 
L 273.609332 -495.983948 
L 289.290545 -485.306748 
L 304.971757 -485.555528 
L 320.652969 -490.547206 
L 336.334181 -488.371189 
L 352.015393 -493.14204 
L 367.696605 -494.943583 
L 383.377817 -489.634323 
L 399.059029 -495.147458 
L 414.740241 -490.874119 
L 430.421454 -486.89223 
L 446.102666 -482.37067 
L 461.783878 -488.965252 
L 477.46509 -477.015723 
L 493.146302 -491.474299 
L 508.827514 -496.540749 
L 524.508726 -489.223126 
L 540.189938 -476.013998 
L 555.871151 -487.140639 
L 555.871151 -504.36523 
L 555.871151 -504.36523 
L 540.189938 -497.062641 
L 524.508726 -505.664253 
L 508.827514 -509.336537 
L 493.146302 -512.035931 
L 477.46509 -493.975652 
L 461.783878 -506.598429 
L 446.102666 -492.96031 
L 430.421454 -498.18877 
L 414.740241 -505.985807 
L 399.059029 -508.080979 
L 383.377817 -502.378773 
L 367.696605 -513.807986 
L 352.015393 -510.199114 
L 336.334181 -502.063869 
L 320.652969 -504.171097 
L 304.971757 -495.016792 
L 289.290545 -496.84361 
L 273.609332 -509.442471 
L 257.92812 -505.365733 
L 242.246908 -505.10612 
L 226.565696 -509.167646 
L 210.884484 -510.55765 
L 195.203272 -511.854493 
L 179.52206 -500.254036 
L 163.840848 -499.996641 
L 148.159635 -510.108488 
L 132.478423 -515.163884 
L 116.797211 -502.761421 
L 101.115999 -479.718744 
L 85.434787 -465.013553 
z
" style="stroke: #dc143c; stroke-opacity: 0.2"/>
    </defs>
    <g clip-path="url(#pfb230f021d)">
     <use xlink:href="#m6770567323" x="0" y="639.76" style="fill: #dc143c; fill-opacity: 0.2; stroke: #dc143c; stroke-opacity: 0.2"/>
    </g>
   </g>
   <g id="PolyCollection_2">
    <defs>
     <path id="m22d8d708c2" d="M 85.434787 -562.521818 
L 85.434787 -547.336899 
L 101.115999 -517.004231 
L 116.797211 -522.916307 
L 132.478423 -519.749147 
L 148.159635 -511.109783 
L 163.840848 -509.646627 
L 179.52206 -500.811257 
L 195.203272 -508.54472 
L 210.884484 -500.944858 
L 226.565696 -508.059059 
L 242.246908 -502.634272 
L 257.92812 -501.734039 
L 273.609332 -490.588737 
L 289.290545 -492.207611 
L 304.971757 -501.836713 
L 320.652969 -493.068311 
L 336.334181 -505.179866 
L 352.015393 -497.789898 
L 367.696605 -500.88467 
L 383.377817 -495.391704 
L 399.059029 -508.002049 
L 414.740241 -504.586589 
L 430.421454 -489.309657 
L 446.102666 -484.163282 
L 461.783878 -490.388362 
L 477.46509 -487.104131 
L 493.146302 -495.39103 
L 508.827514 -503.339656 
L 524.508726 -490.730983 
L 540.189938 -475.021399 
L 555.871151 -489.266257 
L 555.871151 -502.69048 
L 555.871151 -502.69048 
L 540.189938 -489.263315 
L 524.508726 -505.790792 
L 508.827514 -517.021765 
L 493.146302 -504.286822 
L 477.46509 -504.796248 
L 461.783878 -505.457111 
L 446.102666 -501.59402 
L 430.421454 -507.212118 
L 414.740241 -512.44968 
L 399.059029 -512.528447 
L 383.377817 -507.780374 
L 367.696605 -510.346673 
L 352.015393 -512.032483 
L 336.334181 -516.815951 
L 320.652969 -509.427466 
L 304.971757 -518.07384 
L 289.290545 -510.400882 
L 273.609332 -504.073208 
L 257.92812 -509.27187 
L 242.246908 -515.303733 
L 226.565696 -524.813949 
L 210.884484 -512.033599 
L 195.203272 -517.565267 
L 179.52206 -515.097842 
L 163.840848 -520.690248 
L 148.159635 -522.045017 
L 132.478423 -534.934599 
L 116.797211 -538.192309 
L 101.115999 -529.000307 
L 85.434787 -562.521818 
z
" style="stroke: #008b8b; stroke-opacity: 0.2"/>
    </defs>
    <g clip-path="url(#pfb230f021d)">
     <use xlink:href="#m22d8d708c2" x="0" y="639.76" style="fill: #008b8b; fill-opacity: 0.2; stroke: #008b8b; stroke-opacity: 0.2"/>
    </g>
   </g>
   <g id="PolyCollection_3">
    <defs>
     <path id="m0a93407858" d="M 85.434787 -456.571308 
L 85.434787 -453.947398 
L 101.115999 -455.304346 
L 116.797211 -463.246803 
L 132.478423 -466.43774 
L 148.159635 -468.084878 
L 163.840848 -473.916099 
L 179.52206 -471.567549 
L 195.203272 -473.818294 
L 210.884484 -480.140552 
L 226.565696 -473.943886 
L 242.246908 -474.643608 
L 257.92812 -485.417133 
L 273.609332 -474.364161 
L 289.290545 -480.982134 
L 304.971757 -484.348068 
L 320.652969 -480.61789 
L 336.334181 -478.754079 
L 352.015393 -479.239955 
L 367.696605 -474.82304 
L 383.377817 -482.22026 
L 399.059029 -483.250036 
L 414.740241 -481.862165 
L 430.421454 -487.823195 
L 446.102666 -485.613901 
L 461.783878 -471.679582 
L 477.46509 -472.676938 
L 493.146302 -474.355672 
L 508.827514 -474.892966 
L 524.508726 -479.407674 
L 540.189938 -481.572407 
L 555.871151 -474.779205 
L 555.871151 -490.407245 
L 555.871151 -490.407245 
L 540.189938 -501.028819 
L 524.508726 -501.108287 
L 508.827514 -486.404747 
L 493.146302 -487.674701 
L 477.46509 -480.617868 
L 461.783878 -483.982282 
L 446.102666 -497.945419 
L 430.421454 -501.766485 
L 414.740241 -490.989041 
L 399.059029 -495.406095 
L 383.377817 -497.619399 
L 367.696605 -490.025258 
L 352.015393 -493.667609 
L 336.334181 -491.560994 
L 320.652969 -491.33158 
L 304.971757 -501.352876 
L 289.290545 -491.643637 
L 273.609332 -484.79193 
L 257.92812 -497.634961 
L 242.246908 -486.315955 
L 226.565696 -483.803242 
L 210.884484 -488.540124 
L 195.203272 -484.379702 
L 179.52206 -481.839974 
L 163.840848 -485.690859 
L 148.159635 -476.86887 
L 132.478423 -479.305028 
L 116.797211 -468.969925 
L 101.115999 -459.892115 
L 85.434787 -456.571308 
z
" style="stroke: #daa520; stroke-opacity: 0.2"/>
    </defs>
    <g clip-path="url(#pfb230f021d)">
     <use xlink:href="#m0a93407858" x="0" y="639.76" style="fill: #daa520; fill-opacity: 0.2; stroke: #daa520; stroke-opacity: 0.2"/>
    </g>
   </g>
   <g id="PolyCollection_4">
    <defs>
     <path id="mff6578bb03" d="M 85.434787 -465.650078 
L 85.434787 -461.043516 
L 101.115999 -463.351581 
L 116.797211 -453.68758 
L 132.478423 -451.402882 
L 148.159635 -461.982729 
L 163.840848 -463.620397 
L 179.52206 -473.689675 
L 195.203272 -459.79473 
L 210.884484 -458.759777 
L 226.565696 -455.856696 
L 242.246908 -462.946188 
L 257.92812 -460.615465 
L 273.609332 -468.277557 
L 289.290545 -469.461681 
L 304.971757 -459.351881 
L 320.652969 -458.644359 
L 336.334181 -462.673282 
L 352.015393 -456.853319 
L 367.696605 -458.355555 
L 383.377817 -459.213824 
L 399.059029 -455.134413 
L 414.740241 -460.838562 
L 430.421454 -464.398715 
L 446.102666 -474.647505 
L 461.783878 -474.399576 
L 477.46509 -477.801063 
L 493.146302 -468.131355 
L 508.827514 -460.467073 
L 524.508726 -465.011424 
L 540.189938 -481.343847 
L 555.871151 -473.694468 
L 555.871151 -489.406718 
L 555.871151 -489.406718 
L 540.189938 -505.540625 
L 524.508726 -478.364286 
L 508.827514 -471.636938 
L 493.146302 -485.388885 
L 477.46509 -509.534277 
L 461.783878 -497.437177 
L 446.102666 -493.807737 
L 430.421454 -476.609939 
L 414.740241 -472.110826 
L 399.059029 -460.343841 
L 383.377817 -474.693658 
L 367.696605 -477.580834 
L 352.015393 -479.195786 
L 336.334181 -475.066579 
L 320.652969 -476.446652 
L 304.971757 -477.880753 
L 289.290545 -492.455976 
L 273.609332 -485.3554 
L 257.92812 -470.699527 
L 242.246908 -474.680956 
L 226.565696 -473.42939 
L 210.884484 -469.568214 
L 195.203272 -467.349733 
L 179.52206 -491.778567 
L 163.840848 -478.177275 
L 148.159635 -473.277358 
L 132.478423 -454.099917 
L 116.797211 -469.511788 
L 101.115999 -467.23075 
L 85.434787 -465.650078 
z
" style="stroke: #4169e1; stroke-opacity: 0.2"/>
    </defs>
    <g clip-path="url(#pfb230f021d)">
     <use xlink:href="#mff6578bb03" x="0" y="639.76" style="fill: #4169e1; fill-opacity: 0.2; stroke: #4169e1; stroke-opacity: 0.2"/>
    </g>
   </g>
   <g id="PolyCollection_5">
    <defs>
     <path id="mbe58bec096" d="M 85.434787 -478.601787 
L 85.434787 -467.817282 
L 101.115999 -480.230583 
L 116.797211 -452.201355 
L 132.478423 -449.050441 
L 148.159635 -448.323825 
L 163.840848 -448.362648 
L 179.52206 -448.579082 
L 195.203272 -448.158182 
L 210.884484 -449.265058 
L 226.565696 -448.706763 
L 242.246908 -450.620463 
L 257.92812 -448.165412 
L 273.609332 -450.85921 
L 289.290545 -449.357719 
L 304.971757 -448.158182 
L 320.652969 -451.664562 
L 336.334181 -448.730794 
L 352.015393 -448.321409 
L 367.696605 -448.546266 
L 383.377817 -451.020927 
L 399.059029 -448.887401 
L 414.740241 -448.762722 
L 430.421454 -450.47323 
L 446.102666 -450.794771 
L 461.783878 -448.775698 
L 477.46509 -454.104192 
L 493.146302 -449.40783 
L 508.827514 -448.614226 
L 524.508726 -448.366415 
L 540.189938 -451.465975 
L 555.871151 -448.533863 
L 555.871151 -457.814313 
L 555.871151 -457.814313 
L 540.189938 -456.291164 
L 524.508726 -456.065572 
L 508.827514 -451.309082 
L 493.146302 -451.586289 
L 477.46509 -462.106722 
L 461.783878 -452.049346 
L 446.102666 -454.200802 
L 430.421454 -457.058475 
L 414.740241 -451.273302 
L 399.059029 -452.952095 
L 383.377817 -459.779571 
L 367.696605 -450.418947 
L 352.015393 -449.291201 
L 336.334181 -450.516211 
L 320.652969 -463.700975 
L 304.971757 -448.158182 
L 289.290545 -451.072815 
L 273.609332 -454.58723 
L 257.92812 -448.432744 
L 242.246908 -457.193034 
L 226.565696 -452.400073 
L 210.884484 -453.194382 
L 195.203272 -448.158182 
L 179.52206 -449.202602 
L 163.840848 -449.137244 
L 148.159635 -449.345143 
L 132.478423 -450.534715 
L 116.797211 -462.826031 
L 101.115999 -494.705888 
L 85.434787 -478.601787 
z
" style="stroke: #663399; stroke-opacity: 0.2"/>
    </defs>
    <g clip-path="url(#pfb230f021d)">
     <use xlink:href="#mbe58bec096" x="0" y="639.76" style="fill: #663399; fill-opacity: 0.2; stroke: #663399; stroke-opacity: 0.2"/>
    </g>
   </g>
   <g id="PolyCollection_6">
    <defs>
     <path id="m009a676d19" d="M 85.434787 -448.158182 
L 85.434787 -448.158182 
L 101.115999 -448.158182 
L 116.797211 -448.158182 
L 132.478423 -448.158182 
L 148.159635 -448.163966 
L 163.840848 -448.158182 
L 179.52206 -448.158182 
L 195.203272 -448.158182 
L 210.884484 -448.165412 
L 226.565696 -448.161074 
L 242.246908 -448.158182 
L 257.92812 -448.158182 
L 273.609332 -448.413118 
L 289.290545 -448.158182 
L 304.971757 -448.158182 
L 320.652969 -448.161074 
L 336.334181 -448.158182 
L 352.015393 -448.158182 
L 367.696605 -448.158182 
L 383.377817 -448.158182 
L 399.059029 -448.158182 
L 414.740241 -448.158182 
L 430.421454 -448.158182 
L 446.102666 -448.46745 
L 461.783878 -448.158182 
L 477.46509 -448.158182 
L 493.146302 -448.158182 
L 508.827514 -448.16252 
L 524.508726 -448.158182 
L 540.189938 -448.348586 
L 555.871151 -448.200118 
L 555.871151 -449.750642 
L 555.871151 -449.750642 
L 540.189938 -453.096401 
L 524.508726 -448.158182 
L 508.827514 -448.322919 
L 493.146302 -448.158182 
L 477.46509 -448.158182 
L 461.783878 -448.158182 
L 446.102666 -449.483311 
L 430.421454 -448.158182 
L 414.740241 -448.158182 
L 399.059029 -448.158182 
L 383.377817 -448.158182 
L 367.696605 -448.158182 
L 352.015393 -448.158182 
L 336.334181 -448.158182 
L 320.652969 -448.268007 
L 304.971757 -448.158182 
L 289.290545 -448.158182 
L 273.609332 -449.312208 
L 257.92812 -448.158182 
L 242.246908 -448.158182 
L 226.565696 -448.268007 
L 210.884484 -448.432744 
L 195.203272 -448.158182 
L 179.52206 -448.158182 
L 163.840848 -448.158182 
L 148.159635 -448.377832 
L 132.478423 -448.158182 
L 116.797211 -448.158182 
L 101.115999 -448.158182 
L 85.434787 -448.158182 
z
" style="stroke: #ba55d3; stroke-opacity: 0.2"/>
    </defs>
    <g clip-path="url(#pfb230f021d)">
     <use xlink:href="#m009a676d19" x="0" y="639.76" style="fill: #ba55d3; fill-opacity: 0.2; stroke: #ba55d3; stroke-opacity: 0.2"/>
    </g>
   </g>
   <g id="matplotlib.axis_1">
    <g id="xtick_1">
     <g id="line2d_1">
      <defs>
       <path id="m16ce687307" d="M 0 0 
L 0 3.5 
" style="stroke: #000000; stroke-width: 0.8"/>
      </defs>
      <g>
       <use xlink:href="#m16ce687307" x="85.434787" y="197.32" style="stroke: #000000; stroke-width: 0.8"/>
      </g>
     </g>
     <g id="text_1">
      <!-- 0 -->
      <g transform="translate(82.253537 211.918437) scale(0.1 -0.1)">
       <defs>
        <path id="DejaVuSans-30" d="M 2034 4250 
Q 1547 4250 1301 3770 
Q 1056 3291 1056 2328 
Q 1056 1369 1301 889 
Q 1547 409 2034 409 
Q 2525 409 2770 889 
Q 3016 1369 3016 2328 
Q 3016 3291 2770 3770 
Q 2525 4250 2034 4250 
z
M 2034 4750 
Q 2819 4750 3233 4129 
Q 3647 3509 3647 2328 
Q 3647 1150 3233 529 
Q 2819 -91 2034 -91 
Q 1250 -91 836 529 
Q 422 1150 422 2328 
Q 422 3509 836 4129 
Q 1250 4750 2034 4750 
z
" transform="scale(0.015625)"/>
       </defs>
       <use xlink:href="#DejaVuSans-30"/>
      </g>
     </g>
    </g>
    <g id="xtick_2">
     <g id="line2d_2">
      <g>
       <use xlink:href="#m16ce687307" x="163.840848" y="197.32" style="stroke: #000000; stroke-width: 0.8"/>
      </g>
     </g>
     <g id="text_2">
      <!-- 5 -->
      <g transform="translate(160.659598 211.918437) scale(0.1 -0.1)">
       <defs>
        <path id="DejaVuSans-35" d="M 691 4666 
L 3169 4666 
L 3169 4134 
L 1269 4134 
L 1269 2991 
Q 1406 3038 1543 3061 
Q 1681 3084 1819 3084 
Q 2600 3084 3056 2656 
Q 3513 2228 3513 1497 
Q 3513 744 3044 326 
Q 2575 -91 1722 -91 
Q 1428 -91 1123 -41 
Q 819 9 494 109 
L 494 744 
Q 775 591 1075 516 
Q 1375 441 1709 441 
Q 2250 441 2565 725 
Q 2881 1009 2881 1497 
Q 2881 1984 2565 2268 
Q 2250 2553 1709 2553 
Q 1456 2553 1204 2497 
Q 953 2441 691 2322 
L 691 4666 
z
" transform="scale(0.015625)"/>
       </defs>
       <use xlink:href="#DejaVuSans-35"/>
      </g>
     </g>
    </g>
    <g id="xtick_3">
     <g id="line2d_3">
      <g>
       <use xlink:href="#m16ce687307" x="242.246908" y="197.32" style="stroke: #000000; stroke-width: 0.8"/>
      </g>
     </g>
     <g id="text_3">
      <!-- 10 -->
      <g transform="translate(235.884408 211.918437) scale(0.1 -0.1)">
       <defs>
        <path id="DejaVuSans-31" d="M 794 531 
L 1825 531 
L 1825 4091 
L 703 3866 
L 703 4441 
L 1819 4666 
L 2450 4666 
L 2450 531 
L 3481 531 
L 3481 0 
L 794 0 
L 794 531 
z
" transform="scale(0.015625)"/>
       </defs>
       <use xlink:href="#DejaVuSans-31"/>
       <use xlink:href="#DejaVuSans-30" x="63.623047"/>
      </g>
     </g>
    </g>
    <g id="xtick_4">
     <g id="line2d_4">
      <g>
       <use xlink:href="#m16ce687307" x="320.652969" y="197.32" style="stroke: #000000; stroke-width: 0.8"/>
      </g>
     </g>
     <g id="text_4">
      <!-- 15 -->
      <g transform="translate(314.290469 211.918437) scale(0.1 -0.1)">
       <use xlink:href="#DejaVuSans-31"/>
       <use xlink:href="#DejaVuSans-35" x="63.623047"/>
      </g>
     </g>
    </g>
    <g id="xtick_5">
     <g id="line2d_5">
      <g>
       <use xlink:href="#m16ce687307" x="399.059029" y="197.32" style="stroke: #000000; stroke-width: 0.8"/>
      </g>
     </g>
     <g id="text_5">
      <!-- 20 -->
      <g transform="translate(392.696529 211.918437) scale(0.1 -0.1)">
       <defs>
        <path id="DejaVuSans-32" d="M 1228 531 
L 3431 531 
L 3431 0 
L 469 0 
L 469 531 
Q 828 903 1448 1529 
Q 2069 2156 2228 2338 
Q 2531 2678 2651 2914 
Q 2772 3150 2772 3378 
Q 2772 3750 2511 3984 
Q 2250 4219 1831 4219 
Q 1534 4219 1204 4116 
Q 875 4013 500 3803 
L 500 4441 
Q 881 4594 1212 4672 
Q 1544 4750 1819 4750 
Q 2544 4750 2975 4387 
Q 3406 4025 3406 3419 
Q 3406 3131 3298 2873 
Q 3191 2616 2906 2266 
Q 2828 2175 2409 1742 
Q 1991 1309 1228 531 
z
" transform="scale(0.015625)"/>
       </defs>
       <use xlink:href="#DejaVuSans-32"/>
       <use xlink:href="#DejaVuSans-30" x="63.623047"/>
      </g>
     </g>
    </g>
    <g id="xtick_6">
     <g id="line2d_6">
      <g>
       <use xlink:href="#m16ce687307" x="477.46509" y="197.32" style="stroke: #000000; stroke-width: 0.8"/>
      </g>
     </g>
     <g id="text_6">
      <!-- 25 -->
      <g transform="translate(471.10259 211.918437) scale(0.1 -0.1)">
       <use xlink:href="#DejaVuSans-32"/>
       <use xlink:href="#DejaVuSans-35" x="63.623047"/>
      </g>
     </g>
    </g>
    <g id="xtick_7">
     <g id="line2d_7">
      <g>
       <use xlink:href="#m16ce687307" x="555.871151" y="197.32" style="stroke: #000000; stroke-width: 0.8"/>
      </g>
     </g>
     <g id="text_7">
      <!-- 30 -->
      <g transform="translate(549.508651 211.918437) scale(0.1 -0.1)">
       <defs>
        <path id="DejaVuSans-33" d="M 2597 2516 
Q 3050 2419 3304 2112 
Q 3559 1806 3559 1356 
Q 3559 666 3084 287 
Q 2609 -91 1734 -91 
Q 1441 -91 1130 -33 
Q 819 25 488 141 
L 488 750 
Q 750 597 1062 519 
Q 1375 441 1716 441 
Q 2309 441 2620 675 
Q 2931 909 2931 1356 
Q 2931 1769 2642 2001 
Q 2353 2234 1838 2234 
L 1294 2234 
L 1294 2753 
L 1863 2753 
Q 2328 2753 2575 2939 
Q 2822 3125 2822 3475 
Q 2822 3834 2567 4026 
Q 2313 4219 1838 4219 
Q 1578 4219 1281 4162 
Q 984 4106 628 3988 
L 628 4550 
Q 988 4650 1302 4700 
Q 1616 4750 1894 4750 
Q 2613 4750 3031 4423 
Q 3450 4097 3450 3541 
Q 3450 3153 3228 2886 
Q 3006 2619 2597 2516 
z
" transform="scale(0.015625)"/>
       </defs>
       <use xlink:href="#DejaVuSans-33"/>
       <use xlink:href="#DejaVuSans-30" x="63.623047"/>
      </g>
     </g>
    </g>
    <g id="text_8">
     <!-- Time bin = 1 min -->
     <g transform="translate(277.531875 225.596562) scale(0.1 -0.1)">
      <defs>
       <path id="DejaVuSans-54" d="M -19 4666 
L 3928 4666 
L 3928 4134 
L 2272 4134 
L 2272 0 
L 1638 0 
L 1638 4134 
L -19 4134 
L -19 4666 
z
" transform="scale(0.015625)"/>
       <path id="DejaVuSans-69" d="M 603 3500 
L 1178 3500 
L 1178 0 
L 603 0 
L 603 3500 
z
M 603 4863 
L 1178 4863 
L 1178 4134 
L 603 4134 
L 603 4863 
z
" transform="scale(0.015625)"/>
       <path id="DejaVuSans-6d" d="M 3328 2828 
Q 3544 3216 3844 3400 
Q 4144 3584 4550 3584 
Q 5097 3584 5394 3201 
Q 5691 2819 5691 2113 
L 5691 0 
L 5113 0 
L 5113 2094 
Q 5113 2597 4934 2840 
Q 4756 3084 4391 3084 
Q 3944 3084 3684 2787 
Q 3425 2491 3425 1978 
L 3425 0 
L 2847 0 
L 2847 2094 
Q 2847 2600 2669 2842 
Q 2491 3084 2119 3084 
Q 1678 3084 1418 2786 
Q 1159 2488 1159 1978 
L 1159 0 
L 581 0 
L 581 3500 
L 1159 3500 
L 1159 2956 
Q 1356 3278 1631 3431 
Q 1906 3584 2284 3584 
Q 2666 3584 2933 3390 
Q 3200 3197 3328 2828 
z
" transform="scale(0.015625)"/>
       <path id="DejaVuSans-65" d="M 3597 1894 
L 3597 1613 
L 953 1613 
Q 991 1019 1311 708 
Q 1631 397 2203 397 
Q 2534 397 2845 478 
Q 3156 559 3463 722 
L 3463 178 
Q 3153 47 2828 -22 
Q 2503 -91 2169 -91 
Q 1331 -91 842 396 
Q 353 884 353 1716 
Q 353 2575 817 3079 
Q 1281 3584 2069 3584 
Q 2775 3584 3186 3129 
Q 3597 2675 3597 1894 
z
M 3022 2063 
Q 3016 2534 2758 2815 
Q 2500 3097 2075 3097 
Q 1594 3097 1305 2825 
Q 1016 2553 972 2059 
L 3022 2063 
z
" transform="scale(0.015625)"/>
       <path id="DejaVuSans-20" transform="scale(0.015625)"/>
       <path id="DejaVuSans-62" d="M 3116 1747 
Q 3116 2381 2855 2742 
Q 2594 3103 2138 3103 
Q 1681 3103 1420 2742 
Q 1159 2381 1159 1747 
Q 1159 1113 1420 752 
Q 1681 391 2138 391 
Q 2594 391 2855 752 
Q 3116 1113 3116 1747 
z
M 1159 2969 
Q 1341 3281 1617 3432 
Q 1894 3584 2278 3584 
Q 2916 3584 3314 3078 
Q 3713 2572 3713 1747 
Q 3713 922 3314 415 
Q 2916 -91 2278 -91 
Q 1894 -91 1617 61 
Q 1341 213 1159 525 
L 1159 0 
L 581 0 
L 581 4863 
L 1159 4863 
L 1159 2969 
z
" transform="scale(0.015625)"/>
       <path id="DejaVuSans-6e" d="M 3513 2113 
L 3513 0 
L 2938 0 
L 2938 2094 
Q 2938 2591 2744 2837 
Q 2550 3084 2163 3084 
Q 1697 3084 1428 2787 
Q 1159 2491 1159 1978 
L 1159 0 
L 581 0 
L 581 3500 
L 1159 3500 
L 1159 2956 
Q 1366 3272 1645 3428 
Q 1925 3584 2291 3584 
Q 2894 3584 3203 3211 
Q 3513 2838 3513 2113 
z
" transform="scale(0.015625)"/>
       <path id="DejaVuSans-3d" d="M 678 2906 
L 4684 2906 
L 4684 2381 
L 678 2381 
L 678 2906 
z
M 678 1631 
L 4684 1631 
L 4684 1100 
L 678 1100 
L 678 1631 
z
" transform="scale(0.015625)"/>
      </defs>
      <use xlink:href="#DejaVuSans-54"/>
      <use xlink:href="#DejaVuSans-69" x="57.958984"/>
      <use xlink:href="#DejaVuSans-6d" x="85.742188"/>
      <use xlink:href="#DejaVuSans-65" x="183.154297"/>
      <use xlink:href="#DejaVuSans-20" x="244.677734"/>
      <use xlink:href="#DejaVuSans-62" x="276.464844"/>
      <use xlink:href="#DejaVuSans-69" x="339.941406"/>
      <use xlink:href="#DejaVuSans-6e" x="367.724609"/>
      <use xlink:href="#DejaVuSans-20" x="431.103516"/>
      <use xlink:href="#DejaVuSans-3d" x="462.890625"/>
      <use xlink:href="#DejaVuSans-20" x="546.679688"/>
      <use xlink:href="#DejaVuSans-31" x="578.466797"/>
      <use xlink:href="#DejaVuSans-20" x="642.089844"/>
      <use xlink:href="#DejaVuSans-6d" x="673.876953"/>
      <use xlink:href="#DejaVuSans-69" x="771.289062"/>
      <use xlink:href="#DejaVuSans-6e" x="799.072266"/>
     </g>
    </g>
   </g>
   <g id="matplotlib.axis_2">
    <g id="ytick_1">
     <g id="line2d_8">
      <defs>
       <path id="m1e8f63058b" d="M 0 0 
L -3.5 0 
" style="stroke: #000000; stroke-width: 0.8"/>
      </defs>
      <g>
       <use xlink:href="#m1e8f63058b" x="61.912969" y="191.601818" style="stroke: #000000; stroke-width: 0.8"/>
      </g>
     </g>
     <g id="text_9">
      <!-- 0.0 -->
      <g transform="translate(39.009844 195.401037) scale(0.1 -0.1)">
       <defs>
        <path id="DejaVuSans-2e" d="M 684 794 
L 1344 794 
L 1344 0 
L 684 0 
L 684 794 
z
" transform="scale(0.015625)"/>
       </defs>
       <use xlink:href="#DejaVuSans-30"/>
       <use xlink:href="#DejaVuSans-2e" x="63.623047"/>
       <use xlink:href="#DejaVuSans-30" x="95.410156"/>
      </g>
     </g>
    </g>
    <g id="ytick_2">
     <g id="line2d_9">
      <g>
       <use xlink:href="#m1e8f63058b" x="61.912969" y="157.786719" style="stroke: #000000; stroke-width: 0.8"/>
      </g>
     </g>
     <g id="text_10">
      <!-- 0.2 -->
      <g transform="translate(39.009844 161.585937) scale(0.1 -0.1)">
       <use xlink:href="#DejaVuSans-30"/>
       <use xlink:href="#DejaVuSans-2e" x="63.623047"/>
       <use xlink:href="#DejaVuSans-32" x="95.410156"/>
      </g>
     </g>
    </g>
    <g id="ytick_3">
     <g id="line2d_10">
      <g>
       <use xlink:href="#m1e8f63058b" x="61.912969" y="123.971619" style="stroke: #000000; stroke-width: 0.8"/>
      </g>
     </g>
     <g id="text_11">
      <!-- 0.4 -->
      <g transform="translate(39.009844 127.770838) scale(0.1 -0.1)">
       <defs>
        <path id="DejaVuSans-34" d="M 2419 4116 
L 825 1625 
L 2419 1625 
L 2419 4116 
z
M 2253 4666 
L 3047 4666 
L 3047 1625 
L 3713 1625 
L 3713 1100 
L 3047 1100 
L 3047 0 
L 2419 0 
L 2419 1100 
L 313 1100 
L 313 1709 
L 2253 4666 
z
" transform="scale(0.015625)"/>
       </defs>
       <use xlink:href="#DejaVuSans-30"/>
       <use xlink:href="#DejaVuSans-2e" x="63.623047"/>
       <use xlink:href="#DejaVuSans-34" x="95.410156"/>
      </g>
     </g>
    </g>
    <g id="ytick_4">
     <g id="line2d_11">
      <g>
       <use xlink:href="#m1e8f63058b" x="61.912969" y="90.156519" style="stroke: #000000; stroke-width: 0.8"/>
      </g>
     </g>
     <g id="text_12">
      <!-- 0.6 -->
      <g transform="translate(39.009844 93.955738) scale(0.1 -0.1)">
       <defs>
        <path id="DejaVuSans-36" d="M 2113 2584 
Q 1688 2584 1439 2293 
Q 1191 2003 1191 1497 
Q 1191 994 1439 701 
Q 1688 409 2113 409 
Q 2538 409 2786 701 
Q 3034 994 3034 1497 
Q 3034 2003 2786 2293 
Q 2538 2584 2113 2584 
z
M 3366 4563 
L 3366 3988 
Q 3128 4100 2886 4159 
Q 2644 4219 2406 4219 
Q 1781 4219 1451 3797 
Q 1122 3375 1075 2522 
Q 1259 2794 1537 2939 
Q 1816 3084 2150 3084 
Q 2853 3084 3261 2657 
Q 3669 2231 3669 1497 
Q 3669 778 3244 343 
Q 2819 -91 2113 -91 
Q 1303 -91 875 529 
Q 447 1150 447 2328 
Q 447 3434 972 4092 
Q 1497 4750 2381 4750 
Q 2619 4750 2861 4703 
Q 3103 4656 3366 4563 
z
" transform="scale(0.015625)"/>
       </defs>
       <use xlink:href="#DejaVuSans-30"/>
       <use xlink:href="#DejaVuSans-2e" x="63.623047"/>
       <use xlink:href="#DejaVuSans-36" x="95.410156"/>
      </g>
     </g>
    </g>
    <g id="text_13">
     <!-- Percent -->
     <g transform="translate(32.930156 153.227812) rotate(-90) scale(0.1 -0.1)">
      <defs>
       <path id="DejaVuSans-50" d="M 1259 4147 
L 1259 2394 
L 2053 2394 
Q 2494 2394 2734 2622 
Q 2975 2850 2975 3272 
Q 2975 3691 2734 3919 
Q 2494 4147 2053 4147 
L 1259 4147 
z
M 628 4666 
L 2053 4666 
Q 2838 4666 3239 4311 
Q 3641 3956 3641 3272 
Q 3641 2581 3239 2228 
Q 2838 1875 2053 1875 
L 1259 1875 
L 1259 0 
L 628 0 
L 628 4666 
z
" transform="scale(0.015625)"/>
       <path id="DejaVuSans-72" d="M 2631 2963 
Q 2534 3019 2420 3045 
Q 2306 3072 2169 3072 
Q 1681 3072 1420 2755 
Q 1159 2438 1159 1844 
L 1159 0 
L 581 0 
L 581 3500 
L 1159 3500 
L 1159 2956 
Q 1341 3275 1631 3429 
Q 1922 3584 2338 3584 
Q 2397 3584 2469 3576 
Q 2541 3569 2628 3553 
L 2631 2963 
z
" transform="scale(0.015625)"/>
       <path id="DejaVuSans-63" d="M 3122 3366 
L 3122 2828 
Q 2878 2963 2633 3030 
Q 2388 3097 2138 3097 
Q 1578 3097 1268 2742 
Q 959 2388 959 1747 
Q 959 1106 1268 751 
Q 1578 397 2138 397 
Q 2388 397 2633 464 
Q 2878 531 3122 666 
L 3122 134 
Q 2881 22 2623 -34 
Q 2366 -91 2075 -91 
Q 1284 -91 818 406 
Q 353 903 353 1747 
Q 353 2603 823 3093 
Q 1294 3584 2113 3584 
Q 2378 3584 2631 3529 
Q 2884 3475 3122 3366 
z
" transform="scale(0.015625)"/>
       <path id="DejaVuSans-74" d="M 1172 4494 
L 1172 3500 
L 2356 3500 
L 2356 3053 
L 1172 3053 
L 1172 1153 
Q 1172 725 1289 603 
Q 1406 481 1766 481 
L 2356 481 
L 2356 0 
L 1766 0 
Q 1100 0 847 248 
Q 594 497 594 1153 
L 594 3053 
L 172 3053 
L 172 3500 
L 594 3500 
L 594 4494 
L 1172 4494 
z
" transform="scale(0.015625)"/>
      </defs>
      <use xlink:href="#DejaVuSans-50"/>
      <use xlink:href="#DejaVuSans-65" x="56.677734"/>
      <use xlink:href="#DejaVuSans-72" x="118.201172"/>
      <use xlink:href="#DejaVuSans-63" x="157.064453"/>
      <use xlink:href="#DejaVuSans-65" x="212.044922"/>
      <use xlink:href="#DejaVuSans-6e" x="273.568359"/>
      <use xlink:href="#DejaVuSans-74" x="336.947266"/>
     </g>
    </g>
   </g>
   <g id="line2d_12">
    <path d="M 85.434787 176.638637 
L 101.115999 163.253493 
L 116.797211 145.669641 
L 132.478423 132.650828 
L 148.159635 135.525111 
L 163.840848 144.514292 
L 179.52206 146.176868 
L 195.203272 133.777998 
L 210.884484 136.257772 
L 226.565696 140.45648 
L 242.246908 142.062697 
L 257.92812 140.879169 
L 273.609332 137.046791 
L 289.290545 148.684821 
L 304.971757 149.47384 
L 320.652969 142.400848 
L 336.334181 144.542471 
L 352.015393 138.089423 
L 367.696605 135.384215 
L 383.377817 143.753452 
L 399.059029 138.145782 
L 414.740241 141.330037 
L 430.421454 147.2195 
L 446.102666 152.09451 
L 461.783878 141.97816 
L 477.46509 154.264312 
L 493.146302 138.004885 
L 508.827514 136.821357 
L 524.508726 142.316311 
L 540.189938 153.22168 
L 555.871151 144.007066 
" clip-path="url(#pfb230f021d)" style="fill: none; stroke: #dc143c; stroke-width: 1.5; stroke-linecap: square"/>
   </g>
   <g id="line2d_13">
    <path d="M 85.434787 84.830641 
L 101.115999 116.757731 
L 116.797211 109.205692 
L 132.478423 112.418127 
L 148.159635 123.1826 
L 163.840848 124.591563 
L 179.52206 131.80545 
L 195.203272 126.705006 
L 210.884484 133.270771 
L 226.565696 123.323496 
L 242.246908 130.790997 
L 257.92812 134.257045 
L 273.609332 142.429028 
L 289.290545 138.455753 
L 304.971757 129.804724 
L 320.652969 138.512112 
L 336.334181 128.762091 
L 352.015393 134.848809 
L 367.696605 134.144328 
L 383.377817 138.173961 
L 399.059029 129.494752 
L 414.740241 131.241865 
L 430.421454 141.499112 
L 446.102666 146.881349 
L 461.783878 141.837263 
L 477.46509 143.809811 
L 493.146302 139.921074 
L 508.827514 129.57929 
L 524.508726 141.499112 
L 540.189938 157.617643 
L 555.871151 143.781632 
" clip-path="url(#pfb230f021d)" style="fill: none; stroke: #008b8b; stroke-width: 1.5; stroke-linecap: square"/>
   </g>
   <g id="line2d_14">
    <path d="M 85.434787 184.500647 
L 101.115999 182.16177 
L 116.797211 173.651636 
L 132.478423 166.888616 
L 148.159635 167.283126 
L 163.840848 159.956521 
L 179.52206 163.056238 
L 195.203272 160.661002 
L 210.884484 155.419662 
L 226.565696 160.886436 
L 242.246908 159.280219 
L 257.92812 148.233953 
L 273.609332 160.181955 
L 289.290545 153.447114 
L 304.971757 146.909528 
L 320.652969 153.785265 
L 336.334181 154.602463 
L 352.015393 153.306218 
L 367.696605 157.335851 
L 383.377817 149.84017 
L 399.059029 150.431934 
L 414.740241 153.334397 
L 430.421454 144.96516 
L 446.102666 147.98034 
L 461.783878 161.929068 
L 477.46509 163.112597 
L 493.146302 158.744813 
L 508.827514 159.111143 
L 524.508726 149.502019 
L 540.189938 148.459387 
L 555.871151 157.166775 
" clip-path="url(#pfb230f021d)" style="fill: none; stroke: #daa520; stroke-width: 1.5; stroke-linecap: square"/>
   </g>
   <g id="line2d_15">
    <path d="M 85.434787 176.413203 
L 101.115999 174.468834 
L 116.797211 178.160316 
L 132.478423 187.0086 
L 148.159635 172.129957 
L 163.840848 168.861164 
L 179.52206 157.025879 
L 195.203272 176.187769 
L 210.884484 175.596004 
L 226.565696 175.116957 
L 242.246908 170.946428 
L 257.92812 174.102504 
L 273.609332 162.943521 
L 289.290545 158.801172 
L 304.971757 171.143683 
L 320.652969 172.214494 
L 336.334181 170.89007 
L 352.015393 171.735447 
L 367.696605 171.791806 
L 383.377817 172.806259 
L 399.059029 182.020873 
L 414.740241 173.285306 
L 430.421454 169.255673 
L 446.102666 155.532379 
L 461.783878 153.841624 
L 477.46509 146.09233 
L 493.146302 162.99988 
L 508.827514 173.707995 
L 524.508726 168.072145 
L 540.189938 146.317764 
L 555.871151 158.209407 
" clip-path="url(#pfb230f021d)" style="fill: none; stroke: #4169e1; stroke-width: 1.5; stroke-linecap: square"/>
   </g>
   <g id="line2d_16">
    <path d="M 85.434787 166.550465 
L 101.115999 152.291765 
L 116.797211 182.246307 
L 132.478423 189.967422 
L 148.159635 190.925516 
L 163.840848 191.010054 
L 179.52206 190.869158 
L 195.203272 191.601818 
L 210.884484 188.53028 
L 226.565696 189.206582 
L 242.246908 185.853251 
L 257.92812 191.460922 
L 273.609332 187.03678 
L 289.290545 189.544733 
L 304.971757 191.601818 
L 320.652969 182.077232 
L 336.334181 190.136497 
L 352.015393 190.953695 
L 367.696605 190.277393 
L 383.377817 184.359751 
L 399.059029 188.840252 
L 414.740241 189.741988 
L 430.421454 185.994148 
L 446.102666 187.262214 
L 461.783878 189.347478 
L 477.46509 181.654543 
L 493.146302 189.26294 
L 508.827514 189.798346 
L 524.508726 187.544006 
L 540.189938 185.881431 
L 555.871151 186.585912 
" clip-path="url(#pfb230f021d)" style="fill: none; stroke: #663399; stroke-width: 1.5; stroke-linecap: square"/>
   </g>
   <g id="line2d_17">
    <path d="M 85.434787 191.601818 
L 101.115999 191.601818 
L 116.797211 191.601818 
L 132.478423 191.601818 
L 148.159635 191.489101 
L 163.840848 191.601818 
L 179.52206 191.601818 
L 195.203272 191.601818 
L 210.884484 191.460922 
L 226.565696 191.54546 
L 242.246908 191.601818 
L 257.92812 191.601818 
L 273.609332 190.897337 
L 289.290545 191.601818 
L 304.971757 191.601818 
L 320.652969 191.54546 
L 336.334181 191.601818 
L 352.015393 191.601818 
L 367.696605 191.601818 
L 383.377817 191.601818 
L 399.059029 191.601818 
L 414.740241 191.601818 
L 430.421454 191.601818 
L 446.102666 190.78462 
L 461.783878 191.601818 
L 477.46509 191.601818 
L 493.146302 191.601818 
L 508.827514 191.51728 
L 524.508726 191.601818 
L 540.189938 189.037506 
L 555.871151 190.78462 
" clip-path="url(#pfb230f021d)" style="fill: none; stroke: #ba55d3; stroke-width: 1.5; stroke-linecap: square"/>
   </g>
   <g id="patch_3">
    <path d="M 61.912969 197.32 
L 61.912969 71.52 
" style="fill: none; stroke: #000000; stroke-width: 0.8; stroke-linejoin: miter; stroke-linecap: square"/>
   </g>
   <g id="patch_4">
    <path d="M 61.912969 197.32 
L 579.392969 197.32 
" style="fill: none; stroke: #000000; stroke-width: 0.8; stroke-linejoin: miter; stroke-linecap: square"/>
   </g>
   <g id="text_14">
    <!-- 1Per Formalin -->
    <g transform="translate(279.446094 65.52) scale(0.12 -0.12)">
     <defs>
      <path id="DejaVuSans-46" d="M 628 4666 
L 3309 4666 
L 3309 4134 
L 1259 4134 
L 1259 2759 
L 3109 2759 
L 3109 2228 
L 1259 2228 
L 1259 0 
L 628 0 
L 628 4666 
z
" transform="scale(0.015625)"/>
      <path id="DejaVuSans-6f" d="M 1959 3097 
Q 1497 3097 1228 2736 
Q 959 2375 959 1747 
Q 959 1119 1226 758 
Q 1494 397 1959 397 
Q 2419 397 2687 759 
Q 2956 1122 2956 1747 
Q 2956 2369 2687 2733 
Q 2419 3097 1959 3097 
z
M 1959 3584 
Q 2709 3584 3137 3096 
Q 3566 2609 3566 1747 
Q 3566 888 3137 398 
Q 2709 -91 1959 -91 
Q 1206 -91 779 398 
Q 353 888 353 1747 
Q 353 2609 779 3096 
Q 1206 3584 1959 3584 
z
" transform="scale(0.015625)"/>
      <path id="DejaVuSans-61" d="M 2194 1759 
Q 1497 1759 1228 1600 
Q 959 1441 959 1056 
Q 959 750 1161 570 
Q 1363 391 1709 391 
Q 2188 391 2477 730 
Q 2766 1069 2766 1631 
L 2766 1759 
L 2194 1759 
z
M 3341 1997 
L 3341 0 
L 2766 0 
L 2766 531 
Q 2569 213 2275 61 
Q 1981 -91 1556 -91 
Q 1019 -91 701 211 
Q 384 513 384 1019 
Q 384 1609 779 1909 
Q 1175 2209 1959 2209 
L 2766 2209 
L 2766 2266 
Q 2766 2663 2505 2880 
Q 2244 3097 1772 3097 
Q 1472 3097 1187 3025 
Q 903 2953 641 2809 
L 641 3341 
Q 956 3463 1253 3523 
Q 1550 3584 1831 3584 
Q 2591 3584 2966 3190 
Q 3341 2797 3341 1997 
z
" transform="scale(0.015625)"/>
      <path id="DejaVuSans-6c" d="M 603 4863 
L 1178 4863 
L 1178 0 
L 603 0 
L 603 4863 
z
" transform="scale(0.015625)"/>
     </defs>
     <use xlink:href="#DejaVuSans-31"/>
     <use xlink:href="#DejaVuSans-50" x="63.623047"/>
     <use xlink:href="#DejaVuSans-65" x="120.300781"/>
     <use xlink:href="#DejaVuSans-72" x="181.824219"/>
     <use xlink:href="#DejaVuSans-20" x="222.9375"/>
     <use xlink:href="#DejaVuSans-46" x="254.724609"/>
     <use xlink:href="#DejaVuSans-6f" x="308.619141"/>
     <use xlink:href="#DejaVuSans-72" x="369.800781"/>
     <use xlink:href="#DejaVuSans-6d" x="409.164062"/>
     <use xlink:href="#DejaVuSans-61" x="506.576172"/>
     <use xlink:href="#DejaVuSans-6c" x="567.855469"/>
     <use xlink:href="#DejaVuSans-69" x="595.638672"/>
     <use xlink:href="#DejaVuSans-6e" x="623.421875"/>
    </g>
   </g>
  </g>
  <g id="axes_2">
   <g id="patch_5">
    <path d="M 61.912969 381.16 
L 579.392969 381.16 
L 579.392969 255.36 
L 61.912969 255.36 
z
" style="fill: #ffffff"/>
   </g>
   <g id="PolyCollection_7">
    <defs>
     <path id="m4f3e42d5e5" d="M 85.434787 -280.546799 
L 85.434787 -276.89405 
L 101.115999 -283.777965 
L 116.797211 -298.311671 
L 132.478423 -321.675799 
L 148.159635 -315.907931 
L 163.840848 -321.951155 
L 179.52206 -324.894799 
L 195.203272 -320.55322 
L 210.884484 -331.386621 
L 226.565696 -324.78224 
L 242.246908 -314.867676 
L 257.92812 -324.049357 
L 273.609332 -313.461791 
L 289.290545 -307.363332 
L 304.971757 -306.834861 
L 320.652969 -303.189526 
L 336.334181 -312.859159 
L 352.015393 -326.505424 
L 367.696605 -324.162921 
L 383.377817 -310.006848 
L 399.059029 -309.333221 
L 414.740241 -305.499397 
L 430.421454 -320.350083 
L 446.102666 -301.912546 
L 461.783878 -304.444138 
L 477.46509 -319.529848 
L 493.146302 -326.282731 
L 508.827514 -334.307629 
L 524.508726 -321.504795 
L 540.189938 -314.906022 
L 555.871151 -324.352885 
L 555.871151 -341.65872 
L 555.871151 -341.65872 
L 540.189938 -325.158223 
L 524.508726 -342.466006 
L 508.827514 -362.490957 
L 493.146302 -351.857079 
L 477.46509 -347.589622 
L 461.783878 -317.777651 
L 446.102666 -316.460871 
L 430.421454 -341.34668 
L 414.740241 -317.24717 
L 399.059029 -323.559056 
L 383.377817 -325.451011 
L 367.696605 -341.382215 
L 352.015393 -341.721911 
L 336.334181 -330.353754 
L 320.652969 -322.822327 
L 304.971757 -319.935005 
L 289.290545 -329.027466 
L 273.609332 -328.468331 
L 257.92812 -343.594891 
L 242.246908 -335.050734 
L 226.565696 -347.293467 
L 210.884484 -349.78524 
L 195.203272 -334.438045 
L 179.52206 -341.350041 
L 163.840848 -343.827215 
L 148.159635 -335.643122 
L 132.478423 -349.350352 
L 116.797211 -312.073457 
L 101.115999 -291.447031 
L 85.434787 -280.546799 
z
" style="stroke: #dc143c; stroke-opacity: 0.2"/>
    </defs>
    <g clip-path="url(#p528110e4d0)">
     <use xlink:href="#m4f3e42d5e5" x="0" y="639.76" style="fill: #dc143c; fill-opacity: 0.2; stroke: #dc143c; stroke-opacity: 0.2"/>
    </g>
   </g>
   <g id="PolyCollection_8">
    <defs>
     <path id="m0411b2e3d6" d="M 85.434787 -378.681818 
L 85.434787 -369.894873 
L 101.115999 -332.916476 
L 116.797211 -333.600401 
L 132.478423 -320.036178 
L 148.159635 -315.691423 
L 163.840848 -317.144233 
L 179.52206 -327.454808 
L 195.203272 -321.04524 
L 210.884484 -319.654655 
L 226.565696 -315.969896 
L 242.246908 -317.186027 
L 257.92812 -323.969138 
L 273.609332 -322.738613 
L 289.290545 -316.102041 
L 304.971757 -326.777926 
L 320.652969 -315.448404 
L 336.334181 -327.31644 
L 352.015393 -321.828973 
L 367.696605 -320.746177 
L 383.377817 -322.267321 
L 399.059029 -316.359319 
L 414.740241 -309.709006 
L 430.421454 -311.649494 
L 446.102666 -306.385487 
L 461.783878 -321.554409 
L 477.46509 -310.465497 
L 493.146302 -315.704978 
L 508.827514 -314.57933 
L 524.508726 -317.408068 
L 540.189938 -308.777603 
L 555.871151 -317.362744 
L 555.871151 -334.713088 
L 555.871151 -334.713088 
L 540.189938 -329.828925 
L 524.508726 -332.452034 
L 508.827514 -332.015486 
L 493.146302 -329.956899 
L 477.46509 -328.6075 
L 461.783878 -338.801254 
L 446.102666 -326.215247 
L 430.421454 -323.633438 
L 414.740241 -330.063695 
L 399.059029 -335.658204 
L 383.377817 -337.855108 
L 367.696605 -335.178028 
L 352.015393 -333.687071 
L 336.334181 -339.453178 
L 320.652969 -332.895672 
L 304.971757 -340.51647 
L 289.290545 -333.466518 
L 273.609332 -340.415867 
L 257.92812 -333.762635 
L 242.246908 -328.534159 
L 226.565696 -330.799846 
L 210.884484 -330.088829 
L 195.203272 -333.829409 
L 179.52206 -340.830836 
L 163.840848 -331.724621 
L 148.159635 -336.209483 
L 132.478423 -335.771409 
L 116.797211 -347.979621 
L 101.115999 -343.590691 
L 85.434787 -378.681818 
z
" style="stroke: #008b8b; stroke-opacity: 0.2"/>
    </defs>
    <g clip-path="url(#p528110e4d0)">
     <use xlink:href="#m0411b2e3d6" x="0" y="639.76" style="fill: #008b8b; fill-opacity: 0.2; stroke: #008b8b; stroke-opacity: 0.2"/>
    </g>
   </g>
   <g id="PolyCollection_9">
    <defs>
     <path id="m7fad8d5995" d="M 85.434787 -271.500829 
L 85.434787 -268.505726 
L 101.115999 -272.619221 
L 116.797211 -279.854995 
L 132.478423 -278.620667 
L 148.159635 -276.584722 
L 163.840848 -280.676632 
L 179.52206 -276.766464 
L 195.203272 -285.286128 
L 210.884484 -277.967254 
L 226.565696 -279.914638 
L 242.246908 -277.417695 
L 257.92812 -280.722284 
L 273.609332 -281.379532 
L 289.290545 -281.838092 
L 304.971757 -288.007423 
L 320.652969 -285.405049 
L 336.334181 -287.999039 
L 352.015393 -281.558835 
L 367.696605 -280.688359 
L 383.377817 -279.997999 
L 399.059029 -288.27688 
L 414.740241 -290.359353 
L 430.421454 -280.434695 
L 446.102666 -281.536483 
L 461.783878 -280.305192 
L 477.46509 -271.77341 
L 493.146302 -283.654115 
L 508.827514 -281.704963 
L 524.508726 -278.516285 
L 540.189938 -273.025492 
L 555.871151 -276.688576 
L 555.871151 -289.673501 
L 555.871151 -289.673501 
L 540.189938 -284.182123 
L 524.508726 -291.46093 
L 508.827514 -295.677454 
L 493.146302 -296.177266 
L 477.46509 -276.338052 
L 461.783878 -293.403779 
L 446.102666 -296.254095 
L 430.421454 -291.525015 
L 414.740241 -314.603068 
L 399.059029 -302.283298 
L 383.377817 -291.670167 
L 367.696605 -293.428772 
L 352.015393 -293.199692 
L 336.334181 -300.636952 
L 320.652969 -298.391322 
L 304.971757 -298.995925 
L 289.290545 -295.136165 
L 273.609332 -289.58893 
L 257.92812 -293.103304 
L 242.246908 -284.104762 
L 226.565696 -292.569851 
L 210.884484 -289.619306 
L 195.203272 -298.277008 
L 179.52206 -285.80555 
L 163.840848 -287.376397 
L 148.159635 -282.54708 
L 132.478423 -287.799719 
L 116.797211 -286.973551 
L 101.115999 -276.541796 
L 85.434787 -271.500829 
z
" style="stroke: #daa520; stroke-opacity: 0.2"/>
    </defs>
    <g clip-path="url(#p528110e4d0)">
     <use xlink:href="#m7fad8d5995" x="0" y="639.76" style="fill: #daa520; fill-opacity: 0.2; stroke: #daa520; stroke-opacity: 0.2"/>
    </g>
   </g>
   <g id="PolyCollection_10">
    <defs>
     <path id="mb1c5d376d9" d="M 85.434787 -285.118892 
L 85.434787 -277.51143 
L 101.115999 -277.12308 
L 116.797211 -281.40164 
L 132.478423 -275.292277 
L 148.159635 -284.286963 
L 163.840848 -278.179803 
L 179.52206 -273.893496 
L 195.203272 -274.124301 
L 210.884484 -273.341187 
L 226.565696 -272.183581 
L 242.246908 -291.816884 
L 257.92812 -272.828587 
L 273.609332 -277.243012 
L 289.290545 -282.220355 
L 304.971757 -279.418292 
L 320.652969 -287.45256 
L 336.334181 -269.989428 
L 352.015393 -273.062525 
L 367.696605 -272.181183 
L 383.377817 -275.642333 
L 399.059029 -282.387475 
L 414.740241 -276.247107 
L 430.421454 -272.013745 
L 446.102666 -282.101207 
L 461.783878 -284.173707 
L 477.46509 -278.370648 
L 493.146302 -270.447455 
L 508.827514 -267.698337 
L 524.508726 -268.878599 
L 540.189938 -277.045338 
L 555.871151 -275.571215 
L 555.871151 -286.709255 
L 555.871151 -286.709255 
L 540.189938 -287.509171 
L 524.508726 -272.585674 
L 508.827514 -271.783441 
L 493.146302 -285.069209 
L 477.46509 -300.994264 
L 461.783878 -305.10368 
L 446.102666 -297.263705 
L 430.421454 -289.275477 
L 414.740241 -285.625202 
L 399.059029 -299.601328 
L 383.377817 -288.212472 
L 367.696605 -281.003133 
L 352.015393 -282.220904 
L 336.334181 -287.101569 
L 320.652969 -313.603179 
L 304.971757 -298.66383 
L 289.290545 -306.882106 
L 273.609332 -299.789553 
L 257.92812 -289.918352 
L 242.246908 -312.212598 
L 226.565696 -295.986065 
L 210.884484 -285.790615 
L 195.203272 -284.890884 
L 179.52206 -282.614415 
L 163.840848 -292.846968 
L 148.159635 -304.174103 
L 132.478423 -287.687898 
L 116.797211 -298.254815 
L 101.115999 -284.574303 
L 85.434787 -285.118892 
z
" style="stroke: #4169e1; stroke-opacity: 0.2"/>
    </defs>
    <g clip-path="url(#p528110e4d0)">
     <use xlink:href="#mb1c5d376d9" x="0" y="639.76" style="fill: #4169e1; fill-opacity: 0.2; stroke: #4169e1; stroke-opacity: 0.2"/>
    </g>
   </g>
   <g id="PolyCollection_11">
    <defs>
     <path id="m2cfd9145e7" d="M 85.434787 -295.838613 
L 85.434787 -288.540845 
L 101.115999 -310.329944 
L 116.797211 -273.093992 
L 132.478423 -266.527999 
L 148.159635 -268.221505 
L 163.840848 -267.353723 
L 179.52206 -268.22615 
L 195.203272 -268.241043 
L 210.884484 -265.12815 
L 226.565696 -265.742007 
L 242.246908 -265.196612 
L 257.92812 -265.03134 
L 273.609332 -267.270775 
L 289.290545 -265.523056 
L 304.971757 -265.542057 
L 320.652969 -265.606139 
L 336.334181 -266.309421 
L 352.015393 -266.754464 
L 367.696605 -267.799245 
L 383.377817 -272.980378 
L 399.059029 -265.52308 
L 414.740241 -274.901151 
L 430.421454 -274.590941 
L 446.102666 -281.815758 
L 461.783878 -269.672828 
L 477.46509 -273.254129 
L 493.146302 -265.42989 
L 508.827514 -264.867384 
L 524.508726 -273.376483 
L 540.189938 -285.10955 
L 555.871151 -266.768804 
L 555.871151 -279.535089 
L 555.871151 -279.535089 
L 540.189938 -307.491432 
L 524.508726 -294.385003 
L 508.827514 -267.908896 
L 493.146302 -268.279329 
L 477.46509 -286.110907 
L 461.783878 -277.797238 
L 446.102666 -303.088478 
L 430.421454 -287.689528 
L 414.740241 -288.778727 
L 399.059029 -270.052016 
L 383.377817 -288.95024 
L 367.696605 -276.463844 
L 352.015393 -272.202535 
L 336.334181 -270.081997 
L 320.652969 -267.986462 
L 304.971757 -268.342088 
L 289.290545 -268.594324 
L 273.609332 -272.211003 
L 257.92812 -266.053988 
L 242.246908 -266.646729 
L 226.565696 -267.792285 
L 210.884484 -270.27202 
L 195.203272 -272.348599 
L 179.52206 -271.197319 
L 163.840848 -271.953128 
L 148.159635 -273.767546 
L 132.478423 -270.271579 
L 116.797211 -281.489733 
L 101.115999 -320.113369 
L 85.434787 -295.838613 
z
" style="stroke: #663399; stroke-opacity: 0.2"/>
    </defs>
    <g clip-path="url(#p528110e4d0)">
     <use xlink:href="#m2cfd9145e7" x="0" y="639.76" style="fill: #663399; fill-opacity: 0.2; stroke: #663399; stroke-opacity: 0.2"/>
    </g>
   </g>
   <g id="PolyCollection_12">
    <defs>
     <path id="m6dbc2c20a7" d="M 85.434787 -264.318182 
L 85.434787 -264.318182 
L 101.115999 -264.318182 
L 116.797211 -264.318182 
L 132.478423 -264.318182 
L 148.159635 -264.318182 
L 163.840848 -264.318182 
L 179.52206 -264.318182 
L 195.203272 -264.318182 
L 210.884484 -264.318182 
L 226.565696 -264.318182 
L 242.246908 -264.318182 
L 257.92812 -264.318182 
L 273.609332 -264.330151 
L 289.290545 -265.234968 
L 304.971757 -264.318182 
L 320.652969 -264.324166 
L 336.334181 -264.486763 
L 352.015393 -264.325662 
L 367.696605 -264.318182 
L 383.377817 -264.318182 
L 399.059029 -264.318182 
L 414.740241 -264.318182 
L 430.421454 -264.331647 
L 446.102666 -264.318182 
L 461.783878 -264.318182 
L 477.46509 -264.318182 
L 493.146302 -264.32267 
L 508.827514 -264.318182 
L 524.508726 -264.318182 
L 540.189938 -264.318182 
L 555.871151 -264.318182 
L 555.871151 -264.318182 
L 555.871151 -264.318182 
L 540.189938 -264.318182 
L 524.508726 -264.318182 
L 508.827514 -264.318182 
L 493.146302 -264.48862 
L 477.46509 -264.318182 
L 461.783878 -264.318182 
L 446.102666 -264.318182 
L 430.421454 -264.829495 
L 414.740241 -264.318182 
L 399.059029 -264.318182 
L 383.377817 -264.318182 
L 367.696605 -264.318182 
L 352.015393 -264.602245 
L 336.334181 -265.08254 
L 320.652969 -264.545432 
L 304.971757 -264.318182 
L 289.290545 -270.281819 
L 273.609332 -264.772682 
L 257.92812 -264.318182 
L 242.246908 -264.318182 
L 226.565696 -264.318182 
L 210.884484 -264.318182 
L 195.203272 -264.318182 
L 179.52206 -264.318182 
L 163.840848 -264.318182 
L 148.159635 -264.318182 
L 132.478423 -264.318182 
L 116.797211 -264.318182 
L 101.115999 -264.318182 
L 85.434787 -264.318182 
z
" style="stroke: #ba55d3; stroke-opacity: 0.2"/>
    </defs>
    <g clip-path="url(#p528110e4d0)">
     <use xlink:href="#m6dbc2c20a7" x="0" y="639.76" style="fill: #ba55d3; fill-opacity: 0.2; stroke: #ba55d3; stroke-opacity: 0.2"/>
    </g>
   </g>
   <g id="matplotlib.axis_3">
    <g id="xtick_8">
     <g id="line2d_18">
      <g>
       <use xlink:href="#m16ce687307" x="85.434787" y="381.16" style="stroke: #000000; stroke-width: 0.8"/>
      </g>
     </g>
     <g id="text_15">
      <!-- 0 -->
      <g transform="translate(82.253537 395.758437) scale(0.1 -0.1)">
       <use xlink:href="#DejaVuSans-30"/>
      </g>
     </g>
    </g>
    <g id="xtick_9">
     <g id="line2d_19">
      <g>
       <use xlink:href="#m16ce687307" x="163.840848" y="381.16" style="stroke: #000000; stroke-width: 0.8"/>
      </g>
     </g>
     <g id="text_16">
      <!-- 5 -->
      <g transform="translate(160.659598 395.758437) scale(0.1 -0.1)">
       <use xlink:href="#DejaVuSans-35"/>
      </g>
     </g>
    </g>
    <g id="xtick_10">
     <g id="line2d_20">
      <g>
       <use xlink:href="#m16ce687307" x="242.246908" y="381.16" style="stroke: #000000; stroke-width: 0.8"/>
      </g>
     </g>
     <g id="text_17">
      <!-- 10 -->
      <g transform="translate(235.884408 395.758437) scale(0.1 -0.1)">
       <use xlink:href="#DejaVuSans-31"/>
       <use xlink:href="#DejaVuSans-30" x="63.623047"/>
      </g>
     </g>
    </g>
    <g id="xtick_11">
     <g id="line2d_21">
      <g>
       <use xlink:href="#m16ce687307" x="320.652969" y="381.16" style="stroke: #000000; stroke-width: 0.8"/>
      </g>
     </g>
     <g id="text_18">
      <!-- 15 -->
      <g transform="translate(314.290469 395.758437) scale(0.1 -0.1)">
       <use xlink:href="#DejaVuSans-31"/>
       <use xlink:href="#DejaVuSans-35" x="63.623047"/>
      </g>
     </g>
    </g>
    <g id="xtick_12">
     <g id="line2d_22">
      <g>
       <use xlink:href="#m16ce687307" x="399.059029" y="381.16" style="stroke: #000000; stroke-width: 0.8"/>
      </g>
     </g>
     <g id="text_19">
      <!-- 20 -->
      <g transform="translate(392.696529 395.758437) scale(0.1 -0.1)">
       <use xlink:href="#DejaVuSans-32"/>
       <use xlink:href="#DejaVuSans-30" x="63.623047"/>
      </g>
     </g>
    </g>
    <g id="xtick_13">
     <g id="line2d_23">
      <g>
       <use xlink:href="#m16ce687307" x="477.46509" y="381.16" style="stroke: #000000; stroke-width: 0.8"/>
      </g>
     </g>
     <g id="text_20">
      <!-- 25 -->
      <g transform="translate(471.10259 395.758437) scale(0.1 -0.1)">
       <use xlink:href="#DejaVuSans-32"/>
       <use xlink:href="#DejaVuSans-35" x="63.623047"/>
      </g>
     </g>
    </g>
    <g id="xtick_14">
     <g id="line2d_24">
      <g>
       <use xlink:href="#m16ce687307" x="555.871151" y="381.16" style="stroke: #000000; stroke-width: 0.8"/>
      </g>
     </g>
     <g id="text_21">
      <!-- 30 -->
      <g transform="translate(549.508651 395.758437) scale(0.1 -0.1)">
       <use xlink:href="#DejaVuSans-33"/>
       <use xlink:href="#DejaVuSans-30" x="63.623047"/>
      </g>
     </g>
    </g>
    <g id="text_22">
     <!-- Time bin = 1 min -->
     <g transform="translate(277.531875 409.436562) scale(0.1 -0.1)">
      <use xlink:href="#DejaVuSans-54"/>
      <use xlink:href="#DejaVuSans-69" x="57.958984"/>
      <use xlink:href="#DejaVuSans-6d" x="85.742188"/>
      <use xlink:href="#DejaVuSans-65" x="183.154297"/>
      <use xlink:href="#DejaVuSans-20" x="244.677734"/>
      <use xlink:href="#DejaVuSans-62" x="276.464844"/>
      <use xlink:href="#DejaVuSans-69" x="339.941406"/>
      <use xlink:href="#DejaVuSans-6e" x="367.724609"/>
      <use xlink:href="#DejaVuSans-20" x="431.103516"/>
      <use xlink:href="#DejaVuSans-3d" x="462.890625"/>
      <use xlink:href="#DejaVuSans-20" x="546.679688"/>
      <use xlink:href="#DejaVuSans-31" x="578.466797"/>
      <use xlink:href="#DejaVuSans-20" x="642.089844"/>
      <use xlink:href="#DejaVuSans-6d" x="673.876953"/>
      <use xlink:href="#DejaVuSans-69" x="771.289062"/>
      <use xlink:href="#DejaVuSans-6e" x="799.072266"/>
     </g>
    </g>
   </g>
   <g id="matplotlib.axis_4">
    <g id="ytick_5">
     <g id="line2d_25">
      <g>
       <use xlink:href="#m1e8f63058b" x="61.912969" y="375.441818" style="stroke: #000000; stroke-width: 0.8"/>
      </g>
     </g>
     <g id="text_23">
      <!-- 0.0 -->
      <g transform="translate(39.009844 379.241037) scale(0.1 -0.1)">
       <use xlink:href="#DejaVuSans-30"/>
       <use xlink:href="#DejaVuSans-2e" x="63.623047"/>
       <use xlink:href="#DejaVuSans-30" x="95.410156"/>
      </g>
     </g>
    </g>
    <g id="ytick_6">
     <g id="line2d_26">
      <g>
       <use xlink:href="#m1e8f63058b" x="61.912969" y="340.456612" style="stroke: #000000; stroke-width: 0.8"/>
      </g>
     </g>
     <g id="text_24">
      <!-- 0.2 -->
      <g transform="translate(39.009844 344.255831) scale(0.1 -0.1)">
       <use xlink:href="#DejaVuSans-30"/>
       <use xlink:href="#DejaVuSans-2e" x="63.623047"/>
       <use xlink:href="#DejaVuSans-32" x="95.410156"/>
      </g>
     </g>
    </g>
    <g id="ytick_7">
     <g id="line2d_27">
      <g>
       <use xlink:href="#m1e8f63058b" x="61.912969" y="305.471407" style="stroke: #000000; stroke-width: 0.8"/>
      </g>
     </g>
     <g id="text_25">
      <!-- 0.4 -->
      <g transform="translate(39.009844 309.270625) scale(0.1 -0.1)">
       <use xlink:href="#DejaVuSans-30"/>
       <use xlink:href="#DejaVuSans-2e" x="63.623047"/>
       <use xlink:href="#DejaVuSans-34" x="95.410156"/>
      </g>
     </g>
    </g>
    <g id="ytick_8">
     <g id="line2d_28">
      <g>
       <use xlink:href="#m1e8f63058b" x="61.912969" y="270.486201" style="stroke: #000000; stroke-width: 0.8"/>
      </g>
     </g>
     <g id="text_26">
      <!-- 0.6 -->
      <g transform="translate(39.009844 274.285419) scale(0.1 -0.1)">
       <use xlink:href="#DejaVuSans-30"/>
       <use xlink:href="#DejaVuSans-2e" x="63.623047"/>
       <use xlink:href="#DejaVuSans-36" x="95.410156"/>
      </g>
     </g>
    </g>
    <g id="text_27">
     <!-- Percent -->
     <g transform="translate(32.930156 337.067813) rotate(-90) scale(0.1 -0.1)">
      <use xlink:href="#DejaVuSans-50"/>
      <use xlink:href="#DejaVuSans-65" x="56.677734"/>
      <use xlink:href="#DejaVuSans-72" x="118.201172"/>
      <use xlink:href="#DejaVuSans-63" x="157.064453"/>
      <use xlink:href="#DejaVuSans-65" x="212.044922"/>
      <use xlink:href="#DejaVuSans-6e" x="273.568359"/>
      <use xlink:href="#DejaVuSans-74" x="336.947266"/>
     </g>
    </g>
   </g>
   <g id="line2d_29">
    <path d="M 85.434787 361.039575 
L 101.115999 352.147502 
L 116.797211 334.567436 
L 132.478423 304.246924 
L 148.159635 313.984473 
L 163.840848 306.870815 
L 179.52206 306.63758 
L 195.203272 312.264367 
L 210.884484 299.174069 
L 226.565696 303.722146 
L 242.246908 314.800795 
L 257.92812 305.937876 
L 273.609332 318.794939 
L 289.290545 321.564601 
L 304.971757 326.375067 
L 320.652969 326.754073 
L 336.334181 318.153544 
L 352.015393 305.646333 
L 367.696605 306.987432 
L 383.377817 322.031071 
L 399.059029 323.313861 
L 414.740241 328.386716 
L 430.421454 308.911618 
L 446.102666 330.573292 
L 461.783878 328.649105 
L 477.46509 306.200265 
L 493.146302 300.690095 
L 508.827514 291.360707 
L 524.508726 307.774599 
L 540.189938 319.727878 
L 555.871151 306.754197 
" clip-path="url(#p528110e4d0)" style="fill: none; stroke: #dc143c; stroke-width: 1.5; stroke-linecap: square"/>
   </g>
   <g id="line2d_30">
    <path d="M 85.434787 265.471654 
L 101.115999 301.506417 
L 116.797211 298.969989 
L 132.478423 311.856207 
L 148.159635 313.809547 
L 163.840848 315.325573 
L 179.52206 305.617178 
L 195.203272 312.322676 
L 210.884484 314.888258 
L 226.565696 316.375129 
L 242.246908 316.899907 
L 257.92812 310.894113 
L 273.609332 308.18276 
L 289.290545 314.975721 
L 304.971757 306.112802 
L 320.652969 315.587962 
L 336.334181 306.375191 
L 352.015393 312.001978 
L 367.696605 311.797898 
L 383.377817 309.698786 
L 399.059029 313.751239 
L 414.740241 319.87365 
L 430.421454 322.118534 
L 446.102666 323.459633 
L 461.783878 309.582168 
L 477.46509 320.223502 
L 493.146302 316.929061 
L 508.827514 316.462592 
L 524.508726 314.829949 
L 540.189938 320.456736 
L 555.871151 313.722084 
" clip-path="url(#p528110e4d0)" style="fill: none; stroke: #008b8b; stroke-width: 1.5; stroke-linecap: square"/>
   </g>
   <g id="line2d_31">
    <path d="M 85.434787 369.756722 
L 101.115999 365.179491 
L 116.797211 356.345727 
L 132.478423 356.549807 
L 148.159635 360.194099 
L 163.840848 355.733486 
L 179.52206 358.473993 
L 195.203272 347.978432 
L 210.884484 355.96672 
L 226.565696 353.517756 
L 242.246908 358.998771 
L 257.92812 352.847206 
L 273.609332 354.275769 
L 289.290545 351.272872 
L 304.971757 346.258326 
L 320.652969 347.861814 
L 336.334181 345.442004 
L 352.015393 352.380737 
L 367.696605 352.701434 
L 383.377817 353.925917 
L 399.059029 344.479911 
L 414.740241 337.278789 
L 430.421454 353.780145 
L 446.102666 350.864711 
L 461.783878 352.905515 
L 477.46509 365.704269 
L 493.146302 349.844309 
L 508.827514 351.068791 
L 524.508726 354.771392 
L 540.189938 361.156192 
L 555.871151 356.578961 
" clip-path="url(#p528110e4d0)" style="fill: none; stroke: #daa520; stroke-width: 1.5; stroke-linecap: square"/>
   </g>
   <g id="line2d_32">
    <path d="M 85.434787 358.444839 
L 101.115999 358.911308 
L 116.797211 349.931772 
L 132.478423 358.269913 
L 148.159635 345.529467 
L 163.840848 354.246614 
L 179.52206 361.506045 
L 195.203272 360.252408 
L 210.884484 360.194099 
L 226.565696 355.675177 
L 242.246908 337.745259 
L 257.92812 358.38653 
L 273.609332 351.243717 
L 289.290545 345.208769 
L 304.971757 350.718939 
L 320.652969 339.23213 
L 336.334181 361.214501 
L 352.015393 362.118286 
L 367.696605 363.167842 
L 383.377817 357.832598 
L 399.059029 348.765599 
L 414.740241 358.823845 
L 430.421454 359.115389 
L 446.102666 350.077544 
L 461.783878 345.121306 
L 477.46509 350.077544 
L 493.146302 362.001668 
L 508.827514 370.019111 
L 524.508726 369.027864 
L 540.189938 357.482746 
L 555.871151 358.619765 
" clip-path="url(#p528110e4d0)" style="fill: none; stroke: #4169e1; stroke-width: 1.5; stroke-linecap: square"/>
   </g>
   <g id="line2d_33">
    <path d="M 85.434787 347.570271 
L 101.115999 324.538344 
L 116.797211 362.468138 
L 132.478423 371.360211 
L 148.159635 368.765475 
L 163.840848 370.106574 
L 179.52206 370.048266 
L 195.203272 369.465179 
L 210.884484 372.059915 
L 226.565696 372.992854 
L 242.246908 373.83833 
L 257.92812 374.217336 
L 273.609332 370.019111 
L 289.290545 372.70131 
L 304.971757 372.817928 
L 320.652969 372.963699 
L 336.334181 371.564291 
L 352.015393 370.2815 
L 367.696605 367.628456 
L 383.377817 358.794691 
L 399.059029 371.972452 
L 414.740241 357.920061 
L 430.421454 358.619765 
L 446.102666 347.307882 
L 461.783878 366.024967 
L 477.46509 360.077482 
L 493.146302 372.905391 
L 508.827514 373.37186 
L 524.508726 355.879257 
L 540.189938 343.459509 
L 555.871151 366.608054 
" clip-path="url(#p528110e4d0)" style="fill: none; stroke: #663399; stroke-width: 1.5; stroke-linecap: square"/>
   </g>
   <g id="line2d_34">
    <path d="M 85.434787 375.441818 
L 101.115999 375.441818 
L 116.797211 375.441818 
L 132.478423 375.441818 
L 148.159635 375.441818 
L 163.840848 375.441818 
L 179.52206 375.441818 
L 195.203272 375.441818 
L 210.884484 375.441818 
L 226.565696 375.441818 
L 242.246908 375.441818 
L 257.92812 375.441818 
L 273.609332 375.208583 
L 289.290545 372.001606 
L 304.971757 375.441818 
L 320.652969 375.325201 
L 336.334181 374.975349 
L 352.015393 375.296046 
L 367.696605 375.441818 
L 383.377817 375.441818 
L 399.059029 375.441818 
L 414.740241 375.441818 
L 430.421454 375.179429 
L 446.102666 375.441818 
L 461.783878 375.441818 
L 477.46509 375.441818 
L 493.146302 375.354355 
L 508.827514 375.441818 
L 524.508726 375.441818 
L 540.189938 375.441818 
L 555.871151 375.441818 
" clip-path="url(#p528110e4d0)" style="fill: none; stroke: #ba55d3; stroke-width: 1.5; stroke-linecap: square"/>
   </g>
   <g id="patch_6">
    <path d="M 61.912969 381.16 
L 61.912969 255.36 
" style="fill: none; stroke: #000000; stroke-width: 0.8; stroke-linejoin: miter; stroke-linecap: square"/>
   </g>
   <g id="patch_7">
    <path d="M 61.912969 381.16 
L 579.392969 381.16 
" style="fill: none; stroke: #000000; stroke-width: 0.8; stroke-linejoin: miter; stroke-linecap: square"/>
   </g>
   <g id="text_28">
    <!-- 5Per Formalin -->
    <g transform="translate(279.446094 249.36) scale(0.12 -0.12)">
     <use xlink:href="#DejaVuSans-35"/>
     <use xlink:href="#DejaVuSans-50" x="63.623047"/>
     <use xlink:href="#DejaVuSans-65" x="120.300781"/>
     <use xlink:href="#DejaVuSans-72" x="181.824219"/>
     <use xlink:href="#DejaVuSans-20" x="222.9375"/>
     <use xlink:href="#DejaVuSans-46" x="254.724609"/>
     <use xlink:href="#DejaVuSans-6f" x="308.619141"/>
     <use xlink:href="#DejaVuSans-72" x="369.800781"/>
     <use xlink:href="#DejaVuSans-6d" x="409.164062"/>
     <use xlink:href="#DejaVuSans-61" x="506.576172"/>
     <use xlink:href="#DejaVuSans-6c" x="567.855469"/>
     <use xlink:href="#DejaVuSans-69" x="595.638672"/>
     <use xlink:href="#DejaVuSans-6e" x="623.421875"/>
    </g>
   </g>
  </g>
  <g id="axes_3">
   <g id="patch_8">
    <path d="M 61.912969 565 
L 579.392969 565 
L 579.392969 439.2 
L 61.912969 439.2 
z
" style="fill: #ffffff"/>
   </g>
   <g id="PolyCollection_13">
    <defs>
     <path id="meae03e802f" d="M 85.434787 -94.021567 
L 85.434787 -88.97797 
L 101.115999 -101.740279 
L 116.797211 -106.358525 
L 132.478423 -106.261282 
L 148.159635 -112.722315 
L 163.840848 -109.197028 
L 179.52206 -107.653287 
L 195.203272 -104.899182 
L 210.884484 -117.156885 
L 226.565696 -113.268611 
L 242.246908 -107.498968 
L 257.92812 -106.870801 
L 273.609332 -106.419398 
L 289.290545 -107.96138 
L 304.971757 -109.991177 
L 320.652969 -104.669142 
L 336.334181 -104.975038 
L 352.015393 -106.806074 
L 367.696605 -108.449734 
L 383.377817 -110.036401 
L 399.059029 -110.231949 
L 414.740241 -103.487938 
L 430.421454 -101.990955 
L 446.102666 -109.489092 
L 461.783878 -107.360462 
L 477.46509 -106.091296 
L 493.146302 -109.834645 
L 508.827514 -111.900309 
L 524.508726 -114.190047 
L 540.189938 -102.704059 
L 555.871151 -107.455498 
L 555.871151 -119.476236 
L 555.871151 -119.476236 
L 540.189938 -122.377899 
L 524.508726 -133.294763 
L 508.827514 -130.960059 
L 493.146302 -128.452664 
L 477.46509 -124.026165 
L 461.783878 -122.705616 
L 446.102666 -125.252812 
L 430.421454 -111.529899 
L 414.740241 -118.92212 
L 399.059029 -120.759019 
L 383.377817 -133.85162 
L 367.696605 -121.205283 
L 352.015393 -119.252155 
L 336.334181 -120.466599 
L 320.652969 -115.017634 
L 304.971757 -119.972137 
L 289.290545 -122.258847 
L 273.609332 -115.528217 
L 257.92812 -116.977973 
L 242.246908 -117.891286 
L 226.565696 -124.556254 
L 210.884484 -129.197506 
L 195.203272 -114.171002 
L 179.52206 -120.408867 
L 163.840848 -116.244609 
L 148.159635 -122.379267 
L 132.478423 -114.401765 
L 116.797211 -117.438866 
L 101.115999 -112.294401 
L 85.434787 -94.021567 
z
" style="stroke: #dc143c; stroke-opacity: 0.2"/>
    </defs>
    <g clip-path="url(#pd0eeaf1897)">
     <use xlink:href="#meae03e802f" x="0" y="639.76" style="fill: #dc143c; fill-opacity: 0.2; stroke: #dc143c; stroke-opacity: 0.2"/>
    </g>
   </g>
   <g id="PolyCollection_14">
    <defs>
     <path id="mbdca6ff303" d="M 85.434787 -194.841818 
L 85.434787 -187.317017 
L 101.115999 -165.727879 
L 116.797211 -153.314771 
L 132.478423 -147.241563 
L 148.159635 -145.390105 
L 163.840848 -137.20109 
L 179.52206 -136.847727 
L 195.203272 -138.188793 
L 210.884484 -134.120955 
L 226.565696 -133.649901 
L 242.246908 -136.400405 
L 257.92812 -121.33106 
L 273.609332 -127.447728 
L 289.290545 -135.814305 
L 304.971757 -123.280359 
L 320.652969 -127.925337 
L 336.334181 -128.665877 
L 352.015393 -126.449446 
L 367.696605 -135.205059 
L 383.377817 -113.730634 
L 399.059029 -129.941698 
L 414.740241 -121.385136 
L 430.421454 -124.798506 
L 446.102666 -126.010681 
L 461.783878 -129.187948 
L 477.46509 -112.522098 
L 493.146302 -113.19042 
L 508.827514 -116.805089 
L 524.508726 -122.513933 
L 540.189938 -124.772687 
L 555.871151 -118.048625 
L 555.871151 -133.289886 
L 555.871151 -133.289886 
L 540.189938 -138.229695 
L 524.508726 -131.136799 
L 508.827514 -128.521649 
L 493.146302 -124.120618 
L 477.46509 -123.709904 
L 461.783878 -139.260999 
L 446.102666 -133.857357 
L 430.421454 -137.227605 
L 414.740241 -131.340709 
L 399.059029 -137.274064 
L 383.377817 -123.169342 
L 367.696605 -143.828721 
L 352.015393 -135.422517 
L 336.334181 -136.083516 
L 320.652969 -135.436723 
L 304.971757 -130.575904 
L 289.290545 -147.227325 
L 273.609332 -138.894529 
L 257.92812 -131.189254 
L 242.246908 -144.380387 
L 226.565696 -145.897706 
L 210.884484 -144.553147 
L 195.203272 -145.880491 
L 179.52206 -147.940915 
L 163.840848 -146.868194 
L 148.159635 -158.923958 
L 132.478423 -160.926202 
L 116.797211 -161.173064 
L 101.115999 -172.858437 
L 85.434787 -194.841818 
z
" style="stroke: #008b8b; stroke-opacity: 0.2"/>
    </defs>
    <g clip-path="url(#pd0eeaf1897)">
     <use xlink:href="#mbdca6ff303" x="0" y="639.76" style="fill: #008b8b; fill-opacity: 0.2; stroke: #008b8b; stroke-opacity: 0.2"/>
    </g>
   </g>
   <g id="PolyCollection_15">
    <defs>
     <path id="mf663fdfa6e" d="M 85.434787 -115.229596 
L 85.434787 -108.721943 
L 101.115999 -107.036279 
L 116.797211 -113.691662 
L 132.478423 -118.961812 
L 148.159635 -113.331807 
L 163.840848 -108.33965 
L 179.52206 -123.755033 
L 195.203272 -119.809526 
L 210.884484 -112.39237 
L 226.565696 -117.772995 
L 242.246908 -119.34441 
L 257.92812 -122.471953 
L 273.609332 -116.114892 
L 289.290545 -115.101376 
L 304.971757 -120.651307 
L 320.652969 -123.732679 
L 336.334181 -128.204927 
L 352.015393 -124.514008 
L 367.696605 -122.124545 
L 383.377817 -114.488268 
L 399.059029 -121.434749 
L 414.740241 -126.926232 
L 430.421454 -128.136193 
L 446.102666 -122.880278 
L 461.783878 -120.155705 
L 477.46509 -118.372909 
L 493.146302 -119.902507 
L 508.827514 -119.030701 
L 524.508726 -118.822289 
L 540.189938 -123.615694 
L 555.871151 -128.383482 
L 555.871151 -144.638524 
L 555.871151 -144.638524 
L 540.189938 -143.497302 
L 524.508726 -136.986516 
L 508.827514 -131.485688 
L 493.146302 -132.206745 
L 477.46509 -131.115826 
L 461.783878 -133.238114 
L 446.102666 -141.714967 
L 430.421454 -143.704011 
L 414.740241 -142.601751 
L 399.059029 -132.781193 
L 383.377817 -132.020271 
L 367.696605 -134.095322 
L 352.015393 -138.591139 
L 336.334181 -144.611549 
L 320.652969 -137.830988 
L 304.971757 -138.497373 
L 289.290545 -126.320277 
L 273.609332 -131.935128 
L 257.92812 -135.649073 
L 242.246908 -133.586965 
L 226.565696 -129.865963 
L 210.884484 -122.349534 
L 195.203272 -133.430145 
L 179.52206 -136.626832 
L 163.840848 -120.184948 
L 148.159635 -124.749972 
L 132.478423 -131.451811 
L 116.797211 -122.951401 
L 101.115999 -113.729533 
L 85.434787 -115.229596 
z
" style="stroke: #daa520; stroke-opacity: 0.2"/>
    </defs>
    <g clip-path="url(#pd0eeaf1897)">
     <use xlink:href="#mf663fdfa6e" x="0" y="639.76" style="fill: #daa520; fill-opacity: 0.2; stroke: #daa520; stroke-opacity: 0.2"/>
    </g>
   </g>
   <g id="PolyCollection_16">
    <defs>
     <path id="mdec2a3fb17" d="M 85.434787 -81.893766 
L 85.434787 -81.117905 
L 101.115999 -86.582087 
L 116.797211 -85.703842 
L 132.478423 -83.831193 
L 148.159635 -85.626524 
L 163.840848 -99.288728 
L 179.52206 -86.149462 
L 195.203272 -94.199417 
L 210.884484 -91.815105 
L 226.565696 -88.226953 
L 242.246908 -90.071205 
L 257.92812 -102.27835 
L 273.609332 -97.65316 
L 289.290545 -90.339359 
L 304.971757 -95.368038 
L 320.652969 -96.628197 
L 336.334181 -91.754962 
L 352.015393 -95.22529 
L 367.696605 -89.075296 
L 383.377817 -100.376016 
L 399.059029 -93.06467 
L 414.740241 -95.410121 
L 430.421454 -94.502022 
L 446.102666 -88.453602 
L 461.783878 -93.836431 
L 477.46509 -106.24565 
L 493.146302 -104.166187 
L 508.827514 -98.574218 
L 524.508726 -93.481504 
L 540.189938 -94.254708 
L 555.871151 -94.743426 
L 555.871151 -106.085903 
L 555.871151 -106.085903 
L 540.189938 -102.258475 
L 524.508726 -100.565311 
L 508.827514 -114.84387 
L 493.146302 -120.042265 
L 477.46509 -128.547636 
L 461.783878 -105.245887 
L 446.102666 -95.368058 
L 430.421454 -110.129626 
L 414.740241 -110.865774 
L 399.059029 -106.325944 
L 383.377817 -120.081501 
L 367.696605 -95.722635 
L 352.015393 -104.781917 
L 336.334181 -97.359115 
L 320.652969 -106.25644 
L 304.971757 -108.647018 
L 289.290545 -98.312273 
L 273.609332 -107.389549 
L 257.92812 -115.096205 
L 242.246908 -98.734576 
L 226.565696 -92.922807 
L 210.884484 -100.536081 
L 195.203272 -101.543026 
L 179.52206 -92.73946 
L 163.840848 -114.437656 
L 148.159635 -88.997635 
L 132.478423 -88.943189 
L 116.797211 -91.489451 
L 101.115999 -91.998539 
L 85.434787 -81.893766 
z
" style="stroke: #4169e1; stroke-opacity: 0.2"/>
    </defs>
    <g clip-path="url(#pd0eeaf1897)">
     <use xlink:href="#mdec2a3fb17" x="0" y="639.76" style="fill: #4169e1; fill-opacity: 0.2; stroke: #4169e1; stroke-opacity: 0.2"/>
    </g>
   </g>
   <g id="PolyCollection_17">
    <defs>
     <path id="mfe44ed0c4b" d="M 85.434787 -80.478182 
L 85.434787 -80.478182 
L 101.115999 -80.482137 
L 116.797211 -80.478182 
L 132.478423 -80.478182 
L 148.159635 -80.478182 
L 163.840848 -80.487411 
L 179.52206 -80.478182 
L 195.203272 -80.478182 
L 210.884484 -80.478182 
L 226.565696 -80.631116 
L 242.246908 -80.582335 
L 257.92812 -80.478182 
L 273.609332 -81.762434 
L 289.290545 -81.064783 
L 304.971757 -80.604748 
L 320.652969 -80.596837 
L 336.334181 -80.478182 
L 352.015393 -80.505868 
L 367.696605 -80.618912 
L 383.377817 -80.566514 
L 399.059029 -80.486092 
L 414.740241 -80.626728 
L 430.421454 -80.478182 
L 446.102666 -80.674623 
L 461.783878 -80.478182 
L 477.46509 -80.491366 
L 493.146302 -80.483455 
L 508.827514 -80.478182 
L 524.508726 -80.494003 
L 540.189938 -80.553724 
L 555.871151 -80.478182 
L 555.871151 -80.478182 
L 555.871151 -80.478182 
L 540.189938 -80.813702 
L 524.508726 -81.078953 
L 508.827514 -80.478182 
L 493.146302 -80.678439 
L 477.46509 -80.978825 
L 461.783878 -80.478182 
L 446.102666 -87.937761 
L 430.421454 -80.478182 
L 414.740241 -80.99761 
L 399.059029 -80.778568 
L 383.377817 -83.832489 
L 367.696605 -82.752438 
L 352.015393 -81.529532 
L 336.334181 -80.478182 
L 320.652969 -84.983968 
L 304.971757 -85.284354 
L 289.290545 -88.575255 
L 273.609332 -89.932911 
L 257.92812 -80.478182 
L 242.246908 -84.433261 
L 226.565696 -86.28564 
L 210.884484 -80.478182 
L 195.203272 -80.478182 
L 179.52206 -80.478182 
L 163.840848 -80.828632 
L 148.159635 -80.478182 
L 132.478423 -80.478182 
L 116.797211 -80.478182 
L 101.115999 -80.628375 
L 85.434787 -80.478182 
z
" style="stroke: #663399; stroke-opacity: 0.2"/>
    </defs>
    <g clip-path="url(#pd0eeaf1897)">
     <use xlink:href="#mfe44ed0c4b" x="0" y="639.76" style="fill: #663399; fill-opacity: 0.2; stroke: #663399; stroke-opacity: 0.2"/>
    </g>
   </g>
   <g id="PolyCollection_18">
    <defs>
     <path id="m9090bdea7e" d="M 85.434787 -80.478182 
L 85.434787 -80.478182 
L 101.115999 -80.478182 
L 116.797211 -80.478182 
L 132.478423 -80.480819 
L 148.159635 -80.478182 
L 163.840848 -80.478182 
L 179.52206 -80.478182 
L 195.203272 -80.478182 
L 210.884484 -80.478182 
L 226.565696 -80.478182 
L 242.246908 -80.482137 
L 257.92812 -80.484774 
L 273.609332 -80.478182 
L 289.290545 -80.480819 
L 304.971757 -80.483455 
L 320.652969 -80.478182 
L 336.334181 -80.478182 
L 352.015393 -80.478182 
L 367.696605 -80.478182 
L 383.377817 -80.501913 
L 399.059029 -80.478182 
L 414.740241 -80.491366 
L 430.421454 -80.480819 
L 446.102666 -80.515097 
L 461.783878 -80.507187 
L 477.46509 -80.632429 
L 493.146302 -80.478182 
L 508.827514 -80.478182 
L 524.508726 -80.572609 
L 540.189938 -80.478182 
L 555.871151 -80.478182 
L 555.871151 -80.478182 
L 555.871151 -80.478182 
L 540.189938 -80.478182 
L 524.508726 -80.897582 
L 508.827514 -80.478182 
L 493.146302 -80.478182 
L 477.46509 -81.300206 
L 461.783878 -81.579596 
L 446.102666 -81.879982 
L 430.421454 -80.57831 
L 414.740241 -80.978825 
L 399.059029 -80.478182 
L 383.377817 -81.379339 
L 367.696605 -80.478182 
L 352.015393 -80.478182 
L 336.334181 -80.478182 
L 320.652969 -80.478182 
L 304.971757 -80.678439 
L 289.290545 -80.57831 
L 273.609332 -80.478182 
L 257.92812 -80.728503 
L 242.246908 -80.628375 
L 226.565696 -80.478182 
L 210.884484 -80.478182 
L 195.203272 -80.478182 
L 179.52206 -80.478182 
L 163.840848 -80.478182 
L 148.159635 -80.478182 
L 132.478423 -80.57831 
L 116.797211 -80.478182 
L 101.115999 -80.478182 
L 85.434787 -80.478182 
z
" style="stroke: #ba55d3; stroke-opacity: 0.2"/>
    </defs>
    <g clip-path="url(#pd0eeaf1897)">
     <use xlink:href="#m9090bdea7e" x="0" y="639.76" style="fill: #ba55d3; fill-opacity: 0.2; stroke: #ba55d3; stroke-opacity: 0.2"/>
    </g>
   </g>
   <g id="matplotlib.axis_5">
    <g id="xtick_15">
     <g id="line2d_35">
      <g>
       <use xlink:href="#m16ce687307" x="85.434787" y="565" style="stroke: #000000; stroke-width: 0.8"/>
      </g>
     </g>
     <g id="text_29">
      <!-- 0 -->
      <g transform="translate(82.253537 579.598438) scale(0.1 -0.1)">
       <use xlink:href="#DejaVuSans-30"/>
      </g>
     </g>
    </g>
    <g id="xtick_16">
     <g id="line2d_36">
      <g>
       <use xlink:href="#m16ce687307" x="163.840848" y="565" style="stroke: #000000; stroke-width: 0.8"/>
      </g>
     </g>
     <g id="text_30">
      <!-- 5 -->
      <g transform="translate(160.659598 579.598438) scale(0.1 -0.1)">
       <use xlink:href="#DejaVuSans-35"/>
      </g>
     </g>
    </g>
    <g id="xtick_17">
     <g id="line2d_37">
      <g>
       <use xlink:href="#m16ce687307" x="242.246908" y="565" style="stroke: #000000; stroke-width: 0.8"/>
      </g>
     </g>
     <g id="text_31">
      <!-- 10 -->
      <g transform="translate(235.884408 579.598438) scale(0.1 -0.1)">
       <use xlink:href="#DejaVuSans-31"/>
       <use xlink:href="#DejaVuSans-30" x="63.623047"/>
      </g>
     </g>
    </g>
    <g id="xtick_18">
     <g id="line2d_38">
      <g>
       <use xlink:href="#m16ce687307" x="320.652969" y="565" style="stroke: #000000; stroke-width: 0.8"/>
      </g>
     </g>
     <g id="text_32">
      <!-- 15 -->
      <g transform="translate(314.290469 579.598438) scale(0.1 -0.1)">
       <use xlink:href="#DejaVuSans-31"/>
       <use xlink:href="#DejaVuSans-35" x="63.623047"/>
      </g>
     </g>
    </g>
    <g id="xtick_19">
     <g id="line2d_39">
      <g>
       <use xlink:href="#m16ce687307" x="399.059029" y="565" style="stroke: #000000; stroke-width: 0.8"/>
      </g>
     </g>
     <g id="text_33">
      <!-- 20 -->
      <g transform="translate(392.696529 579.598438) scale(0.1 -0.1)">
       <use xlink:href="#DejaVuSans-32"/>
       <use xlink:href="#DejaVuSans-30" x="63.623047"/>
      </g>
     </g>
    </g>
    <g id="xtick_20">
     <g id="line2d_40">
      <g>
       <use xlink:href="#m16ce687307" x="477.46509" y="565" style="stroke: #000000; stroke-width: 0.8"/>
      </g>
     </g>
     <g id="text_34">
      <!-- 25 -->
      <g transform="translate(471.10259 579.598438) scale(0.1 -0.1)">
       <use xlink:href="#DejaVuSans-32"/>
       <use xlink:href="#DejaVuSans-35" x="63.623047"/>
      </g>
     </g>
    </g>
    <g id="xtick_21">
     <g id="line2d_41">
      <g>
       <use xlink:href="#m16ce687307" x="555.871151" y="565" style="stroke: #000000; stroke-width: 0.8"/>
      </g>
     </g>
     <g id="text_35">
      <!-- 30 -->
      <g transform="translate(549.508651 579.598438) scale(0.1 -0.1)">
       <use xlink:href="#DejaVuSans-33"/>
       <use xlink:href="#DejaVuSans-30" x="63.623047"/>
      </g>
     </g>
    </g>
    <g id="text_36">
     <!-- Time bin = 1 min -->
     <g transform="translate(277.531875 593.276563) scale(0.1 -0.1)">
      <use xlink:href="#DejaVuSans-54"/>
      <use xlink:href="#DejaVuSans-69" x="57.958984"/>
      <use xlink:href="#DejaVuSans-6d" x="85.742188"/>
      <use xlink:href="#DejaVuSans-65" x="183.154297"/>
      <use xlink:href="#DejaVuSans-20" x="244.677734"/>
      <use xlink:href="#DejaVuSans-62" x="276.464844"/>
      <use xlink:href="#DejaVuSans-69" x="339.941406"/>
      <use xlink:href="#DejaVuSans-6e" x="367.724609"/>
      <use xlink:href="#DejaVuSans-20" x="431.103516"/>
      <use xlink:href="#DejaVuSans-3d" x="462.890625"/>
      <use xlink:href="#DejaVuSans-20" x="546.679688"/>
      <use xlink:href="#DejaVuSans-31" x="578.466797"/>
      <use xlink:href="#DejaVuSans-20" x="642.089844"/>
      <use xlink:href="#DejaVuSans-6d" x="673.876953"/>
      <use xlink:href="#DejaVuSans-69" x="771.289062"/>
      <use xlink:href="#DejaVuSans-6e" x="799.072266"/>
     </g>
    </g>
   </g>
   <g id="matplotlib.axis_6">
    <g id="ytick_9">
     <g id="line2d_42">
      <g>
       <use xlink:href="#m1e8f63058b" x="61.912969" y="559.281818" style="stroke: #000000; stroke-width: 0.8"/>
      </g>
     </g>
     <g id="text_37">
      <!-- 0.0 -->
      <g transform="translate(39.009844 563.081037) scale(0.1 -0.1)">
       <use xlink:href="#DejaVuSans-30"/>
       <use xlink:href="#DejaVuSans-2e" x="63.623047"/>
       <use xlink:href="#DejaVuSans-30" x="95.410156"/>
      </g>
     </g>
    </g>
    <g id="ytick_10">
     <g id="line2d_43">
      <g>
       <use xlink:href="#m1e8f63058b" x="61.912969" y="528.452205" style="stroke: #000000; stroke-width: 0.8"/>
      </g>
     </g>
     <g id="text_38">
      <!-- 0.2 -->
      <g transform="translate(39.009844 532.251424) scale(0.1 -0.1)">
       <use xlink:href="#DejaVuSans-30"/>
       <use xlink:href="#DejaVuSans-2e" x="63.623047"/>
       <use xlink:href="#DejaVuSans-32" x="95.410156"/>
      </g>
     </g>
    </g>
    <g id="ytick_11">
     <g id="line2d_44">
      <g>
       <use xlink:href="#m1e8f63058b" x="61.912969" y="497.622593" style="stroke: #000000; stroke-width: 0.8"/>
      </g>
     </g>
     <g id="text_39">
      <!-- 0.4 -->
      <g transform="translate(39.009844 501.421811) scale(0.1 -0.1)">
       <use xlink:href="#DejaVuSans-30"/>
       <use xlink:href="#DejaVuSans-2e" x="63.623047"/>
       <use xlink:href="#DejaVuSans-34" x="95.410156"/>
      </g>
     </g>
    </g>
    <g id="ytick_12">
     <g id="line2d_45">
      <g>
       <use xlink:href="#m1e8f63058b" x="61.912969" y="466.79298" style="stroke: #000000; stroke-width: 0.8"/>
      </g>
     </g>
     <g id="text_40">
      <!-- 0.6 -->
      <g transform="translate(39.009844 470.592199) scale(0.1 -0.1)">
       <use xlink:href="#DejaVuSans-30"/>
       <use xlink:href="#DejaVuSans-2e" x="63.623047"/>
       <use xlink:href="#DejaVuSans-36" x="95.410156"/>
      </g>
     </g>
    </g>
    <g id="text_41">
     <!-- Percent -->
     <g transform="translate(32.930156 520.907812) rotate(-90) scale(0.1 -0.1)">
      <use xlink:href="#DejaVuSans-50"/>
      <use xlink:href="#DejaVuSans-65" x="56.677734"/>
      <use xlink:href="#DejaVuSans-72" x="118.201172"/>
      <use xlink:href="#DejaVuSans-63" x="157.064453"/>
      <use xlink:href="#DejaVuSans-65" x="212.044922"/>
      <use xlink:href="#DejaVuSans-6e" x="273.568359"/>
      <use xlink:href="#DejaVuSans-74" x="336.947266"/>
     </g>
    </g>
   </g>
   <g id="line2d_46">
    <path d="M 85.434787 548.260232 
L 101.115999 532.74266 
L 116.797211 527.861305 
L 132.478423 529.428477 
L 148.159635 522.209209 
L 163.840848 527.039182 
L 179.52206 525.728923 
L 195.203272 530.224908 
L 210.884484 516.582805 
L 226.565696 520.847568 
L 242.246908 527.064873 
L 257.92812 527.835613 
L 273.609332 528.786193 
L 289.290545 524.649887 
L 304.971757 524.778343 
L 320.652969 529.916612 
L 336.334181 527.039182 
L 352.015393 526.730885 
L 367.696605 524.932491 
L 383.377817 517.815989 
L 399.059029 524.264516 
L 414.740241 528.554971 
L 430.421454 532.999573 
L 446.102666 522.389048 
L 461.783878 524.726961 
L 477.46509 524.701269 
L 493.146302 520.616346 
L 508.827514 518.329816 
L 524.508726 516.017595 
L 540.189938 527.219021 
L 555.871151 526.294133 
" clip-path="url(#pd0eeaf1897)" style="fill: none; stroke: #dc143c; stroke-width: 1.5; stroke-linecap: square"/>
   </g>
   <g id="line2d_47">
    <path d="M 85.434787 448.680582 
L 101.115999 470.466842 
L 116.797211 482.516082 
L 132.478423 485.676118 
L 148.159635 487.602969 
L 163.840848 497.725358 
L 179.52206 497.365679 
L 195.203272 497.725358 
L 210.884484 500.422949 
L 226.565696 499.986196 
L 242.246908 499.369604 
L 257.92812 513.499843 
L 273.609332 506.588872 
L 289.290545 498.239185 
L 304.971757 512.831868 
L 320.652969 508.07897 
L 336.334181 507.385303 
L 352.015393 508.824019 
L 367.696605 500.24311 
L 383.377817 521.310012 
L 399.059029 506.152119 
L 414.740241 513.397078 
L 430.421454 508.746945 
L 446.102666 509.825981 
L 461.783878 505.535527 
L 477.46509 521.643999 
L 493.146302 521.104481 
L 508.827514 517.096631 
L 524.508726 512.934634 
L 540.189938 508.258809 
L 555.871151 514.090744 
" clip-path="url(#pd0eeaf1897)" style="fill: none; stroke: #008b8b; stroke-width: 1.5; stroke-linecap: square"/>
   </g>
   <g id="line2d_48">
    <path d="M 85.434787 527.78423 
L 101.115999 529.377094 
L 116.797211 521.438469 
L 132.478423 514.553188 
L 148.159635 520.719111 
L 163.840848 525.497701 
L 179.52206 509.569068 
L 195.203272 513.140164 
L 210.884484 522.389048 
L 226.565696 515.940521 
L 242.246908 513.294312 
L 257.92812 510.699487 
L 273.609332 515.73499 
L 289.290545 519.049174 
L 304.971757 510.18566 
L 320.652969 508.978167 
L 336.334181 503.351762 
L 352.015393 508.207426 
L 367.696605 511.650066 
L 383.377817 516.50573 
L 399.059029 512.652029 
L 414.740241 504.996008 
L 430.421454 503.839898 
L 446.102666 507.462377 
L 461.783878 513.06309 
L 477.46509 515.015633 
L 493.146302 513.705374 
L 508.827514 514.501806 
L 524.508726 511.855597 
L 540.189938 506.203502 
L 555.871151 503.248997 
" clip-path="url(#pd0eeaf1897)" style="fill: none; stroke: #daa520; stroke-width: 1.5; stroke-linecap: square"/>
   </g>
   <g id="line2d_49">
    <path d="M 85.434787 558.254164 
L 101.115999 550.469687 
L 116.797211 551.163353 
L 132.478423 553.372809 
L 148.159635 552.447921 
L 163.840848 532.896808 
L 179.52206 550.315539 
L 195.203272 541.888778 
L 210.884484 543.584407 
L 226.565696 549.18512 
L 242.246908 545.35711 
L 257.92812 531.072723 
L 273.609332 537.238645 
L 289.290545 545.434184 
L 304.971757 537.752472 
L 320.652969 538.317682 
L 336.334181 545.202962 
L 352.015393 539.756397 
L 367.696605 547.361035 
L 383.377817 529.531242 
L 399.059029 540.064693 
L 414.740241 536.622053 
L 430.421454 537.444176 
L 446.102666 547.84917 
L 461.783878 540.218841 
L 477.46509 522.363357 
L 493.146302 527.655774 
L 508.827514 533.050956 
L 524.508726 542.736593 
L 540.189938 541.503408 
L 555.871151 539.345335 
" clip-path="url(#pd0eeaf1897)" style="fill: none; stroke: #4169e1; stroke-width: 1.5; stroke-linecap: square"/>
   </g>
   <g id="line2d_50">
    <path d="M 85.434787 559.281818 
L 101.115999 559.204744 
L 116.797211 559.281818 
L 132.478423 559.281818 
L 148.159635 559.281818 
L 163.840848 559.101979 
L 179.52206 559.281818 
L 195.203272 559.281818 
L 210.884484 559.281818 
L 226.565696 556.301622 
L 242.246908 557.252202 
L 257.92812 559.281818 
L 273.609332 553.912327 
L 289.290545 554.939981 
L 304.971757 556.815449 
L 320.652969 556.969597 
L 336.334181 559.281818 
L 352.015393 558.7423 
L 367.696605 558.074325 
L 383.377817 557.560498 
L 399.059029 559.12767 
L 414.740241 558.947831 
L 430.421454 559.281818 
L 446.102666 555.453808 
L 461.783878 559.281818 
L 477.46509 559.024905 
L 493.146302 559.179053 
L 508.827514 559.281818 
L 524.508726 558.973522 
L 540.189938 559.076287 
L 555.871151 559.281818 
" clip-path="url(#pd0eeaf1897)" style="fill: none; stroke: #663399; stroke-width: 1.5; stroke-linecap: square"/>
   </g>
   <g id="line2d_51">
    <path d="M 85.434787 559.281818 
L 101.115999 559.281818 
L 116.797211 559.281818 
L 132.478423 559.230435 
L 148.159635 559.281818 
L 163.840848 559.281818 
L 179.52206 559.281818 
L 195.203272 559.281818 
L 210.884484 559.281818 
L 226.565696 559.281818 
L 242.246908 559.204744 
L 257.92812 559.153361 
L 273.609332 559.281818 
L 289.290545 559.230435 
L 304.971757 559.179053 
L 320.652969 559.281818 
L 336.334181 559.281818 
L 352.015393 559.281818 
L 367.696605 559.281818 
L 383.377817 558.819374 
L 399.059029 559.281818 
L 414.740241 559.024905 
L 430.421454 559.230435 
L 446.102666 558.562461 
L 461.783878 558.716609 
L 477.46509 558.793683 
L 493.146302 559.281818 
L 508.827514 559.281818 
L 524.508726 559.024905 
L 540.189938 559.281818 
L 555.871151 559.281818 
" clip-path="url(#pd0eeaf1897)" style="fill: none; stroke: #ba55d3; stroke-width: 1.5; stroke-linecap: square"/>
   </g>
   <g id="patch_9">
    <path d="M 61.912969 565 
L 61.912969 439.2 
" style="fill: none; stroke: #000000; stroke-width: 0.8; stroke-linejoin: miter; stroke-linecap: square"/>
   </g>
   <g id="patch_10">
    <path d="M 61.912969 565 
L 579.392969 565 
" style="fill: none; stroke: #000000; stroke-width: 0.8; stroke-linejoin: miter; stroke-linecap: square"/>
   </g>
   <g id="text_42">
    <!-- Control -->
    <g transform="translate(298.967656 433.2) scale(0.12 -0.12)">
     <defs>
      <path id="DejaVuSans-43" d="M 4122 4306 
L 4122 3641 
Q 3803 3938 3442 4084 
Q 3081 4231 2675 4231 
Q 1875 4231 1450 3742 
Q 1025 3253 1025 2328 
Q 1025 1406 1450 917 
Q 1875 428 2675 428 
Q 3081 428 3442 575 
Q 3803 722 4122 1019 
L 4122 359 
Q 3791 134 3420 21 
Q 3050 -91 2638 -91 
Q 1578 -91 968 557 
Q 359 1206 359 2328 
Q 359 3453 968 4101 
Q 1578 4750 2638 4750 
Q 3056 4750 3426 4639 
Q 3797 4528 4122 4306 
z
" transform="scale(0.015625)"/>
     </defs>
     <use xlink:href="#DejaVuSans-43"/>
     <use xlink:href="#DejaVuSans-6f" x="69.824219"/>
     <use xlink:href="#DejaVuSans-6e" x="131.005859"/>
     <use xlink:href="#DejaVuSans-74" x="194.384766"/>
     <use xlink:href="#DejaVuSans-72" x="233.59375"/>
     <use xlink:href="#DejaVuSans-6f" x="272.457031"/>
     <use xlink:href="#DejaVuSans-6c" x="333.638672"/>
    </g>
   </g>
  </g>
  <g id="text_43">
   <!-- Group: Combined -->
   <g transform="translate(231.957969 19.3575) scale(0.16 -0.16)">
    <defs>
     <path id="DejaVuSans-47" d="M 3809 666 
L 3809 1919 
L 2778 1919 
L 2778 2438 
L 4434 2438 
L 4434 434 
Q 4069 175 3628 42 
Q 3188 -91 2688 -91 
Q 1594 -91 976 548 
Q 359 1188 359 2328 
Q 359 3472 976 4111 
Q 1594 4750 2688 4750 
Q 3144 4750 3555 4637 
Q 3966 4525 4313 4306 
L 4313 3634 
Q 3963 3931 3569 4081 
Q 3175 4231 2741 4231 
Q 1884 4231 1454 3753 
Q 1025 3275 1025 2328 
Q 1025 1384 1454 906 
Q 1884 428 2741 428 
Q 3075 428 3337 486 
Q 3600 544 3809 666 
z
" transform="scale(0.015625)"/>
     <path id="DejaVuSans-75" d="M 544 1381 
L 544 3500 
L 1119 3500 
L 1119 1403 
Q 1119 906 1312 657 
Q 1506 409 1894 409 
Q 2359 409 2629 706 
Q 2900 1003 2900 1516 
L 2900 3500 
L 3475 3500 
L 3475 0 
L 2900 0 
L 2900 538 
Q 2691 219 2414 64 
Q 2138 -91 1772 -91 
Q 1169 -91 856 284 
Q 544 659 544 1381 
z
M 1991 3584 
L 1991 3584 
z
" transform="scale(0.015625)"/>
     <path id="DejaVuSans-70" d="M 1159 525 
L 1159 -1331 
L 581 -1331 
L 581 3500 
L 1159 3500 
L 1159 2969 
Q 1341 3281 1617 3432 
Q 1894 3584 2278 3584 
Q 2916 3584 3314 3078 
Q 3713 2572 3713 1747 
Q 3713 922 3314 415 
Q 2916 -91 2278 -91 
Q 1894 -91 1617 61 
Q 1341 213 1159 525 
z
M 3116 1747 
Q 3116 2381 2855 2742 
Q 2594 3103 2138 3103 
Q 1681 3103 1420 2742 
Q 1159 2381 1159 1747 
Q 1159 1113 1420 752 
Q 1681 391 2138 391 
Q 2594 391 2855 752 
Q 3116 1113 3116 1747 
z
" transform="scale(0.015625)"/>
     <path id="DejaVuSans-3a" d="M 750 794 
L 1409 794 
L 1409 0 
L 750 0 
L 750 794 
z
M 750 3309 
L 1409 3309 
L 1409 2516 
L 750 2516 
L 750 3309 
z
" transform="scale(0.015625)"/>
     <path id="DejaVuSans-64" d="M 2906 2969 
L 2906 4863 
L 3481 4863 
L 3481 0 
L 2906 0 
L 2906 525 
Q 2725 213 2448 61 
Q 2172 -91 1784 -91 
Q 1150 -91 751 415 
Q 353 922 353 1747 
Q 353 2572 751 3078 
Q 1150 3584 1784 3584 
Q 2172 3584 2448 3432 
Q 2725 3281 2906 2969 
z
M 947 1747 
Q 947 1113 1208 752 
Q 1469 391 1925 391 
Q 2381 391 2643 752 
Q 2906 1113 2906 1747 
Q 2906 2381 2643 2742 
Q 2381 3103 1925 3103 
Q 1469 3103 1208 2742 
Q 947 2381 947 1747 
z
" transform="scale(0.015625)"/>
    </defs>
    <use xlink:href="#DejaVuSans-47"/>
    <use xlink:href="#DejaVuSans-72" x="77.490234"/>
    <use xlink:href="#DejaVuSans-6f" x="116.353516"/>
    <use xlink:href="#DejaVuSans-75" x="177.535156"/>
    <use xlink:href="#DejaVuSans-70" x="240.914062"/>
    <use xlink:href="#DejaVuSans-3a" x="304.390625"/>
    <use xlink:href="#DejaVuSans-20" x="338.082031"/>
    <use xlink:href="#DejaVuSans-43" x="369.869141"/>
    <use xlink:href="#DejaVuSans-6f" x="439.693359"/>
    <use xlink:href="#DejaVuSans-6d" x="500.875"/>
    <use xlink:href="#DejaVuSans-62" x="598.287109"/>
    <use xlink:href="#DejaVuSans-69" x="661.763672"/>
    <use xlink:href="#DejaVuSans-6e" x="689.546875"/>
    <use xlink:href="#DejaVuSans-65" x="752.925781"/>
    <use xlink:href="#DejaVuSans-64" x="814.449219"/>
   </g>
  </g>
  <g id="legend_1">
   <g id="patch_11">
    <path d="M 9.2 632.56 
L 595.185938 632.56 
Q 597.185938 632.56 597.185938 630.56 
L 597.185938 616.881875 
Q 597.185938 614.881875 595.185938 614.881875 
L 9.2 614.881875 
Q 7.2 614.881875 7.2 616.881875 
L 7.2 630.56 
Q 7.2 632.56 9.2 632.56 
z
" style="fill: #ffffff; opacity: 0.8; stroke: #cccccc; stroke-linejoin: miter"/>
   </g>
   <g id="line2d_52">
    <path d="M 11.2 622.980312 
L 21.2 622.980312 
L 31.2 622.980312 
" style="fill: none; stroke: #dc143c; stroke-width: 4; stroke-linecap: square"/>
   </g>
   <g id="text_44">
    <!-- still -->
    <g transform="translate(39.2 626.480312) scale(0.1 -0.1)">
     <defs>
      <path id="DejaVuSans-73" d="M 2834 3397 
L 2834 2853 
Q 2591 2978 2328 3040 
Q 2066 3103 1784 3103 
Q 1356 3103 1142 2972 
Q 928 2841 928 2578 
Q 928 2378 1081 2264 
Q 1234 2150 1697 2047 
L 1894 2003 
Q 2506 1872 2764 1633 
Q 3022 1394 3022 966 
Q 3022 478 2636 193 
Q 2250 -91 1575 -91 
Q 1294 -91 989 -36 
Q 684 19 347 128 
L 347 722 
Q 666 556 975 473 
Q 1284 391 1588 391 
Q 1994 391 2212 530 
Q 2431 669 2431 922 
Q 2431 1156 2273 1281 
Q 2116 1406 1581 1522 
L 1381 1569 
Q 847 1681 609 1914 
Q 372 2147 372 2553 
Q 372 3047 722 3315 
Q 1072 3584 1716 3584 
Q 2034 3584 2315 3537 
Q 2597 3491 2834 3397 
z
" transform="scale(0.015625)"/>
     </defs>
     <use xlink:href="#DejaVuSans-73"/>
     <use xlink:href="#DejaVuSans-74" x="52.099609"/>
     <use xlink:href="#DejaVuSans-69" x="91.308594"/>
     <use xlink:href="#DejaVuSans-6c" x="119.091797"/>
     <use xlink:href="#DejaVuSans-6c" x="146.875"/>
    </g>
   </g>
   <g id="line2d_53">
    <path d="M 76.664062 622.980312 
L 86.664062 622.980312 
L 96.664062 622.980312 
" style="fill: none; stroke: #008b8b; stroke-width: 4; stroke-linecap: square"/>
   </g>
   <g id="text_45">
    <!-- walking -->
    <g transform="translate(104.664062 626.480312) scale(0.1 -0.1)">
     <defs>
      <path id="DejaVuSans-77" d="M 269 3500 
L 844 3500 
L 1563 769 
L 2278 3500 
L 2956 3500 
L 3675 769 
L 4391 3500 
L 4966 3500 
L 4050 0 
L 3372 0 
L 2619 2869 
L 1863 0 
L 1184 0 
L 269 3500 
z
" transform="scale(0.015625)"/>
      <path id="DejaVuSans-6b" d="M 581 4863 
L 1159 4863 
L 1159 1991 
L 2875 3500 
L 3609 3500 
L 1753 1863 
L 3688 0 
L 2938 0 
L 1159 1709 
L 1159 0 
L 581 0 
L 581 4863 
z
" transform="scale(0.015625)"/>
      <path id="DejaVuSans-67" d="M 2906 1791 
Q 2906 2416 2648 2759 
Q 2391 3103 1925 3103 
Q 1463 3103 1205 2759 
Q 947 2416 947 1791 
Q 947 1169 1205 825 
Q 1463 481 1925 481 
Q 2391 481 2648 825 
Q 2906 1169 2906 1791 
z
M 3481 434 
Q 3481 -459 3084 -895 
Q 2688 -1331 1869 -1331 
Q 1566 -1331 1297 -1286 
Q 1028 -1241 775 -1147 
L 775 -588 
Q 1028 -725 1275 -790 
Q 1522 -856 1778 -856 
Q 2344 -856 2625 -561 
Q 2906 -266 2906 331 
L 2906 616 
Q 2728 306 2450 153 
Q 2172 0 1784 0 
Q 1141 0 747 490 
Q 353 981 353 1791 
Q 353 2603 747 3093 
Q 1141 3584 1784 3584 
Q 2172 3584 2450 3431 
Q 2728 3278 2906 2969 
L 2906 3500 
L 3481 3500 
L 3481 434 
z
" transform="scale(0.015625)"/>
     </defs>
     <use xlink:href="#DejaVuSans-77"/>
     <use xlink:href="#DejaVuSans-61" x="81.787109"/>
     <use xlink:href="#DejaVuSans-6c" x="143.066406"/>
     <use xlink:href="#DejaVuSans-6b" x="170.849609"/>
     <use xlink:href="#DejaVuSans-69" x="228.759766"/>
     <use xlink:href="#DejaVuSans-6e" x="256.542969"/>
     <use xlink:href="#DejaVuSans-67" x="319.921875"/>
    </g>
   </g>
   <g id="line2d_54">
    <path d="M 163.003125 622.980312 
L 173.003125 622.980312 
L 183.003125 622.980312 
" style="fill: none; stroke: #daa520; stroke-width: 4; stroke-linecap: square"/>
   </g>
   <g id="text_46">
    <!-- rearing -->
    <g transform="translate(191.003125 626.480312) scale(0.1 -0.1)">
     <use xlink:href="#DejaVuSans-72"/>
     <use xlink:href="#DejaVuSans-65" x="38.863281"/>
     <use xlink:href="#DejaVuSans-61" x="100.386719"/>
     <use xlink:href="#DejaVuSans-72" x="161.666016"/>
     <use xlink:href="#DejaVuSans-69" x="202.779297"/>
     <use xlink:href="#DejaVuSans-6e" x="230.5625"/>
     <use xlink:href="#DejaVuSans-67" x="293.941406"/>
    </g>
   </g>
   <g id="line2d_55">
    <path d="M 246.745313 622.980312 
L 256.745313 622.980312 
L 266.745313 622.980312 
" style="fill: none; stroke: #4169e1; stroke-width: 4; stroke-linecap: square"/>
   </g>
   <g id="text_47">
    <!-- grooming -->
    <g transform="translate(274.745313 626.480312) scale(0.1 -0.1)">
     <use xlink:href="#DejaVuSans-67"/>
     <use xlink:href="#DejaVuSans-72" x="63.476562"/>
     <use xlink:href="#DejaVuSans-6f" x="102.339844"/>
     <use xlink:href="#DejaVuSans-6f" x="163.521484"/>
     <use xlink:href="#DejaVuSans-6d" x="224.703125"/>
     <use xlink:href="#DejaVuSans-69" x="322.115234"/>
     <use xlink:href="#DejaVuSans-6e" x="349.898438"/>
     <use xlink:href="#DejaVuSans-67" x="413.277344"/>
    </g>
   </g>
   <g id="line2d_56">
    <path d="M 342.421875 622.980312 
L 352.421875 622.980312 
L 362.421875 622.980312 
" style="fill: none; stroke: #663399; stroke-width: 4; stroke-linecap: square"/>
   </g>
   <g id="text_48">
    <!-- licking hindpaw L -->
    <g transform="translate(370.421875 626.480312) scale(0.1 -0.1)">
     <defs>
      <path id="DejaVuSans-68" d="M 3513 2113 
L 3513 0 
L 2938 0 
L 2938 2094 
Q 2938 2591 2744 2837 
Q 2550 3084 2163 3084 
Q 1697 3084 1428 2787 
Q 1159 2491 1159 1978 
L 1159 0 
L 581 0 
L 581 4863 
L 1159 4863 
L 1159 2956 
Q 1366 3272 1645 3428 
Q 1925 3584 2291 3584 
Q 2894 3584 3203 3211 
Q 3513 2838 3513 2113 
z
" transform="scale(0.015625)"/>
      <path id="DejaVuSans-4c" d="M 628 4666 
L 1259 4666 
L 1259 531 
L 3531 531 
L 3531 0 
L 628 0 
L 628 4666 
z
" transform="scale(0.015625)"/>
     </defs>
     <use xlink:href="#DejaVuSans-6c"/>
     <use xlink:href="#DejaVuSans-69" x="27.783203"/>
     <use xlink:href="#DejaVuSans-63" x="55.566406"/>
     <use xlink:href="#DejaVuSans-6b" x="110.546875"/>
     <use xlink:href="#DejaVuSans-69" x="168.457031"/>
     <use xlink:href="#DejaVuSans-6e" x="196.240234"/>
     <use xlink:href="#DejaVuSans-67" x="259.619141"/>
     <use xlink:href="#DejaVuSans-20" x="323.095703"/>
     <use xlink:href="#DejaVuSans-68" x="354.882812"/>
     <use xlink:href="#DejaVuSans-69" x="418.261719"/>
     <use xlink:href="#DejaVuSans-6e" x="446.044922"/>
     <use xlink:href="#DejaVuSans-64" x="509.423828"/>
     <use xlink:href="#DejaVuSans-70" x="572.900391"/>
     <use xlink:href="#DejaVuSans-61" x="636.376953"/>
     <use xlink:href="#DejaVuSans-77" x="697.65625"/>
     <use xlink:href="#DejaVuSans-20" x="779.443359"/>
     <use xlink:href="#DejaVuSans-4c" x="811.230469"/>
    </g>
   </g>
   <g id="line2d_57">
    <path d="M 477.115625 622.980312 
L 487.115625 622.980312 
L 497.115625 622.980312 
" style="fill: none; stroke: #ba55d3; stroke-width: 4; stroke-linecap: square"/>
   </g>
   <g id="text_49">
    <!-- licking hindpaw R -->
    <g transform="translate(505.115625 626.480312) scale(0.1 -0.1)">
     <defs>
      <path id="DejaVuSans-52" d="M 2841 2188 
Q 3044 2119 3236 1894 
Q 3428 1669 3622 1275 
L 4263 0 
L 3584 0 
L 2988 1197 
Q 2756 1666 2539 1819 
Q 2322 1972 1947 1972 
L 1259 1972 
L 1259 0 
L 628 0 
L 628 4666 
L 2053 4666 
Q 2853 4666 3247 4331 
Q 3641 3997 3641 3322 
Q 3641 2881 3436 2590 
Q 3231 2300 2841 2188 
z
M 1259 4147 
L 1259 2491 
L 2053 2491 
Q 2509 2491 2742 2702 
Q 2975 2913 2975 3322 
Q 2975 3731 2742 3939 
Q 2509 4147 2053 4147 
L 1259 4147 
z
" transform="scale(0.015625)"/>
     </defs>
     <use xlink:href="#DejaVuSans-6c"/>
     <use xlink:href="#DejaVuSans-69" x="27.783203"/>
     <use xlink:href="#DejaVuSans-63" x="55.566406"/>
     <use xlink:href="#DejaVuSans-6b" x="110.546875"/>
     <use xlink:href="#DejaVuSans-69" x="168.457031"/>
     <use xlink:href="#DejaVuSans-6e" x="196.240234"/>
     <use xlink:href="#DejaVuSans-67" x="259.619141"/>
     <use xlink:href="#DejaVuSans-20" x="323.095703"/>
     <use xlink:href="#DejaVuSans-68" x="354.882812"/>
     <use xlink:href="#DejaVuSans-69" x="418.261719"/>
     <use xlink:href="#DejaVuSans-6e" x="446.044922"/>
     <use xlink:href="#DejaVuSans-64" x="509.423828"/>
     <use xlink:href="#DejaVuSans-70" x="572.900391"/>
     <use xlink:href="#DejaVuSans-61" x="636.376953"/>
     <use xlink:href="#DejaVuSans-77" x="697.65625"/>
     <use xlink:href="#DejaVuSans-20" x="779.443359"/>
     <use xlink:href="#DejaVuSans-52" x="811.230469"/>
    </g>
   </g>
  </g>
 </g>
 <defs>
  <clipPath id="pfb230f021d">
   <rect x="61.912969" y="71.52" width="517.48" height="125.8"/>
  </clipPath>
  <clipPath id="p528110e4d0">
   <rect x="61.912969" y="255.36" width="517.48" height="125.8"/>
  </clipPath>
  <clipPath id="pd0eeaf1897">
   <rect x="61.912969" y="439.2" width="517.48" height="125.8"/>
  </clipPath>
 </defs>
</svg>
