<?xml version="1.0" encoding="utf-8" standalone="no"?>
<!DOCTYPE svg PUBLIC "-//W3C//DTD SVG 1.1//EN"
  "http://www.w3.org/Graphics/SVG/1.1/DTD/svg11.dtd">
<svg xmlns:xlink="http://www.w3.org/1999/xlink" width="604.385938pt" height="639.76pt" viewBox="0 0 604.385938 639.76" xmlns="http://www.w3.org/2000/svg" version="1.1">
 <metadata>
  <rdf:RDF xmlns:dc="http://purl.org/dc/elements/1.1/" xmlns:cc="http://creativecommons.org/ns#" xmlns:rdf="http://www.w3.org/1999/02/22-rdf-syntax-ns#">
   <cc:Work>
    <dc:type rdf:resource="http://purl.org/dc/dcmitype/StillImage"/>
    <dc:date>2025-05-20T20:53:33.351424</dc:date>
    <dc:format>image/svg+xml</dc:format>
    <dc:creator>
     <cc:Agent>
      <dc:title>Matplotlib v3.7.2, https://matplotlib.org/</dc:title>
     </cc:Agent>
    </dc:creator>
   </cc:Work>
  </rdf:RDF>
 </metadata>
 <defs>
  <style type="text/css">*{stroke-linejoin: round; stroke-linecap: butt}</style>
 </defs>
 <g id="figure_1">
  <g id="patch_1">
   <path d="M 0 639.76 
L 604.385938 639.76 
L 604.385938 0 
L 0 0 
z
" style="fill: #ffffff"/>
  </g>
  <g id="axes_1">
   <g id="patch_2">
    <path d="M 61.912969 197.32 
L 579.392969 197.32 
L 579.392969 71.52 
L 61.912969 71.52 
z
" style="fill: #ffffff"/>
   </g>
   <g id="PolyCollection_1">
    <defs>
     <path id="mb8b320ab93" d="M 85.434787 -461.701567 
L 85.434787 -456.65797 
L 101.115999 -469.420279 
L 116.797211 -474.038525 
L 132.478423 -473.941282 
L 148.159635 -480.402315 
L 163.840848 -476.877028 
L 179.52206 -475.333287 
L 195.203272 -472.579182 
L 210.884484 -484.836885 
L 226.565696 -480.948611 
L 242.246908 -475.178968 
L 257.92812 -474.550801 
L 273.609332 -474.099398 
L 289.290545 -475.64138 
L 304.971757 -477.671177 
L 320.652969 -472.349142 
L 336.334181 -472.655038 
L 352.015393 -474.486074 
L 367.696605 -476.129734 
L 383.377817 -477.716401 
L 399.059029 -477.911949 
L 414.740241 -471.167938 
L 430.421454 -469.670955 
L 446.102666 -477.169092 
L 461.783878 -475.040462 
L 477.46509 -473.771296 
L 493.146302 -477.514645 
L 508.827514 -479.580309 
L 524.508726 -481.870047 
L 540.189938 -470.384059 
L 555.871151 -475.135498 
L 555.871151 -487.156236 
L 555.871151 -487.156236 
L 540.189938 -490.057899 
L 524.508726 -500.974763 
L 508.827514 -498.640059 
L 493.146302 -496.132664 
L 477.46509 -491.706165 
L 461.783878 -490.385616 
L 446.102666 -492.932812 
L 430.421454 -479.209899 
L 414.740241 -486.60212 
L 399.059029 -488.439019 
L 383.377817 -501.53162 
L 367.696605 -488.885283 
L 352.015393 -486.932155 
L 336.334181 -488.146599 
L 320.652969 -482.697634 
L 304.971757 -487.652137 
L 289.290545 -489.938847 
L 273.609332 -483.208217 
L 257.92812 -484.657973 
L 242.246908 -485.571286 
L 226.565696 -492.236254 
L 210.884484 -496.877506 
L 195.203272 -481.851002 
L 179.52206 -488.088867 
L 163.840848 -483.924609 
L 148.159635 -490.059267 
L 132.478423 -482.081765 
L 116.797211 -485.118866 
L 101.115999 -479.974401 
L 85.434787 -461.701567 
z
" style="stroke: #dc143c; stroke-opacity: 0.2"/>
    </defs>
    <g clip-path="url(#p558970ffe5)">
     <use xlink:href="#mb8b320ab93" x="0" y="639.76" style="fill: #dc143c; fill-opacity: 0.2; stroke: #dc143c; stroke-opacity: 0.2"/>
    </g>
   </g>
   <g id="PolyCollection_2">
    <defs>
     <path id="mcb52f3f6dd" d="M 85.434787 -562.521818 
L 85.434787 -554.997017 
L 101.115999 -533.407879 
L 116.797211 -520.994771 
L 132.478423 -514.921563 
L 148.159635 -513.070105 
L 163.840848 -504.88109 
L 179.52206 -504.527727 
L 195.203272 -505.868793 
L 210.884484 -501.800955 
L 226.565696 -501.329901 
L 242.246908 -504.080405 
L 257.92812 -489.01106 
L 273.609332 -495.127728 
L 289.290545 -503.494305 
L 304.971757 -490.960359 
L 320.652969 -495.605337 
L 336.334181 -496.345877 
L 352.015393 -494.129446 
L 367.696605 -502.885059 
L 383.377817 -481.410634 
L 399.059029 -497.621698 
L 414.740241 -489.065136 
L 430.421454 -492.478506 
L 446.102666 -493.690681 
L 461.783878 -496.867948 
L 477.46509 -480.202098 
L 493.146302 -480.87042 
L 508.827514 -484.485089 
L 524.508726 -490.193933 
L 540.189938 -492.452687 
L 555.871151 -485.728625 
L 555.871151 -500.969886 
L 555.871151 -500.969886 
L 540.189938 -505.909695 
L 524.508726 -498.816799 
L 508.827514 -496.201649 
L 493.146302 -491.800618 
L 477.46509 -491.389904 
L 461.783878 -506.940999 
L 446.102666 -501.537357 
L 430.421454 -504.907605 
L 414.740241 -499.020709 
L 399.059029 -504.954064 
L 383.377817 -490.849342 
L 367.696605 -511.508721 
L 352.015393 -503.102517 
L 336.334181 -503.763516 
L 320.652969 -503.116723 
L 304.971757 -498.255904 
L 289.290545 -514.907325 
L 273.609332 -506.574529 
L 257.92812 -498.869254 
L 242.246908 -512.060387 
L 226.565696 -513.577706 
L 210.884484 -512.233147 
L 195.203272 -513.560491 
L 179.52206 -515.620915 
L 163.840848 -514.548194 
L 148.159635 -526.603958 
L 132.478423 -528.606202 
L 116.797211 -528.853064 
L 101.115999 -540.538437 
L 85.434787 -562.521818 
z
" style="stroke: #008b8b; stroke-opacity: 0.2"/>
    </defs>
    <g clip-path="url(#p558970ffe5)">
     <use xlink:href="#mcb52f3f6dd" x="0" y="639.76" style="fill: #008b8b; fill-opacity: 0.2; stroke: #008b8b; stroke-opacity: 0.2"/>
    </g>
   </g>
   <g id="PolyCollection_3">
    <defs>
     <path id="m6c71386ed4" d="M 85.434787 -482.909596 
L 85.434787 -476.401943 
L 101.115999 -474.716279 
L 116.797211 -481.371662 
L 132.478423 -486.641812 
L 148.159635 -481.011807 
L 163.840848 -476.01965 
L 179.52206 -491.435033 
L 195.203272 -487.489526 
L 210.884484 -480.07237 
L 226.565696 -485.452995 
L 242.246908 -487.02441 
L 257.92812 -490.151953 
L 273.609332 -483.794892 
L 289.290545 -482.781376 
L 304.971757 -488.331307 
L 320.652969 -491.412679 
L 336.334181 -495.884927 
L 352.015393 -492.194008 
L 367.696605 -489.804545 
L 383.377817 -482.168268 
L 399.059029 -489.114749 
L 414.740241 -494.606232 
L 430.421454 -495.816193 
L 446.102666 -490.560278 
L 461.783878 -487.835705 
L 477.46509 -486.052909 
L 493.146302 -487.582507 
L 508.827514 -486.710701 
L 524.508726 -486.502289 
L 540.189938 -491.295694 
L 555.871151 -496.063482 
L 555.871151 -512.318524 
L 555.871151 -512.318524 
L 540.189938 -511.177302 
L 524.508726 -504.666516 
L 508.827514 -499.165688 
L 493.146302 -499.886745 
L 477.46509 -498.795826 
L 461.783878 -500.918114 
L 446.102666 -509.394967 
L 430.421454 -511.384011 
L 414.740241 -510.281751 
L 399.059029 -500.461193 
L 383.377817 -499.700271 
L 367.696605 -501.775322 
L 352.015393 -506.271139 
L 336.334181 -512.291549 
L 320.652969 -505.510988 
L 304.971757 -506.177373 
L 289.290545 -494.000277 
L 273.609332 -499.615128 
L 257.92812 -503.329073 
L 242.246908 -501.266965 
L 226.565696 -497.545963 
L 210.884484 -490.029534 
L 195.203272 -501.110145 
L 179.52206 -504.306832 
L 163.840848 -487.864948 
L 148.159635 -492.429972 
L 132.478423 -499.131811 
L 116.797211 -490.631401 
L 101.115999 -481.409533 
L 85.434787 -482.909596 
z
" style="stroke: #daa520; stroke-opacity: 0.2"/>
    </defs>
    <g clip-path="url(#p558970ffe5)">
     <use xlink:href="#m6c71386ed4" x="0" y="639.76" style="fill: #daa520; fill-opacity: 0.2; stroke: #daa520; stroke-opacity: 0.2"/>
    </g>
   </g>
   <g id="PolyCollection_4">
    <defs>
     <path id="mf70d1f4a33" d="M 85.434787 -449.573766 
L 85.434787 -448.797905 
L 101.115999 -454.262087 
L 116.797211 -453.383842 
L 132.478423 -451.511193 
L 148.159635 -453.306524 
L 163.840848 -466.968728 
L 179.52206 -453.829462 
L 195.203272 -461.879417 
L 210.884484 -459.495105 
L 226.565696 -455.906953 
L 242.246908 -457.751205 
L 257.92812 -469.95835 
L 273.609332 -465.33316 
L 289.290545 -458.019359 
L 304.971757 -463.048038 
L 320.652969 -464.308197 
L 336.334181 -459.434962 
L 352.015393 -462.90529 
L 367.696605 -456.755296 
L 383.377817 -468.056016 
L 399.059029 -460.74467 
L 414.740241 -463.090121 
L 430.421454 -462.182022 
L 446.102666 -456.133602 
L 461.783878 -461.516431 
L 477.46509 -473.92565 
L 493.146302 -471.846187 
L 508.827514 -466.254218 
L 524.508726 -461.161504 
L 540.189938 -461.934708 
L 555.871151 -462.423426 
L 555.871151 -473.765903 
L 555.871151 -473.765903 
L 540.189938 -469.938475 
L 524.508726 -468.245311 
L 508.827514 -482.52387 
L 493.146302 -487.722265 
L 477.46509 -496.227636 
L 461.783878 -472.925887 
L 446.102666 -463.048058 
L 430.421454 -477.809626 
L 414.740241 -478.545774 
L 399.059029 -474.005944 
L 383.377817 -487.761501 
L 367.696605 -463.402635 
L 352.015393 -472.461917 
L 336.334181 -465.039115 
L 320.652969 -473.93644 
L 304.971757 -476.327018 
L 289.290545 -465.992273 
L 273.609332 -475.069549 
L 257.92812 -482.776205 
L 242.246908 -466.414576 
L 226.565696 -460.602807 
L 210.884484 -468.216081 
L 195.203272 -469.223026 
L 179.52206 -460.41946 
L 163.840848 -482.117656 
L 148.159635 -456.677635 
L 132.478423 -456.623189 
L 116.797211 -459.169451 
L 101.115999 -459.678539 
L 85.434787 -449.573766 
z
" style="stroke: #4169e1; stroke-opacity: 0.2"/>
    </defs>
    <g clip-path="url(#p558970ffe5)">
     <use xlink:href="#mf70d1f4a33" x="0" y="639.76" style="fill: #4169e1; fill-opacity: 0.2; stroke: #4169e1; stroke-opacity: 0.2"/>
    </g>
   </g>
   <g id="PolyCollection_5">
    <defs>
     <path id="ma37534641e" d="M 85.434787 -448.158182 
L 85.434787 -448.158182 
L 101.115999 -448.162137 
L 116.797211 -448.158182 
L 132.478423 -448.158182 
L 148.159635 -448.158182 
L 163.840848 -448.167411 
L 179.52206 -448.158182 
L 195.203272 -448.158182 
L 210.884484 -448.158182 
L 226.565696 -448.311116 
L 242.246908 -448.262335 
L 257.92812 -448.158182 
L 273.609332 -449.442434 
L 289.290545 -448.744783 
L 304.971757 -448.284748 
L 320.652969 -448.276837 
L 336.334181 -448.158182 
L 352.015393 -448.185868 
L 367.696605 -448.298912 
L 383.377817 -448.246514 
L 399.059029 -448.166092 
L 414.740241 -448.306728 
L 430.421454 -448.158182 
L 446.102666 -448.354623 
L 461.783878 -448.158182 
L 477.46509 -448.171366 
L 493.146302 -448.163455 
L 508.827514 -448.158182 
L 524.508726 -448.174003 
L 540.189938 -448.233724 
L 555.871151 -448.158182 
L 555.871151 -448.158182 
L 555.871151 -448.158182 
L 540.189938 -448.493702 
L 524.508726 -448.758953 
L 508.827514 -448.158182 
L 493.146302 -448.358439 
L 477.46509 -448.658825 
L 461.783878 -448.158182 
L 446.102666 -455.617761 
L 430.421454 -448.158182 
L 414.740241 -448.67761 
L 399.059029 -448.458568 
L 383.377817 -451.512489 
L 367.696605 -450.432438 
L 352.015393 -449.209532 
L 336.334181 -448.158182 
L 320.652969 -452.663968 
L 304.971757 -452.964354 
L 289.290545 -456.255255 
L 273.609332 -457.612911 
L 257.92812 -448.158182 
L 242.246908 -452.113261 
L 226.565696 -453.96564 
L 210.884484 -448.158182 
L 195.203272 -448.158182 
L 179.52206 -448.158182 
L 163.840848 -448.508632 
L 148.159635 -448.158182 
L 132.478423 -448.158182 
L 116.797211 -448.158182 
L 101.115999 -448.308375 
L 85.434787 -448.158182 
z
" style="stroke: #663399; stroke-opacity: 0.2"/>
    </defs>
    <g clip-path="url(#p558970ffe5)">
     <use xlink:href="#ma37534641e" x="0" y="639.76" style="fill: #663399; fill-opacity: 0.2; stroke: #663399; stroke-opacity: 0.2"/>
    </g>
   </g>
   <g id="PolyCollection_6">
    <defs>
     <path id="m1b5b1b629c" d="M 85.434787 -448.158182 
L 85.434787 -448.158182 
L 101.115999 -448.158182 
L 116.797211 -448.158182 
L 132.478423 -448.160819 
L 148.159635 -448.158182 
L 163.840848 -448.158182 
L 179.52206 -448.158182 
L 195.203272 -448.158182 
L 210.884484 -448.158182 
L 226.565696 -448.158182 
L 242.246908 -448.162137 
L 257.92812 -448.164774 
L 273.609332 -448.158182 
L 289.290545 -448.160819 
L 304.971757 -448.163455 
L 320.652969 -448.158182 
L 336.334181 -448.158182 
L 352.015393 -448.158182 
L 367.696605 -448.158182 
L 383.377817 -448.181913 
L 399.059029 -448.158182 
L 414.740241 -448.171366 
L 430.421454 -448.160819 
L 446.102666 -448.195097 
L 461.783878 -448.187187 
L 477.46509 -448.312429 
L 493.146302 -448.158182 
L 508.827514 -448.158182 
L 524.508726 -448.252609 
L 540.189938 -448.158182 
L 555.871151 -448.158182 
L 555.871151 -448.158182 
L 555.871151 -448.158182 
L 540.189938 -448.158182 
L 524.508726 -448.577582 
L 508.827514 -448.158182 
L 493.146302 -448.158182 
L 477.46509 -448.980206 
L 461.783878 -449.259596 
L 446.102666 -449.559982 
L 430.421454 -448.25831 
L 414.740241 -448.658825 
L 399.059029 -448.158182 
L 383.377817 -449.059339 
L 367.696605 -448.158182 
L 352.015393 -448.158182 
L 336.334181 -448.158182 
L 320.652969 -448.158182 
L 304.971757 -448.358439 
L 289.290545 -448.25831 
L 273.609332 -448.158182 
L 257.92812 -448.408503 
L 242.246908 -448.308375 
L 226.565696 -448.158182 
L 210.884484 -448.158182 
L 195.203272 -448.158182 
L 179.52206 -448.158182 
L 163.840848 -448.158182 
L 148.159635 -448.158182 
L 132.478423 -448.25831 
L 116.797211 -448.158182 
L 101.115999 -448.158182 
L 85.434787 -448.158182 
z
" style="stroke: #ba55d3; stroke-opacity: 0.2"/>
    </defs>
    <g clip-path="url(#p558970ffe5)">
     <use xlink:href="#m1b5b1b629c" x="0" y="639.76" style="fill: #ba55d3; fill-opacity: 0.2; stroke: #ba55d3; stroke-opacity: 0.2"/>
    </g>
   </g>
   <g id="matplotlib.axis_1">
    <g id="xtick_1">
     <g id="line2d_1">
      <defs>
       <path id="m9284a7327d" d="M 0 0 
L 0 3.5 
" style="stroke: #000000; stroke-width: 0.8"/>
      </defs>
      <g>
       <use xlink:href="#m9284a7327d" x="85.434787" y="197.32" style="stroke: #000000; stroke-width: 0.8"/>
      </g>
     </g>
     <g id="text_1">
      <!-- 0 -->
      <g transform="translate(82.253537 211.918437) scale(0.1 -0.1)">
       <defs>
        <path id="DejaVuSans-30" d="M 2034 4250 
Q 1547 4250 1301 3770 
Q 1056 3291 1056 2328 
Q 1056 1369 1301 889 
Q 1547 409 2034 409 
Q 2525 409 2770 889 
Q 3016 1369 3016 2328 
Q 3016 3291 2770 3770 
Q 2525 4250 2034 4250 
z
M 2034 4750 
Q 2819 4750 3233 4129 
Q 3647 3509 3647 2328 
Q 3647 1150 3233 529 
Q 2819 -91 2034 -91 
Q 1250 -91 836 529 
Q 422 1150 422 2328 
Q 422 3509 836 4129 
Q 1250 4750 2034 4750 
z
" transform="scale(0.015625)"/>
       </defs>
       <use xlink:href="#DejaVuSans-30"/>
      </g>
     </g>
    </g>
    <g id="xtick_2">
     <g id="line2d_2">
      <g>
       <use xlink:href="#m9284a7327d" x="163.840848" y="197.32" style="stroke: #000000; stroke-width: 0.8"/>
      </g>
     </g>
     <g id="text_2">
      <!-- 5 -->
      <g transform="translate(160.659598 211.918437) scale(0.1 -0.1)">
       <defs>
        <path id="DejaVuSans-35" d="M 691 4666 
L 3169 4666 
L 3169 4134 
L 1269 4134 
L 1269 2991 
Q 1406 3038 1543 3061 
Q 1681 3084 1819 3084 
Q 2600 3084 3056 2656 
Q 3513 2228 3513 1497 
Q 3513 744 3044 326 
Q 2575 -91 1722 -91 
Q 1428 -91 1123 -41 
Q 819 9 494 109 
L 494 744 
Q 775 591 1075 516 
Q 1375 441 1709 441 
Q 2250 441 2565 725 
Q 2881 1009 2881 1497 
Q 2881 1984 2565 2268 
Q 2250 2553 1709 2553 
Q 1456 2553 1204 2497 
Q 953 2441 691 2322 
L 691 4666 
z
" transform="scale(0.015625)"/>
       </defs>
       <use xlink:href="#DejaVuSans-35"/>
      </g>
     </g>
    </g>
    <g id="xtick_3">
     <g id="line2d_3">
      <g>
       <use xlink:href="#m9284a7327d" x="242.246908" y="197.32" style="stroke: #000000; stroke-width: 0.8"/>
      </g>
     </g>
     <g id="text_3">
      <!-- 10 -->
      <g transform="translate(235.884408 211.918437) scale(0.1 -0.1)">
       <defs>
        <path id="DejaVuSans-31" d="M 794 531 
L 1825 531 
L 1825 4091 
L 703 3866 
L 703 4441 
L 1819 4666 
L 2450 4666 
L 2450 531 
L 3481 531 
L 3481 0 
L 794 0 
L 794 531 
z
" transform="scale(0.015625)"/>
       </defs>
       <use xlink:href="#DejaVuSans-31"/>
       <use xlink:href="#DejaVuSans-30" x="63.623047"/>
      </g>
     </g>
    </g>
    <g id="xtick_4">
     <g id="line2d_4">
      <g>
       <use xlink:href="#m9284a7327d" x="320.652969" y="197.32" style="stroke: #000000; stroke-width: 0.8"/>
      </g>
     </g>
     <g id="text_4">
      <!-- 15 -->
      <g transform="translate(314.290469 211.918437) scale(0.1 -0.1)">
       <use xlink:href="#DejaVuSans-31"/>
       <use xlink:href="#DejaVuSans-35" x="63.623047"/>
      </g>
     </g>
    </g>
    <g id="xtick_5">
     <g id="line2d_5">
      <g>
       <use xlink:href="#m9284a7327d" x="399.059029" y="197.32" style="stroke: #000000; stroke-width: 0.8"/>
      </g>
     </g>
     <g id="text_5">
      <!-- 20 -->
      <g transform="translate(392.696529 211.918437) scale(0.1 -0.1)">
       <defs>
        <path id="DejaVuSans-32" d="M 1228 531 
L 3431 531 
L 3431 0 
L 469 0 
L 469 531 
Q 828 903 1448 1529 
Q 2069 2156 2228 2338 
Q 2531 2678 2651 2914 
Q 2772 3150 2772 3378 
Q 2772 3750 2511 3984 
Q 2250 4219 1831 4219 
Q 1534 4219 1204 4116 
Q 875 4013 500 3803 
L 500 4441 
Q 881 4594 1212 4672 
Q 1544 4750 1819 4750 
Q 2544 4750 2975 4387 
Q 3406 4025 3406 3419 
Q 3406 3131 3298 2873 
Q 3191 2616 2906 2266 
Q 2828 2175 2409 1742 
Q 1991 1309 1228 531 
z
" transform="scale(0.015625)"/>
       </defs>
       <use xlink:href="#DejaVuSans-32"/>
       <use xlink:href="#DejaVuSans-30" x="63.623047"/>
      </g>
     </g>
    </g>
    <g id="xtick_6">
     <g id="line2d_6">
      <g>
       <use xlink:href="#m9284a7327d" x="477.46509" y="197.32" style="stroke: #000000; stroke-width: 0.8"/>
      </g>
     </g>
     <g id="text_6">
      <!-- 25 -->
      <g transform="translate(471.10259 211.918437) scale(0.1 -0.1)">
       <use xlink:href="#DejaVuSans-32"/>
       <use xlink:href="#DejaVuSans-35" x="63.623047"/>
      </g>
     </g>
    </g>
    <g id="xtick_7">
     <g id="line2d_7">
      <g>
       <use xlink:href="#m9284a7327d" x="555.871151" y="197.32" style="stroke: #000000; stroke-width: 0.8"/>
      </g>
     </g>
     <g id="text_7">
      <!-- 30 -->
      <g transform="translate(549.508651 211.918437) scale(0.1 -0.1)">
       <defs>
        <path id="DejaVuSans-33" d="M 2597 2516 
Q 3050 2419 3304 2112 
Q 3559 1806 3559 1356 
Q 3559 666 3084 287 
Q 2609 -91 1734 -91 
Q 1441 -91 1130 -33 
Q 819 25 488 141 
L 488 750 
Q 750 597 1062 519 
Q 1375 441 1716 441 
Q 2309 441 2620 675 
Q 2931 909 2931 1356 
Q 2931 1769 2642 2001 
Q 2353 2234 1838 2234 
L 1294 2234 
L 1294 2753 
L 1863 2753 
Q 2328 2753 2575 2939 
Q 2822 3125 2822 3475 
Q 2822 3834 2567 4026 
Q 2313 4219 1838 4219 
Q 1578 4219 1281 4162 
Q 984 4106 628 3988 
L 628 4550 
Q 988 4650 1302 4700 
Q 1616 4750 1894 4750 
Q 2613 4750 3031 4423 
Q 3450 4097 3450 3541 
Q 3450 3153 3228 2886 
Q 3006 2619 2597 2516 
z
" transform="scale(0.015625)"/>
       </defs>
       <use xlink:href="#DejaVuSans-33"/>
       <use xlink:href="#DejaVuSans-30" x="63.623047"/>
      </g>
     </g>
    </g>
    <g id="text_8">
     <!-- Time bin = 1 min -->
     <g transform="translate(277.531875 225.596562) scale(0.1 -0.1)">
      <defs>
       <path id="DejaVuSans-54" d="M -19 4666 
L 3928 4666 
L 3928 4134 
L 2272 4134 
L 2272 0 
L 1638 0 
L 1638 4134 
L -19 4134 
L -19 4666 
z
" transform="scale(0.015625)"/>
       <path id="DejaVuSans-69" d="M 603 3500 
L 1178 3500 
L 1178 0 
L 603 0 
L 603 3500 
z
M 603 4863 
L 1178 4863 
L 1178 4134 
L 603 4134 
L 603 4863 
z
" transform="scale(0.015625)"/>
       <path id="DejaVuSans-6d" d="M 3328 2828 
Q 3544 3216 3844 3400 
Q 4144 3584 4550 3584 
Q 5097 3584 5394 3201 
Q 5691 2819 5691 2113 
L 5691 0 
L 5113 0 
L 5113 2094 
Q 5113 2597 4934 2840 
Q 4756 3084 4391 3084 
Q 3944 3084 3684 2787 
Q 3425 2491 3425 1978 
L 3425 0 
L 2847 0 
L 2847 2094 
Q 2847 2600 2669 2842 
Q 2491 3084 2119 3084 
Q 1678 3084 1418 2786 
Q 1159 2488 1159 1978 
L 1159 0 
L 581 0 
L 581 3500 
L 1159 3500 
L 1159 2956 
Q 1356 3278 1631 3431 
Q 1906 3584 2284 3584 
Q 2666 3584 2933 3390 
Q 3200 3197 3328 2828 
z
" transform="scale(0.015625)"/>
       <path id="DejaVuSans-65" d="M 3597 1894 
L 3597 1613 
L 953 1613 
Q 991 1019 1311 708 
Q 1631 397 2203 397 
Q 2534 397 2845 478 
Q 3156 559 3463 722 
L 3463 178 
Q 3153 47 2828 -22 
Q 2503 -91 2169 -91 
Q 1331 -91 842 396 
Q 353 884 353 1716 
Q 353 2575 817 3079 
Q 1281 3584 2069 3584 
Q 2775 3584 3186 3129 
Q 3597 2675 3597 1894 
z
M 3022 2063 
Q 3016 2534 2758 2815 
Q 2500 3097 2075 3097 
Q 1594 3097 1305 2825 
Q 1016 2553 972 2059 
L 3022 2063 
z
" transform="scale(0.015625)"/>
       <path id="DejaVuSans-20" transform="scale(0.015625)"/>
       <path id="DejaVuSans-62" d="M 3116 1747 
Q 3116 2381 2855 2742 
Q 2594 3103 2138 3103 
Q 1681 3103 1420 2742 
Q 1159 2381 1159 1747 
Q 1159 1113 1420 752 
Q 1681 391 2138 391 
Q 2594 391 2855 752 
Q 3116 1113 3116 1747 
z
M 1159 2969 
Q 1341 3281 1617 3432 
Q 1894 3584 2278 3584 
Q 2916 3584 3314 3078 
Q 3713 2572 3713 1747 
Q 3713 922 3314 415 
Q 2916 -91 2278 -91 
Q 1894 -91 1617 61 
Q 1341 213 1159 525 
L 1159 0 
L 581 0 
L 581 4863 
L 1159 4863 
L 1159 2969 
z
" transform="scale(0.015625)"/>
       <path id="DejaVuSans-6e" d="M 3513 2113 
L 3513 0 
L 2938 0 
L 2938 2094 
Q 2938 2591 2744 2837 
Q 2550 3084 2163 3084 
Q 1697 3084 1428 2787 
Q 1159 2491 1159 1978 
L 1159 0 
L 581 0 
L 581 3500 
L 1159 3500 
L 1159 2956 
Q 1366 3272 1645 3428 
Q 1925 3584 2291 3584 
Q 2894 3584 3203 3211 
Q 3513 2838 3513 2113 
z
" transform="scale(0.015625)"/>
       <path id="DejaVuSans-3d" d="M 678 2906 
L 4684 2906 
L 4684 2381 
L 678 2381 
L 678 2906 
z
M 678 1631 
L 4684 1631 
L 4684 1100 
L 678 1100 
L 678 1631 
z
" transform="scale(0.015625)"/>
      </defs>
      <use xlink:href="#DejaVuSans-54"/>
      <use xlink:href="#DejaVuSans-69" x="57.958984"/>
      <use xlink:href="#DejaVuSans-6d" x="85.742188"/>
      <use xlink:href="#DejaVuSans-65" x="183.154297"/>
      <use xlink:href="#DejaVuSans-20" x="244.677734"/>
      <use xlink:href="#DejaVuSans-62" x="276.464844"/>
      <use xlink:href="#DejaVuSans-69" x="339.941406"/>
      <use xlink:href="#DejaVuSans-6e" x="367.724609"/>
      <use xlink:href="#DejaVuSans-20" x="431.103516"/>
      <use xlink:href="#DejaVuSans-3d" x="462.890625"/>
      <use xlink:href="#DejaVuSans-20" x="546.679688"/>
      <use xlink:href="#DejaVuSans-31" x="578.466797"/>
      <use xlink:href="#DejaVuSans-20" x="642.089844"/>
      <use xlink:href="#DejaVuSans-6d" x="673.876953"/>
      <use xlink:href="#DejaVuSans-69" x="771.289062"/>
      <use xlink:href="#DejaVuSans-6e" x="799.072266"/>
     </g>
    </g>
   </g>
   <g id="matplotlib.axis_2">
    <g id="ytick_1">
     <g id="line2d_8">
      <defs>
       <path id="m5e09568672" d="M 0 0 
L -3.5 0 
" style="stroke: #000000; stroke-width: 0.8"/>
      </defs>
      <g>
       <use xlink:href="#m5e09568672" x="61.912969" y="191.601818" style="stroke: #000000; stroke-width: 0.8"/>
      </g>
     </g>
     <g id="text_9">
      <!-- 0.0 -->
      <g transform="translate(39.009844 195.401037) scale(0.1 -0.1)">
       <defs>
        <path id="DejaVuSans-2e" d="M 684 794 
L 1344 794 
L 1344 0 
L 684 0 
L 684 794 
z
" transform="scale(0.015625)"/>
       </defs>
       <use xlink:href="#DejaVuSans-30"/>
       <use xlink:href="#DejaVuSans-2e" x="63.623047"/>
       <use xlink:href="#DejaVuSans-30" x="95.410156"/>
      </g>
     </g>
    </g>
    <g id="ytick_2">
     <g id="line2d_9">
      <g>
       <use xlink:href="#m5e09568672" x="61.912969" y="160.772205" style="stroke: #000000; stroke-width: 0.8"/>
      </g>
     </g>
     <g id="text_10">
      <!-- 0.2 -->
      <g transform="translate(39.009844 164.571424) scale(0.1 -0.1)">
       <use xlink:href="#DejaVuSans-30"/>
       <use xlink:href="#DejaVuSans-2e" x="63.623047"/>
       <use xlink:href="#DejaVuSans-32" x="95.410156"/>
      </g>
     </g>
    </g>
    <g id="ytick_3">
     <g id="line2d_10">
      <g>
       <use xlink:href="#m5e09568672" x="61.912969" y="129.942593" style="stroke: #000000; stroke-width: 0.8"/>
      </g>
     </g>
     <g id="text_11">
      <!-- 0.4 -->
      <g transform="translate(39.009844 133.741811) scale(0.1 -0.1)">
       <defs>
        <path id="DejaVuSans-34" d="M 2419 4116 
L 825 1625 
L 2419 1625 
L 2419 4116 
z
M 2253 4666 
L 3047 4666 
L 3047 1625 
L 3713 1625 
L 3713 1100 
L 3047 1100 
L 3047 0 
L 2419 0 
L 2419 1100 
L 313 1100 
L 313 1709 
L 2253 4666 
z
" transform="scale(0.015625)"/>
       </defs>
       <use xlink:href="#DejaVuSans-30"/>
       <use xlink:href="#DejaVuSans-2e" x="63.623047"/>
       <use xlink:href="#DejaVuSans-34" x="95.410156"/>
      </g>
     </g>
    </g>
    <g id="ytick_4">
     <g id="line2d_11">
      <g>
       <use xlink:href="#m5e09568672" x="61.912969" y="99.11298" style="stroke: #000000; stroke-width: 0.8"/>
      </g>
     </g>
     <g id="text_12">
      <!-- 0.6 -->
      <g transform="translate(39.009844 102.912199) scale(0.1 -0.1)">
       <defs>
        <path id="DejaVuSans-36" d="M 2113 2584 
Q 1688 2584 1439 2293 
Q 1191 2003 1191 1497 
Q 1191 994 1439 701 
Q 1688 409 2113 409 
Q 2538 409 2786 701 
Q 3034 994 3034 1497 
Q 3034 2003 2786 2293 
Q 2538 2584 2113 2584 
z
M 3366 4563 
L 3366 3988 
Q 3128 4100 2886 4159 
Q 2644 4219 2406 4219 
Q 1781 4219 1451 3797 
Q 1122 3375 1075 2522 
Q 1259 2794 1537 2939 
Q 1816 3084 2150 3084 
Q 2853 3084 3261 2657 
Q 3669 2231 3669 1497 
Q 3669 778 3244 343 
Q 2819 -91 2113 -91 
Q 1303 -91 875 529 
Q 447 1150 447 2328 
Q 447 3434 972 4092 
Q 1497 4750 2381 4750 
Q 2619 4750 2861 4703 
Q 3103 4656 3366 4563 
z
" transform="scale(0.015625)"/>
       </defs>
       <use xlink:href="#DejaVuSans-30"/>
       <use xlink:href="#DejaVuSans-2e" x="63.623047"/>
       <use xlink:href="#DejaVuSans-36" x="95.410156"/>
      </g>
     </g>
    </g>
    <g id="text_13">
     <!-- Percent -->
     <g transform="translate(32.930156 153.227812) rotate(-90) scale(0.1 -0.1)">
      <defs>
       <path id="DejaVuSans-50" d="M 1259 4147 
L 1259 2394 
L 2053 2394 
Q 2494 2394 2734 2622 
Q 2975 2850 2975 3272 
Q 2975 3691 2734 3919 
Q 2494 4147 2053 4147 
L 1259 4147 
z
M 628 4666 
L 2053 4666 
Q 2838 4666 3239 4311 
Q 3641 3956 3641 3272 
Q 3641 2581 3239 2228 
Q 2838 1875 2053 1875 
L 1259 1875 
L 1259 0 
L 628 0 
L 628 4666 
z
" transform="scale(0.015625)"/>
       <path id="DejaVuSans-72" d="M 2631 2963 
Q 2534 3019 2420 3045 
Q 2306 3072 2169 3072 
Q 1681 3072 1420 2755 
Q 1159 2438 1159 1844 
L 1159 0 
L 581 0 
L 581 3500 
L 1159 3500 
L 1159 2956 
Q 1341 3275 1631 3429 
Q 1922 3584 2338 3584 
Q 2397 3584 2469 3576 
Q 2541 3569 2628 3553 
L 2631 2963 
z
" transform="scale(0.015625)"/>
       <path id="DejaVuSans-63" d="M 3122 3366 
L 3122 2828 
Q 2878 2963 2633 3030 
Q 2388 3097 2138 3097 
Q 1578 3097 1268 2742 
Q 959 2388 959 1747 
Q 959 1106 1268 751 
Q 1578 397 2138 397 
Q 2388 397 2633 464 
Q 2878 531 3122 666 
L 3122 134 
Q 2881 22 2623 -34 
Q 2366 -91 2075 -91 
Q 1284 -91 818 406 
Q 353 903 353 1747 
Q 353 2603 823 3093 
Q 1294 3584 2113 3584 
Q 2378 3584 2631 3529 
Q 2884 3475 3122 3366 
z
" transform="scale(0.015625)"/>
       <path id="DejaVuSans-74" d="M 1172 4494 
L 1172 3500 
L 2356 3500 
L 2356 3053 
L 1172 3053 
L 1172 1153 
Q 1172 725 1289 603 
Q 1406 481 1766 481 
L 2356 481 
L 2356 0 
L 1766 0 
Q 1100 0 847 248 
Q 594 497 594 1153 
L 594 3053 
L 172 3053 
L 172 3500 
L 594 3500 
L 594 4494 
L 1172 4494 
z
" transform="scale(0.015625)"/>
      </defs>
      <use xlink:href="#DejaVuSans-50"/>
      <use xlink:href="#DejaVuSans-65" x="56.677734"/>
      <use xlink:href="#DejaVuSans-72" x="118.201172"/>
      <use xlink:href="#DejaVuSans-63" x="157.064453"/>
      <use xlink:href="#DejaVuSans-65" x="212.044922"/>
      <use xlink:href="#DejaVuSans-6e" x="273.568359"/>
      <use xlink:href="#DejaVuSans-74" x="336.947266"/>
     </g>
    </g>
   </g>
   <g id="line2d_12">
    <path d="M 85.434787 180.580232 
L 101.115999 165.06266 
L 116.797211 160.181305 
L 132.478423 161.748477 
L 148.159635 154.529209 
L 163.840848 159.359182 
L 179.52206 158.048923 
L 195.203272 162.544908 
L 210.884484 148.902805 
L 226.565696 153.167568 
L 242.246908 159.384873 
L 257.92812 160.155613 
L 273.609332 161.106193 
L 289.290545 156.969887 
L 304.971757 157.098343 
L 320.652969 162.236612 
L 336.334181 159.359182 
L 352.015393 159.050885 
L 367.696605 157.252491 
L 383.377817 150.135989 
L 399.059029 156.584516 
L 414.740241 160.874971 
L 430.421454 165.319573 
L 446.102666 154.709048 
L 461.783878 157.046961 
L 477.46509 157.021269 
L 493.146302 152.936346 
L 508.827514 150.649816 
L 524.508726 148.337595 
L 540.189938 159.539021 
L 555.871151 158.614133 
" clip-path="url(#p558970ffe5)" style="fill: none; stroke: #dc143c; stroke-width: 1.5; stroke-linecap: square"/>
   </g>
   <g id="line2d_13">
    <path d="M 85.434787 81.000582 
L 101.115999 102.786842 
L 116.797211 114.836082 
L 132.478423 117.996118 
L 148.159635 119.922969 
L 163.840848 130.045358 
L 179.52206 129.685679 
L 195.203272 130.045358 
L 210.884484 132.742949 
L 226.565696 132.306196 
L 242.246908 131.689604 
L 257.92812 145.819843 
L 273.609332 138.908872 
L 289.290545 130.559185 
L 304.971757 145.151868 
L 320.652969 140.39897 
L 336.334181 139.705303 
L 352.015393 141.144019 
L 367.696605 132.56311 
L 383.377817 153.630012 
L 399.059029 138.472119 
L 414.740241 145.717078 
L 430.421454 141.066945 
L 446.102666 142.145981 
L 461.783878 137.855527 
L 477.46509 153.963999 
L 493.146302 153.424481 
L 508.827514 149.416631 
L 524.508726 145.254634 
L 540.189938 140.578809 
L 555.871151 146.410744 
" clip-path="url(#p558970ffe5)" style="fill: none; stroke: #008b8b; stroke-width: 1.5; stroke-linecap: square"/>
   </g>
   <g id="line2d_14">
    <path d="M 85.434787 160.10423 
L 101.115999 161.697094 
L 116.797211 153.758469 
L 132.478423 146.873188 
L 148.159635 153.039111 
L 163.840848 157.817701 
L 179.52206 141.889068 
L 195.203272 145.460164 
L 210.884484 154.709048 
L 226.565696 148.260521 
L 242.246908 145.614312 
L 257.92812 143.019487 
L 273.609332 148.05499 
L 289.290545 151.369174 
L 304.971757 142.50566 
L 320.652969 141.298167 
L 336.334181 135.671762 
L 352.015393 140.527426 
L 367.696605 143.970066 
L 383.377817 148.82573 
L 399.059029 144.972029 
L 414.740241 137.316008 
L 430.421454 136.159898 
L 446.102666 139.782377 
L 461.783878 145.38309 
L 477.46509 147.335633 
L 493.146302 146.025374 
L 508.827514 146.821806 
L 524.508726 144.175597 
L 540.189938 138.523502 
L 555.871151 135.568997 
" clip-path="url(#p558970ffe5)" style="fill: none; stroke: #daa520; stroke-width: 1.5; stroke-linecap: square"/>
   </g>
   <g id="line2d_15">
    <path d="M 85.434787 190.574164 
L 101.115999 182.789687 
L 116.797211 183.483353 
L 132.478423 185.692809 
L 148.159635 184.767921 
L 163.840848 165.216808 
L 179.52206 182.635539 
L 195.203272 174.208778 
L 210.884484 175.904407 
L 226.565696 181.50512 
L 242.246908 177.67711 
L 257.92812 163.392723 
L 273.609332 169.558645 
L 289.290545 177.754184 
L 304.971757 170.072472 
L 320.652969 170.637682 
L 336.334181 177.522962 
L 352.015393 172.076397 
L 367.696605 179.681035 
L 383.377817 161.851242 
L 399.059029 172.384693 
L 414.740241 168.942053 
L 430.421454 169.764176 
L 446.102666 180.16917 
L 461.783878 172.538841 
L 477.46509 154.683357 
L 493.146302 159.975774 
L 508.827514 165.370956 
L 524.508726 175.056593 
L 540.189938 173.823408 
L 555.871151 171.665335 
" clip-path="url(#p558970ffe5)" style="fill: none; stroke: #4169e1; stroke-width: 1.5; stroke-linecap: square"/>
   </g>
   <g id="line2d_16">
    <path d="M 85.434787 191.601818 
L 101.115999 191.524744 
L 116.797211 191.601818 
L 132.478423 191.601818 
L 148.159635 191.601818 
L 163.840848 191.421979 
L 179.52206 191.601818 
L 195.203272 191.601818 
L 210.884484 191.601818 
L 226.565696 188.621622 
L 242.246908 189.572202 
L 257.92812 191.601818 
L 273.609332 186.232327 
L 289.290545 187.259981 
L 304.971757 189.135449 
L 320.652969 189.289597 
L 336.334181 191.601818 
L 352.015393 191.0623 
L 367.696605 190.394325 
L 383.377817 189.880498 
L 399.059029 191.44767 
L 414.740241 191.267831 
L 430.421454 191.601818 
L 446.102666 187.773808 
L 461.783878 191.601818 
L 477.46509 191.344905 
L 493.146302 191.499053 
L 508.827514 191.601818 
L 524.508726 191.293522 
L 540.189938 191.396287 
L 555.871151 191.601818 
" clip-path="url(#p558970ffe5)" style="fill: none; stroke: #663399; stroke-width: 1.5; stroke-linecap: square"/>
   </g>
   <g id="line2d_17">
    <path d="M 85.434787 191.601818 
L 101.115999 191.601818 
L 116.797211 191.601818 
L 132.478423 191.550435 
L 148.159635 191.601818 
L 163.840848 191.601818 
L 179.52206 191.601818 
L 195.203272 191.601818 
L 210.884484 191.601818 
L 226.565696 191.601818 
L 242.246908 191.524744 
L 257.92812 191.473361 
L 273.609332 191.601818 
L 289.290545 191.550435 
L 304.971757 191.499053 
L 320.652969 191.601818 
L 336.334181 191.601818 
L 352.015393 191.601818 
L 367.696605 191.601818 
L 383.377817 191.139374 
L 399.059029 191.601818 
L 414.740241 191.344905 
L 430.421454 191.550435 
L 446.102666 190.882461 
L 461.783878 191.036609 
L 477.46509 191.113683 
L 493.146302 191.601818 
L 508.827514 191.601818 
L 524.508726 191.344905 
L 540.189938 191.601818 
L 555.871151 191.601818 
" clip-path="url(#p558970ffe5)" style="fill: none; stroke: #ba55d3; stroke-width: 1.5; stroke-linecap: square"/>
   </g>
   <g id="patch_3">
    <path d="M 61.912969 197.32 
L 61.912969 71.52 
" style="fill: none; stroke: #000000; stroke-width: 0.8; stroke-linejoin: miter; stroke-linecap: square"/>
   </g>
   <g id="patch_4">
    <path d="M 61.912969 197.32 
L 579.392969 197.32 
" style="fill: none; stroke: #000000; stroke-width: 0.8; stroke-linejoin: miter; stroke-linecap: square"/>
   </g>
   <g id="text_14">
    <!-- Control -->
    <g transform="translate(298.967656 65.52) scale(0.12 -0.12)">
     <defs>
      <path id="DejaVuSans-43" d="M 4122 4306 
L 4122 3641 
Q 3803 3938 3442 4084 
Q 3081 4231 2675 4231 
Q 1875 4231 1450 3742 
Q 1025 3253 1025 2328 
Q 1025 1406 1450 917 
Q 1875 428 2675 428 
Q 3081 428 3442 575 
Q 3803 722 4122 1019 
L 4122 359 
Q 3791 134 3420 21 
Q 3050 -91 2638 -91 
Q 1578 -91 968 557 
Q 359 1206 359 2328 
Q 359 3453 968 4101 
Q 1578 4750 2638 4750 
Q 3056 4750 3426 4639 
Q 3797 4528 4122 4306 
z
" transform="scale(0.015625)"/>
      <path id="DejaVuSans-6f" d="M 1959 3097 
Q 1497 3097 1228 2736 
Q 959 2375 959 1747 
Q 959 1119 1226 758 
Q 1494 397 1959 397 
Q 2419 397 2687 759 
Q 2956 1122 2956 1747 
Q 2956 2369 2687 2733 
Q 2419 3097 1959 3097 
z
M 1959 3584 
Q 2709 3584 3137 3096 
Q 3566 2609 3566 1747 
Q 3566 888 3137 398 
Q 2709 -91 1959 -91 
Q 1206 -91 779 398 
Q 353 888 353 1747 
Q 353 2609 779 3096 
Q 1206 3584 1959 3584 
z
" transform="scale(0.015625)"/>
      <path id="DejaVuSans-6c" d="M 603 4863 
L 1178 4863 
L 1178 0 
L 603 0 
L 603 4863 
z
" transform="scale(0.015625)"/>
     </defs>
     <use xlink:href="#DejaVuSans-43"/>
     <use xlink:href="#DejaVuSans-6f" x="69.824219"/>
     <use xlink:href="#DejaVuSans-6e" x="131.005859"/>
     <use xlink:href="#DejaVuSans-74" x="194.384766"/>
     <use xlink:href="#DejaVuSans-72" x="233.59375"/>
     <use xlink:href="#DejaVuSans-6f" x="272.457031"/>
     <use xlink:href="#DejaVuSans-6c" x="333.638672"/>
    </g>
   </g>
  </g>
  <g id="axes_2">
   <g id="patch_5">
    <path d="M 61.912969 381.16 
L 579.392969 381.16 
L 579.392969 255.36 
L 61.912969 255.36 
z
" style="fill: #ffffff"/>
   </g>
   <g id="PolyCollection_7">
    <defs>
     <path id="m7c9aa3361d" d="M 85.434787 -281.173553 
L 85.434787 -277.389173 
L 101.115999 -289.45427 
L 116.797211 -301.579296 
L 132.478423 -315.21446 
L 148.159635 -314.521289 
L 163.840848 -306.654775 
L 179.52206 -303.072228 
L 195.203272 -316.269511 
L 210.884484 -312.606806 
L 226.565696 -305.599394 
L 242.246908 -306.448485 
L 257.92812 -308.555929 
L 273.609332 -312.143948 
L 289.290545 -301.466748 
L 304.971757 -301.715528 
L 320.652969 -306.707206 
L 336.334181 -304.531189 
L 352.015393 -309.30204 
L 367.696605 -311.103583 
L 383.377817 -305.794323 
L 399.059029 -311.307458 
L 414.740241 -307.034119 
L 430.421454 -303.05223 
L 446.102666 -298.53067 
L 461.783878 -305.125252 
L 477.46509 -293.175723 
L 493.146302 -307.634299 
L 508.827514 -312.700749 
L 524.508726 -305.383126 
L 540.189938 -292.173998 
L 555.871151 -303.300639 
L 555.871151 -320.52523 
L 555.871151 -320.52523 
L 540.189938 -313.222641 
L 524.508726 -321.824253 
L 508.827514 -325.496537 
L 493.146302 -328.195931 
L 477.46509 -310.135652 
L 461.783878 -322.758429 
L 446.102666 -309.12031 
L 430.421454 -314.34877 
L 414.740241 -322.145807 
L 399.059029 -324.240979 
L 383.377817 -318.538773 
L 367.696605 -329.967986 
L 352.015393 -326.359114 
L 336.334181 -318.223869 
L 320.652969 -320.331097 
L 304.971757 -311.176792 
L 289.290545 -313.00361 
L 273.609332 -325.602471 
L 257.92812 -321.525733 
L 242.246908 -321.26612 
L 226.565696 -325.327646 
L 210.884484 -326.71765 
L 195.203272 -328.014493 
L 179.52206 -316.414036 
L 163.840848 -316.156641 
L 148.159635 -326.268488 
L 132.478423 -331.323884 
L 116.797211 -318.921421 
L 101.115999 -295.878744 
L 85.434787 -281.173553 
z
" style="stroke: #dc143c; stroke-opacity: 0.2"/>
    </defs>
    <g clip-path="url(#p54578dfb50)">
     <use xlink:href="#m7c9aa3361d" x="0" y="639.76" style="fill: #dc143c; fill-opacity: 0.2; stroke: #dc143c; stroke-opacity: 0.2"/>
    </g>
   </g>
   <g id="PolyCollection_8">
    <defs>
     <path id="me28fee00b1" d="M 85.434787 -378.681818 
L 85.434787 -363.496899 
L 101.115999 -333.164231 
L 116.797211 -339.076307 
L 132.478423 -335.909147 
L 148.159635 -327.269783 
L 163.840848 -325.806627 
L 179.52206 -316.971257 
L 195.203272 -324.70472 
L 210.884484 -317.104858 
L 226.565696 -324.219059 
L 242.246908 -318.794272 
L 257.92812 -317.894039 
L 273.609332 -306.748737 
L 289.290545 -308.367611 
L 304.971757 -317.996713 
L 320.652969 -309.228311 
L 336.334181 -321.339866 
L 352.015393 -313.949898 
L 367.696605 -317.04467 
L 383.377817 -311.551704 
L 399.059029 -324.162049 
L 414.740241 -320.746589 
L 430.421454 -305.469657 
L 446.102666 -300.323282 
L 461.783878 -306.548362 
L 477.46509 -303.264131 
L 493.146302 -311.55103 
L 508.827514 -319.499656 
L 524.508726 -306.890983 
L 540.189938 -291.181399 
L 555.871151 -305.426257 
L 555.871151 -318.85048 
L 555.871151 -318.85048 
L 540.189938 -305.423315 
L 524.508726 -321.950792 
L 508.827514 -333.181765 
L 493.146302 -320.446822 
L 477.46509 -320.956248 
L 461.783878 -321.617111 
L 446.102666 -317.75402 
L 430.421454 -323.372118 
L 414.740241 -328.60968 
L 399.059029 -328.688447 
L 383.377817 -323.940374 
L 367.696605 -326.506673 
L 352.015393 -328.192483 
L 336.334181 -332.975951 
L 320.652969 -325.587466 
L 304.971757 -334.23384 
L 289.290545 -326.560882 
L 273.609332 -320.233208 
L 257.92812 -325.43187 
L 242.246908 -331.463733 
L 226.565696 -340.973949 
L 210.884484 -328.193599 
L 195.203272 -333.725267 
L 179.52206 -331.257842 
L 163.840848 -336.850248 
L 148.159635 -338.205017 
L 132.478423 -351.094599 
L 116.797211 -354.352309 
L 101.115999 -345.160307 
L 85.434787 -378.681818 
z
" style="stroke: #008b8b; stroke-opacity: 0.2"/>
    </defs>
    <g clip-path="url(#p54578dfb50)">
     <use xlink:href="#me28fee00b1" x="0" y="639.76" style="fill: #008b8b; fill-opacity: 0.2; stroke: #008b8b; stroke-opacity: 0.2"/>
    </g>
   </g>
   <g id="PolyCollection_9">
    <defs>
     <path id="m990c48de1b" d="M 85.434787 -272.731308 
L 85.434787 -270.107398 
L 101.115999 -271.464346 
L 116.797211 -279.406803 
L 132.478423 -282.59774 
L 148.159635 -284.244878 
L 163.840848 -290.076099 
L 179.52206 -287.727549 
L 195.203272 -289.978294 
L 210.884484 -296.300552 
L 226.565696 -290.103886 
L 242.246908 -290.803608 
L 257.92812 -301.577133 
L 273.609332 -290.524161 
L 289.290545 -297.142134 
L 304.971757 -300.508068 
L 320.652969 -296.77789 
L 336.334181 -294.914079 
L 352.015393 -295.399955 
L 367.696605 -290.98304 
L 383.377817 -298.38026 
L 399.059029 -299.410036 
L 414.740241 -298.022165 
L 430.421454 -303.983195 
L 446.102666 -301.773901 
L 461.783878 -287.839582 
L 477.46509 -288.836938 
L 493.146302 -290.515672 
L 508.827514 -291.052966 
L 524.508726 -295.567674 
L 540.189938 -297.732407 
L 555.871151 -290.939205 
L 555.871151 -306.567245 
L 555.871151 -306.567245 
L 540.189938 -317.188819 
L 524.508726 -317.268287 
L 508.827514 -302.564747 
L 493.146302 -303.834701 
L 477.46509 -296.777868 
L 461.783878 -300.142282 
L 446.102666 -314.105419 
L 430.421454 -317.926485 
L 414.740241 -307.149041 
L 399.059029 -311.566095 
L 383.377817 -313.779399 
L 367.696605 -306.185258 
L 352.015393 -309.827609 
L 336.334181 -307.720994 
L 320.652969 -307.49158 
L 304.971757 -317.512876 
L 289.290545 -307.803637 
L 273.609332 -300.95193 
L 257.92812 -313.794961 
L 242.246908 -302.475955 
L 226.565696 -299.963242 
L 210.884484 -304.700124 
L 195.203272 -300.539702 
L 179.52206 -297.999974 
L 163.840848 -301.850859 
L 148.159635 -293.02887 
L 132.478423 -295.465028 
L 116.797211 -285.129925 
L 101.115999 -276.052115 
L 85.434787 -272.731308 
z
" style="stroke: #daa520; stroke-opacity: 0.2"/>
    </defs>
    <g clip-path="url(#p54578dfb50)">
     <use xlink:href="#m990c48de1b" x="0" y="639.76" style="fill: #daa520; fill-opacity: 0.2; stroke: #daa520; stroke-opacity: 0.2"/>
    </g>
   </g>
   <g id="PolyCollection_10">
    <defs>
     <path id="mc7612e9ebd" d="M 85.434787 -281.810078 
L 85.434787 -277.203516 
L 101.115999 -279.511581 
L 116.797211 -269.84758 
L 132.478423 -267.562882 
L 148.159635 -278.142729 
L 163.840848 -279.780397 
L 179.52206 -289.849675 
L 195.203272 -275.95473 
L 210.884484 -274.919777 
L 226.565696 -272.016696 
L 242.246908 -279.106188 
L 257.92812 -276.775465 
L 273.609332 -284.437557 
L 289.290545 -285.621681 
L 304.971757 -275.511881 
L 320.652969 -274.804359 
L 336.334181 -278.833282 
L 352.015393 -273.013319 
L 367.696605 -274.515555 
L 383.377817 -275.373824 
L 399.059029 -271.294413 
L 414.740241 -276.998562 
L 430.421454 -280.558715 
L 446.102666 -290.807505 
L 461.783878 -290.559576 
L 477.46509 -293.961063 
L 493.146302 -284.291355 
L 508.827514 -276.627073 
L 524.508726 -281.171424 
L 540.189938 -297.503847 
L 555.871151 -289.854468 
L 555.871151 -305.566718 
L 555.871151 -305.566718 
L 540.189938 -321.700625 
L 524.508726 -294.524286 
L 508.827514 -287.796938 
L 493.146302 -301.548885 
L 477.46509 -325.694277 
L 461.783878 -313.597177 
L 446.102666 -309.967737 
L 430.421454 -292.769939 
L 414.740241 -288.270826 
L 399.059029 -276.503841 
L 383.377817 -290.853658 
L 367.696605 -293.740834 
L 352.015393 -295.355786 
L 336.334181 -291.226579 
L 320.652969 -292.606652 
L 304.971757 -294.040753 
L 289.290545 -308.615976 
L 273.609332 -301.5154 
L 257.92812 -286.859527 
L 242.246908 -290.840956 
L 226.565696 -289.58939 
L 210.884484 -285.728214 
L 195.203272 -283.509733 
L 179.52206 -307.938567 
L 163.840848 -294.337275 
L 148.159635 -289.437358 
L 132.478423 -270.259917 
L 116.797211 -285.671788 
L 101.115999 -283.39075 
L 85.434787 -281.810078 
z
" style="stroke: #4169e1; stroke-opacity: 0.2"/>
    </defs>
    <g clip-path="url(#p54578dfb50)">
     <use xlink:href="#mc7612e9ebd" x="0" y="639.76" style="fill: #4169e1; fill-opacity: 0.2; stroke: #4169e1; stroke-opacity: 0.2"/>
    </g>
   </g>
   <g id="PolyCollection_11">
    <defs>
     <path id="m27bcd4344f" d="M 85.434787 -294.761787 
L 85.434787 -283.977282 
L 101.115999 -296.390583 
L 116.797211 -268.361355 
L 132.478423 -265.210441 
L 148.159635 -264.483825 
L 163.840848 -264.522648 
L 179.52206 -264.739082 
L 195.203272 -264.318182 
L 210.884484 -265.425058 
L 226.565696 -264.866763 
L 242.246908 -266.780463 
L 257.92812 -264.325412 
L 273.609332 -267.01921 
L 289.290545 -265.517719 
L 304.971757 -264.318182 
L 320.652969 -267.824562 
L 336.334181 -264.890794 
L 352.015393 -264.481409 
L 367.696605 -264.706266 
L 383.377817 -267.180927 
L 399.059029 -265.047401 
L 414.740241 -264.922722 
L 430.421454 -266.63323 
L 446.102666 -266.954771 
L 461.783878 -264.935698 
L 477.46509 -270.264192 
L 493.146302 -265.56783 
L 508.827514 -264.774226 
L 524.508726 -264.526415 
L 540.189938 -267.625975 
L 555.871151 -264.693863 
L 555.871151 -273.974313 
L 555.871151 -273.974313 
L 540.189938 -272.451164 
L 524.508726 -272.225572 
L 508.827514 -267.469082 
L 493.146302 -267.746289 
L 477.46509 -278.266722 
L 461.783878 -268.209346 
L 446.102666 -270.360802 
L 430.421454 -273.218475 
L 414.740241 -267.433302 
L 399.059029 -269.112095 
L 383.377817 -275.939571 
L 367.696605 -266.578947 
L 352.015393 -265.451201 
L 336.334181 -266.676211 
L 320.652969 -279.860975 
L 304.971757 -264.318182 
L 289.290545 -267.232815 
L 273.609332 -270.74723 
L 257.92812 -264.592744 
L 242.246908 -273.353034 
L 226.565696 -268.560073 
L 210.884484 -269.354382 
L 195.203272 -264.318182 
L 179.52206 -265.362602 
L 163.840848 -265.297244 
L 148.159635 -265.505143 
L 132.478423 -266.694715 
L 116.797211 -278.986031 
L 101.115999 -310.865888 
L 85.434787 -294.761787 
z
" style="stroke: #663399; stroke-opacity: 0.2"/>
    </defs>
    <g clip-path="url(#p54578dfb50)">
     <use xlink:href="#m27bcd4344f" x="0" y="639.76" style="fill: #663399; fill-opacity: 0.2; stroke: #663399; stroke-opacity: 0.2"/>
    </g>
   </g>
   <g id="PolyCollection_12">
    <defs>
     <path id="m420f30c74a" d="M 85.434787 -264.318182 
L 85.434787 -264.318182 
L 101.115999 -264.318182 
L 116.797211 -264.318182 
L 132.478423 -264.318182 
L 148.159635 -264.323966 
L 163.840848 -264.318182 
L 179.52206 -264.318182 
L 195.203272 -264.318182 
L 210.884484 -264.325412 
L 226.565696 -264.321074 
L 242.246908 -264.318182 
L 257.92812 -264.318182 
L 273.609332 -264.573118 
L 289.290545 -264.318182 
L 304.971757 -264.318182 
L 320.652969 -264.321074 
L 336.334181 -264.318182 
L 352.015393 -264.318182 
L 367.696605 -264.318182 
L 383.377817 -264.318182 
L 399.059029 -264.318182 
L 414.740241 -264.318182 
L 430.421454 -264.318182 
L 446.102666 -264.62745 
L 461.783878 -264.318182 
L 477.46509 -264.318182 
L 493.146302 -264.318182 
L 508.827514 -264.32252 
L 524.508726 -264.318182 
L 540.189938 -264.508586 
L 555.871151 -264.360118 
L 555.871151 -265.910642 
L 555.871151 -265.910642 
L 540.189938 -269.256401 
L 524.508726 -264.318182 
L 508.827514 -264.482919 
L 493.146302 -264.318182 
L 477.46509 -264.318182 
L 461.783878 -264.318182 
L 446.102666 -265.643311 
L 430.421454 -264.318182 
L 414.740241 -264.318182 
L 399.059029 -264.318182 
L 383.377817 -264.318182 
L 367.696605 -264.318182 
L 352.015393 -264.318182 
L 336.334181 -264.318182 
L 320.652969 -264.428007 
L 304.971757 -264.318182 
L 289.290545 -264.318182 
L 273.609332 -265.472208 
L 257.92812 -264.318182 
L 242.246908 -264.318182 
L 226.565696 -264.428007 
L 210.884484 -264.592744 
L 195.203272 -264.318182 
L 179.52206 -264.318182 
L 163.840848 -264.318182 
L 148.159635 -264.537832 
L 132.478423 -264.318182 
L 116.797211 -264.318182 
L 101.115999 -264.318182 
L 85.434787 -264.318182 
z
" style="stroke: #ba55d3; stroke-opacity: 0.2"/>
    </defs>
    <g clip-path="url(#p54578dfb50)">
     <use xlink:href="#m420f30c74a" x="0" y="639.76" style="fill: #ba55d3; fill-opacity: 0.2; stroke: #ba55d3; stroke-opacity: 0.2"/>
    </g>
   </g>
   <g id="matplotlib.axis_3">
    <g id="xtick_8">
     <g id="line2d_18">
      <g>
       <use xlink:href="#m9284a7327d" x="85.434787" y="381.16" style="stroke: #000000; stroke-width: 0.8"/>
      </g>
     </g>
     <g id="text_15">
      <!-- 0 -->
      <g transform="translate(82.253537 395.758437) scale(0.1 -0.1)">
       <use xlink:href="#DejaVuSans-30"/>
      </g>
     </g>
    </g>
    <g id="xtick_9">
     <g id="line2d_19">
      <g>
       <use xlink:href="#m9284a7327d" x="163.840848" y="381.16" style="stroke: #000000; stroke-width: 0.8"/>
      </g>
     </g>
     <g id="text_16">
      <!-- 5 -->
      <g transform="translate(160.659598 395.758437) scale(0.1 -0.1)">
       <use xlink:href="#DejaVuSans-35"/>
      </g>
     </g>
    </g>
    <g id="xtick_10">
     <g id="line2d_20">
      <g>
       <use xlink:href="#m9284a7327d" x="242.246908" y="381.16" style="stroke: #000000; stroke-width: 0.8"/>
      </g>
     </g>
     <g id="text_17">
      <!-- 10 -->
      <g transform="translate(235.884408 395.758437) scale(0.1 -0.1)">
       <use xlink:href="#DejaVuSans-31"/>
       <use xlink:href="#DejaVuSans-30" x="63.623047"/>
      </g>
     </g>
    </g>
    <g id="xtick_11">
     <g id="line2d_21">
      <g>
       <use xlink:href="#m9284a7327d" x="320.652969" y="381.16" style="stroke: #000000; stroke-width: 0.8"/>
      </g>
     </g>
     <g id="text_18">
      <!-- 15 -->
      <g transform="translate(314.290469 395.758437) scale(0.1 -0.1)">
       <use xlink:href="#DejaVuSans-31"/>
       <use xlink:href="#DejaVuSans-35" x="63.623047"/>
      </g>
     </g>
    </g>
    <g id="xtick_12">
     <g id="line2d_22">
      <g>
       <use xlink:href="#m9284a7327d" x="399.059029" y="381.16" style="stroke: #000000; stroke-width: 0.8"/>
      </g>
     </g>
     <g id="text_19">
      <!-- 20 -->
      <g transform="translate(392.696529 395.758437) scale(0.1 -0.1)">
       <use xlink:href="#DejaVuSans-32"/>
       <use xlink:href="#DejaVuSans-30" x="63.623047"/>
      </g>
     </g>
    </g>
    <g id="xtick_13">
     <g id="line2d_23">
      <g>
       <use xlink:href="#m9284a7327d" x="477.46509" y="381.16" style="stroke: #000000; stroke-width: 0.8"/>
      </g>
     </g>
     <g id="text_20">
      <!-- 25 -->
      <g transform="translate(471.10259 395.758437) scale(0.1 -0.1)">
       <use xlink:href="#DejaVuSans-32"/>
       <use xlink:href="#DejaVuSans-35" x="63.623047"/>
      </g>
     </g>
    </g>
    <g id="xtick_14">
     <g id="line2d_24">
      <g>
       <use xlink:href="#m9284a7327d" x="555.871151" y="381.16" style="stroke: #000000; stroke-width: 0.8"/>
      </g>
     </g>
     <g id="text_21">
      <!-- 30 -->
      <g transform="translate(549.508651 395.758437) scale(0.1 -0.1)">
       <use xlink:href="#DejaVuSans-33"/>
       <use xlink:href="#DejaVuSans-30" x="63.623047"/>
      </g>
     </g>
    </g>
    <g id="text_22">
     <!-- Time bin = 1 min -->
     <g transform="translate(277.531875 409.436562) scale(0.1 -0.1)">
      <use xlink:href="#DejaVuSans-54"/>
      <use xlink:href="#DejaVuSans-69" x="57.958984"/>
      <use xlink:href="#DejaVuSans-6d" x="85.742188"/>
      <use xlink:href="#DejaVuSans-65" x="183.154297"/>
      <use xlink:href="#DejaVuSans-20" x="244.677734"/>
      <use xlink:href="#DejaVuSans-62" x="276.464844"/>
      <use xlink:href="#DejaVuSans-69" x="339.941406"/>
      <use xlink:href="#DejaVuSans-6e" x="367.724609"/>
      <use xlink:href="#DejaVuSans-20" x="431.103516"/>
      <use xlink:href="#DejaVuSans-3d" x="462.890625"/>
      <use xlink:href="#DejaVuSans-20" x="546.679688"/>
      <use xlink:href="#DejaVuSans-31" x="578.466797"/>
      <use xlink:href="#DejaVuSans-20" x="642.089844"/>
      <use xlink:href="#DejaVuSans-6d" x="673.876953"/>
      <use xlink:href="#DejaVuSans-69" x="771.289062"/>
      <use xlink:href="#DejaVuSans-6e" x="799.072266"/>
     </g>
    </g>
   </g>
   <g id="matplotlib.axis_4">
    <g id="ytick_5">
     <g id="line2d_25">
      <g>
       <use xlink:href="#m5e09568672" x="61.912969" y="375.441818" style="stroke: #000000; stroke-width: 0.8"/>
      </g>
     </g>
     <g id="text_23">
      <!-- 0.0 -->
      <g transform="translate(39.009844 379.241037) scale(0.1 -0.1)">
       <use xlink:href="#DejaVuSans-30"/>
       <use xlink:href="#DejaVuSans-2e" x="63.623047"/>
       <use xlink:href="#DejaVuSans-30" x="95.410156"/>
      </g>
     </g>
    </g>
    <g id="ytick_6">
     <g id="line2d_26">
      <g>
       <use xlink:href="#m5e09568672" x="61.912969" y="341.626719" style="stroke: #000000; stroke-width: 0.8"/>
      </g>
     </g>
     <g id="text_24">
      <!-- 0.2 -->
      <g transform="translate(39.009844 345.425937) scale(0.1 -0.1)">
       <use xlink:href="#DejaVuSans-30"/>
       <use xlink:href="#DejaVuSans-2e" x="63.623047"/>
       <use xlink:href="#DejaVuSans-32" x="95.410156"/>
      </g>
     </g>
    </g>
    <g id="ytick_7">
     <g id="line2d_27">
      <g>
       <use xlink:href="#m5e09568672" x="61.912969" y="307.811619" style="stroke: #000000; stroke-width: 0.8"/>
      </g>
     </g>
     <g id="text_25">
      <!-- 0.4 -->
      <g transform="translate(39.009844 311.610838) scale(0.1 -0.1)">
       <use xlink:href="#DejaVuSans-30"/>
       <use xlink:href="#DejaVuSans-2e" x="63.623047"/>
       <use xlink:href="#DejaVuSans-34" x="95.410156"/>
      </g>
     </g>
    </g>
    <g id="ytick_8">
     <g id="line2d_28">
      <g>
       <use xlink:href="#m5e09568672" x="61.912969" y="273.996519" style="stroke: #000000; stroke-width: 0.8"/>
      </g>
     </g>
     <g id="text_26">
      <!-- 0.6 -->
      <g transform="translate(39.009844 277.795738) scale(0.1 -0.1)">
       <use xlink:href="#DejaVuSans-30"/>
       <use xlink:href="#DejaVuSans-2e" x="63.623047"/>
       <use xlink:href="#DejaVuSans-36" x="95.410156"/>
      </g>
     </g>
    </g>
    <g id="text_27">
     <!-- Percent -->
     <g transform="translate(32.930156 337.067813) rotate(-90) scale(0.1 -0.1)">
      <use xlink:href="#DejaVuSans-50"/>
      <use xlink:href="#DejaVuSans-65" x="56.677734"/>
      <use xlink:href="#DejaVuSans-72" x="118.201172"/>
      <use xlink:href="#DejaVuSans-63" x="157.064453"/>
      <use xlink:href="#DejaVuSans-65" x="212.044922"/>
      <use xlink:href="#DejaVuSans-6e" x="273.568359"/>
      <use xlink:href="#DejaVuSans-74" x="336.947266"/>
     </g>
    </g>
   </g>
   <g id="line2d_29">
    <path d="M 85.434787 360.478637 
L 101.115999 347.093493 
L 116.797211 329.509641 
L 132.478423 316.490828 
L 148.159635 319.365111 
L 163.840848 328.354292 
L 179.52206 330.016868 
L 195.203272 317.617998 
L 210.884484 320.097772 
L 226.565696 324.29648 
L 242.246908 325.902697 
L 257.92812 324.719169 
L 273.609332 320.886791 
L 289.290545 332.524821 
L 304.971757 333.31384 
L 320.652969 326.240848 
L 336.334181 328.382471 
L 352.015393 321.929423 
L 367.696605 319.224215 
L 383.377817 327.593452 
L 399.059029 321.985782 
L 414.740241 325.170037 
L 430.421454 331.0595 
L 446.102666 335.93451 
L 461.783878 325.81816 
L 477.46509 338.104312 
L 493.146302 321.844885 
L 508.827514 320.661357 
L 524.508726 326.156311 
L 540.189938 337.06168 
L 555.871151 327.847066 
" clip-path="url(#p54578dfb50)" style="fill: none; stroke: #dc143c; stroke-width: 1.5; stroke-linecap: square"/>
   </g>
   <g id="line2d_30">
    <path d="M 85.434787 268.670641 
L 101.115999 300.597731 
L 116.797211 293.045692 
L 132.478423 296.258127 
L 148.159635 307.0226 
L 163.840848 308.431563 
L 179.52206 315.64545 
L 195.203272 310.545006 
L 210.884484 317.110771 
L 226.565696 307.163496 
L 242.246908 314.630997 
L 257.92812 318.097045 
L 273.609332 326.269028 
L 289.290545 322.295753 
L 304.971757 313.644724 
L 320.652969 322.352112 
L 336.334181 312.602091 
L 352.015393 318.688809 
L 367.696605 317.984328 
L 383.377817 322.013961 
L 399.059029 313.334752 
L 414.740241 315.081865 
L 430.421454 325.339112 
L 446.102666 330.721349 
L 461.783878 325.677263 
L 477.46509 327.649811 
L 493.146302 323.761074 
L 508.827514 313.41929 
L 524.508726 325.339112 
L 540.189938 341.457643 
L 555.871151 327.621632 
" clip-path="url(#p54578dfb50)" style="fill: none; stroke: #008b8b; stroke-width: 1.5; stroke-linecap: square"/>
   </g>
   <g id="line2d_31">
    <path d="M 85.434787 368.340647 
L 101.115999 366.00177 
L 116.797211 357.491636 
L 132.478423 350.728616 
L 148.159635 351.123126 
L 163.840848 343.796521 
L 179.52206 346.896238 
L 195.203272 344.501002 
L 210.884484 339.259662 
L 226.565696 344.726436 
L 242.246908 343.120219 
L 257.92812 332.073953 
L 273.609332 344.021955 
L 289.290545 337.287114 
L 304.971757 330.749528 
L 320.652969 337.625265 
L 336.334181 338.442463 
L 352.015393 337.146218 
L 367.696605 341.175851 
L 383.377817 333.68017 
L 399.059029 334.271934 
L 414.740241 337.174397 
L 430.421454 328.80516 
L 446.102666 331.82034 
L 461.783878 345.769068 
L 477.46509 346.952597 
L 493.146302 342.584813 
L 508.827514 342.951143 
L 524.508726 333.342019 
L 540.189938 332.299387 
L 555.871151 341.006775 
" clip-path="url(#p54578dfb50)" style="fill: none; stroke: #daa520; stroke-width: 1.5; stroke-linecap: square"/>
   </g>
   <g id="line2d_32">
    <path d="M 85.434787 360.253203 
L 101.115999 358.308834 
L 116.797211 362.000316 
L 132.478423 370.8486 
L 148.159635 355.969957 
L 163.840848 352.701164 
L 179.52206 340.865879 
L 195.203272 360.027769 
L 210.884484 359.436004 
L 226.565696 358.956957 
L 242.246908 354.786428 
L 257.92812 357.942504 
L 273.609332 346.783521 
L 289.290545 342.641172 
L 304.971757 354.983683 
L 320.652969 356.054494 
L 336.334181 354.73007 
L 352.015393 355.575447 
L 367.696605 355.631806 
L 383.377817 356.646259 
L 399.059029 365.860873 
L 414.740241 357.125306 
L 430.421454 353.095673 
L 446.102666 339.372379 
L 461.783878 337.681624 
L 477.46509 329.93233 
L 493.146302 346.83988 
L 508.827514 357.547995 
L 524.508726 351.912145 
L 540.189938 330.157764 
L 555.871151 342.049407 
" clip-path="url(#p54578dfb50)" style="fill: none; stroke: #4169e1; stroke-width: 1.5; stroke-linecap: square"/>
   </g>
   <g id="line2d_33">
    <path d="M 85.434787 350.390465 
L 101.115999 336.131765 
L 116.797211 366.086307 
L 132.478423 373.807422 
L 148.159635 374.765516 
L 163.840848 374.850054 
L 179.52206 374.709158 
L 195.203272 375.441818 
L 210.884484 372.37028 
L 226.565696 373.046582 
L 242.246908 369.693251 
L 257.92812 375.300922 
L 273.609332 370.87678 
L 289.290545 373.384733 
L 304.971757 375.441818 
L 320.652969 365.917232 
L 336.334181 373.976497 
L 352.015393 374.793695 
L 367.696605 374.117393 
L 383.377817 368.199751 
L 399.059029 372.680252 
L 414.740241 373.581988 
L 430.421454 369.834148 
L 446.102666 371.102214 
L 461.783878 373.187478 
L 477.46509 365.494543 
L 493.146302 373.10294 
L 508.827514 373.638346 
L 524.508726 371.384006 
L 540.189938 369.721431 
L 555.871151 370.425912 
" clip-path="url(#p54578dfb50)" style="fill: none; stroke: #663399; stroke-width: 1.5; stroke-linecap: square"/>
   </g>
   <g id="line2d_34">
    <path d="M 85.434787 375.441818 
L 101.115999 375.441818 
L 116.797211 375.441818 
L 132.478423 375.441818 
L 148.159635 375.329101 
L 163.840848 375.441818 
L 179.52206 375.441818 
L 195.203272 375.441818 
L 210.884484 375.300922 
L 226.565696 375.38546 
L 242.246908 375.441818 
L 257.92812 375.441818 
L 273.609332 374.737337 
L 289.290545 375.441818 
L 304.971757 375.441818 
L 320.652969 375.38546 
L 336.334181 375.441818 
L 352.015393 375.441818 
L 367.696605 375.441818 
L 383.377817 375.441818 
L 399.059029 375.441818 
L 414.740241 375.441818 
L 430.421454 375.441818 
L 446.102666 374.62462 
L 461.783878 375.441818 
L 477.46509 375.441818 
L 493.146302 375.441818 
L 508.827514 375.35728 
L 524.508726 375.441818 
L 540.189938 372.877506 
L 555.871151 374.62462 
" clip-path="url(#p54578dfb50)" style="fill: none; stroke: #ba55d3; stroke-width: 1.5; stroke-linecap: square"/>
   </g>
   <g id="patch_6">
    <path d="M 61.912969 381.16 
L 61.912969 255.36 
" style="fill: none; stroke: #000000; stroke-width: 0.8; stroke-linejoin: miter; stroke-linecap: square"/>
   </g>
   <g id="patch_7">
    <path d="M 61.912969 381.16 
L 579.392969 381.16 
" style="fill: none; stroke: #000000; stroke-width: 0.8; stroke-linejoin: miter; stroke-linecap: square"/>
   </g>
   <g id="text_28">
    <!-- 1Per Formalin -->
    <g transform="translate(279.446094 249.36) scale(0.12 -0.12)">
     <defs>
      <path id="DejaVuSans-46" d="M 628 4666 
L 3309 4666 
L 3309 4134 
L 1259 4134 
L 1259 2759 
L 3109 2759 
L 3109 2228 
L 1259 2228 
L 1259 0 
L 628 0 
L 628 4666 
z
" transform="scale(0.015625)"/>
      <path id="DejaVuSans-61" d="M 2194 1759 
Q 1497 1759 1228 1600 
Q 959 1441 959 1056 
Q 959 750 1161 570 
Q 1363 391 1709 391 
Q 2188 391 2477 730 
Q 2766 1069 2766 1631 
L 2766 1759 
L 2194 1759 
z
M 3341 1997 
L 3341 0 
L 2766 0 
L 2766 531 
Q 2569 213 2275 61 
Q 1981 -91 1556 -91 
Q 1019 -91 701 211 
Q 384 513 384 1019 
Q 384 1609 779 1909 
Q 1175 2209 1959 2209 
L 2766 2209 
L 2766 2266 
Q 2766 2663 2505 2880 
Q 2244 3097 1772 3097 
Q 1472 3097 1187 3025 
Q 903 2953 641 2809 
L 641 3341 
Q 956 3463 1253 3523 
Q 1550 3584 1831 3584 
Q 2591 3584 2966 3190 
Q 3341 2797 3341 1997 
z
" transform="scale(0.015625)"/>
     </defs>
     <use xlink:href="#DejaVuSans-31"/>
     <use xlink:href="#DejaVuSans-50" x="63.623047"/>
     <use xlink:href="#DejaVuSans-65" x="120.300781"/>
     <use xlink:href="#DejaVuSans-72" x="181.824219"/>
     <use xlink:href="#DejaVuSans-20" x="222.9375"/>
     <use xlink:href="#DejaVuSans-46" x="254.724609"/>
     <use xlink:href="#DejaVuSans-6f" x="308.619141"/>
     <use xlink:href="#DejaVuSans-72" x="369.800781"/>
     <use xlink:href="#DejaVuSans-6d" x="409.164062"/>
     <use xlink:href="#DejaVuSans-61" x="506.576172"/>
     <use xlink:href="#DejaVuSans-6c" x="567.855469"/>
     <use xlink:href="#DejaVuSans-69" x="595.638672"/>
     <use xlink:href="#DejaVuSans-6e" x="623.421875"/>
    </g>
   </g>
  </g>
  <g id="axes_3">
   <g id="patch_8">
    <path d="M 61.912969 565 
L 579.392969 565 
L 579.392969 439.2 
L 61.912969 439.2 
z
" style="fill: #ffffff"/>
   </g>
   <g id="PolyCollection_13">
    <defs>
     <path id="m7837edbdc1" d="M 85.434787 -96.706799 
L 85.434787 -93.05405 
L 101.115999 -99.937965 
L 116.797211 -114.471671 
L 132.478423 -137.835799 
L 148.159635 -132.067931 
L 163.840848 -138.111155 
L 179.52206 -141.054799 
L 195.203272 -136.71322 
L 210.884484 -147.546621 
L 226.565696 -140.94224 
L 242.246908 -131.027676 
L 257.92812 -140.209357 
L 273.609332 -129.621791 
L 289.290545 -123.523332 
L 304.971757 -122.994861 
L 320.652969 -119.349526 
L 336.334181 -129.019159 
L 352.015393 -142.665424 
L 367.696605 -140.322921 
L 383.377817 -126.166848 
L 399.059029 -125.493221 
L 414.740241 -121.659397 
L 430.421454 -136.510083 
L 446.102666 -118.072546 
L 461.783878 -120.604138 
L 477.46509 -135.689848 
L 493.146302 -142.442731 
L 508.827514 -150.467629 
L 524.508726 -137.664795 
L 540.189938 -131.066022 
L 555.871151 -140.512885 
L 555.871151 -157.81872 
L 555.871151 -157.81872 
L 540.189938 -141.318223 
L 524.508726 -158.626006 
L 508.827514 -178.650957 
L 493.146302 -168.017079 
L 477.46509 -163.749622 
L 461.783878 -133.937651 
L 446.102666 -132.620871 
L 430.421454 -157.50668 
L 414.740241 -133.40717 
L 399.059029 -139.719056 
L 383.377817 -141.611011 
L 367.696605 -157.542215 
L 352.015393 -157.881911 
L 336.334181 -146.513754 
L 320.652969 -138.982327 
L 304.971757 -136.095005 
L 289.290545 -145.187466 
L 273.609332 -144.628331 
L 257.92812 -159.754891 
L 242.246908 -151.210734 
L 226.565696 -163.453467 
L 210.884484 -165.94524 
L 195.203272 -150.598045 
L 179.52206 -157.510041 
L 163.840848 -159.987215 
L 148.159635 -151.803122 
L 132.478423 -165.510352 
L 116.797211 -128.233457 
L 101.115999 -107.607031 
L 85.434787 -96.706799 
z
" style="stroke: #dc143c; stroke-opacity: 0.2"/>
    </defs>
    <g clip-path="url(#p5afbdc28fa)">
     <use xlink:href="#m7837edbdc1" x="0" y="639.76" style="fill: #dc143c; fill-opacity: 0.2; stroke: #dc143c; stroke-opacity: 0.2"/>
    </g>
   </g>
   <g id="PolyCollection_14">
    <defs>
     <path id="m46c07566ed" d="M 85.434787 -194.841818 
L 85.434787 -186.054873 
L 101.115999 -149.076476 
L 116.797211 -149.760401 
L 132.478423 -136.196178 
L 148.159635 -131.851423 
L 163.840848 -133.304233 
L 179.52206 -143.614808 
L 195.203272 -137.20524 
L 210.884484 -135.814655 
L 226.565696 -132.129896 
L 242.246908 -133.346027 
L 257.92812 -140.129138 
L 273.609332 -138.898613 
L 289.290545 -132.262041 
L 304.971757 -142.937926 
L 320.652969 -131.608404 
L 336.334181 -143.47644 
L 352.015393 -137.988973 
L 367.696605 -136.906177 
L 383.377817 -138.427321 
L 399.059029 -132.519319 
L 414.740241 -125.869006 
L 430.421454 -127.809494 
L 446.102666 -122.545487 
L 461.783878 -137.714409 
L 477.46509 -126.625497 
L 493.146302 -131.864978 
L 508.827514 -130.73933 
L 524.508726 -133.568068 
L 540.189938 -124.937603 
L 555.871151 -133.522744 
L 555.871151 -150.873088 
L 555.871151 -150.873088 
L 540.189938 -145.988925 
L 524.508726 -148.612034 
L 508.827514 -148.175486 
L 493.146302 -146.116899 
L 477.46509 -144.7675 
L 461.783878 -154.961254 
L 446.102666 -142.375247 
L 430.421454 -139.793438 
L 414.740241 -146.223695 
L 399.059029 -151.818204 
L 383.377817 -154.015108 
L 367.696605 -151.338028 
L 352.015393 -149.847071 
L 336.334181 -155.613178 
L 320.652969 -149.055672 
L 304.971757 -156.67647 
L 289.290545 -149.626518 
L 273.609332 -156.575867 
L 257.92812 -149.922635 
L 242.246908 -144.694159 
L 226.565696 -146.959846 
L 210.884484 -146.248829 
L 195.203272 -149.989409 
L 179.52206 -156.990836 
L 163.840848 -147.884621 
L 148.159635 -152.369483 
L 132.478423 -151.931409 
L 116.797211 -164.139621 
L 101.115999 -159.750691 
L 85.434787 -194.841818 
z
" style="stroke: #008b8b; stroke-opacity: 0.2"/>
    </defs>
    <g clip-path="url(#p5afbdc28fa)">
     <use xlink:href="#m46c07566ed" x="0" y="639.76" style="fill: #008b8b; fill-opacity: 0.2; stroke: #008b8b; stroke-opacity: 0.2"/>
    </g>
   </g>
   <g id="PolyCollection_15">
    <defs>
     <path id="m4a637114cb" d="M 85.434787 -87.660829 
L 85.434787 -84.665726 
L 101.115999 -88.779221 
L 116.797211 -96.014995 
L 132.478423 -94.780667 
L 148.159635 -92.744722 
L 163.840848 -96.836632 
L 179.52206 -92.926464 
L 195.203272 -101.446128 
L 210.884484 -94.127254 
L 226.565696 -96.074638 
L 242.246908 -93.577695 
L 257.92812 -96.882284 
L 273.609332 -97.539532 
L 289.290545 -97.998092 
L 304.971757 -104.167423 
L 320.652969 -101.565049 
L 336.334181 -104.159039 
L 352.015393 -97.718835 
L 367.696605 -96.848359 
L 383.377817 -96.157999 
L 399.059029 -104.43688 
L 414.740241 -106.519353 
L 430.421454 -96.594695 
L 446.102666 -97.696483 
L 461.783878 -96.465192 
L 477.46509 -87.93341 
L 493.146302 -99.814115 
L 508.827514 -97.864963 
L 524.508726 -94.676285 
L 540.189938 -89.185492 
L 555.871151 -92.848576 
L 555.871151 -105.833501 
L 555.871151 -105.833501 
L 540.189938 -100.342123 
L 524.508726 -107.62093 
L 508.827514 -111.837454 
L 493.146302 -112.337266 
L 477.46509 -92.498052 
L 461.783878 -109.563779 
L 446.102666 -112.414095 
L 430.421454 -107.685015 
L 414.740241 -130.763068 
L 399.059029 -118.443298 
L 383.377817 -107.830167 
L 367.696605 -109.588772 
L 352.015393 -109.359692 
L 336.334181 -116.796952 
L 320.652969 -114.551322 
L 304.971757 -115.155925 
L 289.290545 -111.296165 
L 273.609332 -105.74893 
L 257.92812 -109.263304 
L 242.246908 -100.264762 
L 226.565696 -108.729851 
L 210.884484 -105.779306 
L 195.203272 -114.437008 
L 179.52206 -101.96555 
L 163.840848 -103.536397 
L 148.159635 -98.70708 
L 132.478423 -103.959719 
L 116.797211 -103.133551 
L 101.115999 -92.701796 
L 85.434787 -87.660829 
z
" style="stroke: #daa520; stroke-opacity: 0.2"/>
    </defs>
    <g clip-path="url(#p5afbdc28fa)">
     <use xlink:href="#m4a637114cb" x="0" y="639.76" style="fill: #daa520; fill-opacity: 0.2; stroke: #daa520; stroke-opacity: 0.2"/>
    </g>
   </g>
   <g id="PolyCollection_16">
    <defs>
     <path id="m127ad5507b" d="M 85.434787 -101.278892 
L 85.434787 -93.67143 
L 101.115999 -93.28308 
L 116.797211 -97.56164 
L 132.478423 -91.452277 
L 148.159635 -100.446963 
L 163.840848 -94.339803 
L 179.52206 -90.053496 
L 195.203272 -90.284301 
L 210.884484 -89.501187 
L 226.565696 -88.343581 
L 242.246908 -107.976884 
L 257.92812 -88.988587 
L 273.609332 -93.403012 
L 289.290545 -98.380355 
L 304.971757 -95.578292 
L 320.652969 -103.61256 
L 336.334181 -86.149428 
L 352.015393 -89.222525 
L 367.696605 -88.341183 
L 383.377817 -91.802333 
L 399.059029 -98.547475 
L 414.740241 -92.407107 
L 430.421454 -88.173745 
L 446.102666 -98.261207 
L 461.783878 -100.333707 
L 477.46509 -94.530648 
L 493.146302 -86.607455 
L 508.827514 -83.858337 
L 524.508726 -85.038599 
L 540.189938 -93.205338 
L 555.871151 -91.731215 
L 555.871151 -102.869255 
L 555.871151 -102.869255 
L 540.189938 -103.669171 
L 524.508726 -88.745674 
L 508.827514 -87.943441 
L 493.146302 -101.229209 
L 477.46509 -117.154264 
L 461.783878 -121.26368 
L 446.102666 -113.423705 
L 430.421454 -105.435477 
L 414.740241 -101.785202 
L 399.059029 -115.761328 
L 383.377817 -104.372472 
L 367.696605 -97.163133 
L 352.015393 -98.380904 
L 336.334181 -103.261569 
L 320.652969 -129.763179 
L 304.971757 -114.82383 
L 289.290545 -123.042106 
L 273.609332 -115.949553 
L 257.92812 -106.078352 
L 242.246908 -128.372598 
L 226.565696 -112.146065 
L 210.884484 -101.950615 
L 195.203272 -101.050884 
L 179.52206 -98.774415 
L 163.840848 -109.006968 
L 148.159635 -120.334103 
L 132.478423 -103.847898 
L 116.797211 -114.414815 
L 101.115999 -100.734303 
L 85.434787 -101.278892 
z
" style="stroke: #4169e1; stroke-opacity: 0.2"/>
    </defs>
    <g clip-path="url(#p5afbdc28fa)">
     <use xlink:href="#m127ad5507b" x="0" y="639.76" style="fill: #4169e1; fill-opacity: 0.2; stroke: #4169e1; stroke-opacity: 0.2"/>
    </g>
   </g>
   <g id="PolyCollection_17">
    <defs>
     <path id="mc67fd7571b" d="M 85.434787 -111.998613 
L 85.434787 -104.700845 
L 101.115999 -126.489944 
L 116.797211 -89.253992 
L 132.478423 -82.687999 
L 148.159635 -84.381505 
L 163.840848 -83.513723 
L 179.52206 -84.38615 
L 195.203272 -84.401043 
L 210.884484 -81.28815 
L 226.565696 -81.902007 
L 242.246908 -81.356612 
L 257.92812 -81.19134 
L 273.609332 -83.430775 
L 289.290545 -81.683056 
L 304.971757 -81.702057 
L 320.652969 -81.766139 
L 336.334181 -82.469421 
L 352.015393 -82.914464 
L 367.696605 -83.959245 
L 383.377817 -89.140378 
L 399.059029 -81.68308 
L 414.740241 -91.061151 
L 430.421454 -90.750941 
L 446.102666 -97.975758 
L 461.783878 -85.832828 
L 477.46509 -89.414129 
L 493.146302 -81.58989 
L 508.827514 -81.027384 
L 524.508726 -89.536483 
L 540.189938 -101.26955 
L 555.871151 -82.928804 
L 555.871151 -95.695089 
L 555.871151 -95.695089 
L 540.189938 -123.651432 
L 524.508726 -110.545003 
L 508.827514 -84.068896 
L 493.146302 -84.439329 
L 477.46509 -102.270907 
L 461.783878 -93.957238 
L 446.102666 -119.248478 
L 430.421454 -103.849528 
L 414.740241 -104.938727 
L 399.059029 -86.212016 
L 383.377817 -105.11024 
L 367.696605 -92.623844 
L 352.015393 -88.362535 
L 336.334181 -86.241997 
L 320.652969 -84.146462 
L 304.971757 -84.502088 
L 289.290545 -84.754324 
L 273.609332 -88.371003 
L 257.92812 -82.213988 
L 242.246908 -82.806729 
L 226.565696 -83.952285 
L 210.884484 -86.43202 
L 195.203272 -88.508599 
L 179.52206 -87.357319 
L 163.840848 -88.113128 
L 148.159635 -89.927546 
L 132.478423 -86.431579 
L 116.797211 -97.649733 
L 101.115999 -136.273369 
L 85.434787 -111.998613 
z
" style="stroke: #663399; stroke-opacity: 0.2"/>
    </defs>
    <g clip-path="url(#p5afbdc28fa)">
     <use xlink:href="#mc67fd7571b" x="0" y="639.76" style="fill: #663399; fill-opacity: 0.2; stroke: #663399; stroke-opacity: 0.2"/>
    </g>
   </g>
   <g id="PolyCollection_18">
    <defs>
     <path id="m697a8d84ea" d="M 85.434787 -80.478182 
L 85.434787 -80.478182 
L 101.115999 -80.478182 
L 116.797211 -80.478182 
L 132.478423 -80.478182 
L 148.159635 -80.478182 
L 163.840848 -80.478182 
L 179.52206 -80.478182 
L 195.203272 -80.478182 
L 210.884484 -80.478182 
L 226.565696 -80.478182 
L 242.246908 -80.478182 
L 257.92812 -80.478182 
L 273.609332 -80.490151 
L 289.290545 -81.394968 
L 304.971757 -80.478182 
L 320.652969 -80.484166 
L 336.334181 -80.646763 
L 352.015393 -80.485662 
L 367.696605 -80.478182 
L 383.377817 -80.478182 
L 399.059029 -80.478182 
L 414.740241 -80.478182 
L 430.421454 -80.491647 
L 446.102666 -80.478182 
L 461.783878 -80.478182 
L 477.46509 -80.478182 
L 493.146302 -80.48267 
L 508.827514 -80.478182 
L 524.508726 -80.478182 
L 540.189938 -80.478182 
L 555.871151 -80.478182 
L 555.871151 -80.478182 
L 555.871151 -80.478182 
L 540.189938 -80.478182 
L 524.508726 -80.478182 
L 508.827514 -80.478182 
L 493.146302 -80.64862 
L 477.46509 -80.478182 
L 461.783878 -80.478182 
L 446.102666 -80.478182 
L 430.421454 -80.989495 
L 414.740241 -80.478182 
L 399.059029 -80.478182 
L 383.377817 -80.478182 
L 367.696605 -80.478182 
L 352.015393 -80.762245 
L 336.334181 -81.24254 
L 320.652969 -80.705432 
L 304.971757 -80.478182 
L 289.290545 -86.441819 
L 273.609332 -80.932682 
L 257.92812 -80.478182 
L 242.246908 -80.478182 
L 226.565696 -80.478182 
L 210.884484 -80.478182 
L 195.203272 -80.478182 
L 179.52206 -80.478182 
L 163.840848 -80.478182 
L 148.159635 -80.478182 
L 132.478423 -80.478182 
L 116.797211 -80.478182 
L 101.115999 -80.478182 
L 85.434787 -80.478182 
z
" style="stroke: #ba55d3; stroke-opacity: 0.2"/>
    </defs>
    <g clip-path="url(#p5afbdc28fa)">
     <use xlink:href="#m697a8d84ea" x="0" y="639.76" style="fill: #ba55d3; fill-opacity: 0.2; stroke: #ba55d3; stroke-opacity: 0.2"/>
    </g>
   </g>
   <g id="matplotlib.axis_5">
    <g id="xtick_15">
     <g id="line2d_35">
      <g>
       <use xlink:href="#m9284a7327d" x="85.434787" y="565" style="stroke: #000000; stroke-width: 0.8"/>
      </g>
     </g>
     <g id="text_29">
      <!-- 0 -->
      <g transform="translate(82.253537 579.598438) scale(0.1 -0.1)">
       <use xlink:href="#DejaVuSans-30"/>
      </g>
     </g>
    </g>
    <g id="xtick_16">
     <g id="line2d_36">
      <g>
       <use xlink:href="#m9284a7327d" x="163.840848" y="565" style="stroke: #000000; stroke-width: 0.8"/>
      </g>
     </g>
     <g id="text_30">
      <!-- 5 -->
      <g transform="translate(160.659598 579.598438) scale(0.1 -0.1)">
       <use xlink:href="#DejaVuSans-35"/>
      </g>
     </g>
    </g>
    <g id="xtick_17">
     <g id="line2d_37">
      <g>
       <use xlink:href="#m9284a7327d" x="242.246908" y="565" style="stroke: #000000; stroke-width: 0.8"/>
      </g>
     </g>
     <g id="text_31">
      <!-- 10 -->
      <g transform="translate(235.884408 579.598438) scale(0.1 -0.1)">
       <use xlink:href="#DejaVuSans-31"/>
       <use xlink:href="#DejaVuSans-30" x="63.623047"/>
      </g>
     </g>
    </g>
    <g id="xtick_18">
     <g id="line2d_38">
      <g>
       <use xlink:href="#m9284a7327d" x="320.652969" y="565" style="stroke: #000000; stroke-width: 0.8"/>
      </g>
     </g>
     <g id="text_32">
      <!-- 15 -->
      <g transform="translate(314.290469 579.598438) scale(0.1 -0.1)">
       <use xlink:href="#DejaVuSans-31"/>
       <use xlink:href="#DejaVuSans-35" x="63.623047"/>
      </g>
     </g>
    </g>
    <g id="xtick_19">
     <g id="line2d_39">
      <g>
       <use xlink:href="#m9284a7327d" x="399.059029" y="565" style="stroke: #000000; stroke-width: 0.8"/>
      </g>
     </g>
     <g id="text_33">
      <!-- 20 -->
      <g transform="translate(392.696529 579.598438) scale(0.1 -0.1)">
       <use xlink:href="#DejaVuSans-32"/>
       <use xlink:href="#DejaVuSans-30" x="63.623047"/>
      </g>
     </g>
    </g>
    <g id="xtick_20">
     <g id="line2d_40">
      <g>
       <use xlink:href="#m9284a7327d" x="477.46509" y="565" style="stroke: #000000; stroke-width: 0.8"/>
      </g>
     </g>
     <g id="text_34">
      <!-- 25 -->
      <g transform="translate(471.10259 579.598438) scale(0.1 -0.1)">
       <use xlink:href="#DejaVuSans-32"/>
       <use xlink:href="#DejaVuSans-35" x="63.623047"/>
      </g>
     </g>
    </g>
    <g id="xtick_21">
     <g id="line2d_41">
      <g>
       <use xlink:href="#m9284a7327d" x="555.871151" y="565" style="stroke: #000000; stroke-width: 0.8"/>
      </g>
     </g>
     <g id="text_35">
      <!-- 30 -->
      <g transform="translate(549.508651 579.598438) scale(0.1 -0.1)">
       <use xlink:href="#DejaVuSans-33"/>
       <use xlink:href="#DejaVuSans-30" x="63.623047"/>
      </g>
     </g>
    </g>
    <g id="text_36">
     <!-- Time bin = 1 min -->
     <g transform="translate(277.531875 593.276563) scale(0.1 -0.1)">
      <use xlink:href="#DejaVuSans-54"/>
      <use xlink:href="#DejaVuSans-69" x="57.958984"/>
      <use xlink:href="#DejaVuSans-6d" x="85.742188"/>
      <use xlink:href="#DejaVuSans-65" x="183.154297"/>
      <use xlink:href="#DejaVuSans-20" x="244.677734"/>
      <use xlink:href="#DejaVuSans-62" x="276.464844"/>
      <use xlink:href="#DejaVuSans-69" x="339.941406"/>
      <use xlink:href="#DejaVuSans-6e" x="367.724609"/>
      <use xlink:href="#DejaVuSans-20" x="431.103516"/>
      <use xlink:href="#DejaVuSans-3d" x="462.890625"/>
      <use xlink:href="#DejaVuSans-20" x="546.679688"/>
      <use xlink:href="#DejaVuSans-31" x="578.466797"/>
      <use xlink:href="#DejaVuSans-20" x="642.089844"/>
      <use xlink:href="#DejaVuSans-6d" x="673.876953"/>
      <use xlink:href="#DejaVuSans-69" x="771.289062"/>
      <use xlink:href="#DejaVuSans-6e" x="799.072266"/>
     </g>
    </g>
   </g>
   <g id="matplotlib.axis_6">
    <g id="ytick_9">
     <g id="line2d_42">
      <g>
       <use xlink:href="#m5e09568672" x="61.912969" y="559.281818" style="stroke: #000000; stroke-width: 0.8"/>
      </g>
     </g>
     <g id="text_37">
      <!-- 0.0 -->
      <g transform="translate(39.009844 563.081037) scale(0.1 -0.1)">
       <use xlink:href="#DejaVuSans-30"/>
       <use xlink:href="#DejaVuSans-2e" x="63.623047"/>
       <use xlink:href="#DejaVuSans-30" x="95.410156"/>
      </g>
     </g>
    </g>
    <g id="ytick_10">
     <g id="line2d_43">
      <g>
       <use xlink:href="#m5e09568672" x="61.912969" y="524.296612" style="stroke: #000000; stroke-width: 0.8"/>
      </g>
     </g>
     <g id="text_38">
      <!-- 0.2 -->
      <g transform="translate(39.009844 528.095831) scale(0.1 -0.1)">
       <use xlink:href="#DejaVuSans-30"/>
       <use xlink:href="#DejaVuSans-2e" x="63.623047"/>
       <use xlink:href="#DejaVuSans-32" x="95.410156"/>
      </g>
     </g>
    </g>
    <g id="ytick_11">
     <g id="line2d_44">
      <g>
       <use xlink:href="#m5e09568672" x="61.912969" y="489.311407" style="stroke: #000000; stroke-width: 0.8"/>
      </g>
     </g>
     <g id="text_39">
      <!-- 0.4 -->
      <g transform="translate(39.009844 493.110625) scale(0.1 -0.1)">
       <use xlink:href="#DejaVuSans-30"/>
       <use xlink:href="#DejaVuSans-2e" x="63.623047"/>
       <use xlink:href="#DejaVuSans-34" x="95.410156"/>
      </g>
     </g>
    </g>
    <g id="ytick_12">
     <g id="line2d_45">
      <g>
       <use xlink:href="#m5e09568672" x="61.912969" y="454.326201" style="stroke: #000000; stroke-width: 0.8"/>
      </g>
     </g>
     <g id="text_40">
      <!-- 0.6 -->
      <g transform="translate(39.009844 458.125419) scale(0.1 -0.1)">
       <use xlink:href="#DejaVuSans-30"/>
       <use xlink:href="#DejaVuSans-2e" x="63.623047"/>
       <use xlink:href="#DejaVuSans-36" x="95.410156"/>
      </g>
     </g>
    </g>
    <g id="text_41">
     <!-- Percent -->
     <g transform="translate(32.930156 520.907812) rotate(-90) scale(0.1 -0.1)">
      <use xlink:href="#DejaVuSans-50"/>
      <use xlink:href="#DejaVuSans-65" x="56.677734"/>
      <use xlink:href="#DejaVuSans-72" x="118.201172"/>
      <use xlink:href="#DejaVuSans-63" x="157.064453"/>
      <use xlink:href="#DejaVuSans-65" x="212.044922"/>
      <use xlink:href="#DejaVuSans-6e" x="273.568359"/>
      <use xlink:href="#DejaVuSans-74" x="336.947266"/>
     </g>
    </g>
   </g>
   <g id="line2d_46">
    <path d="M 85.434787 544.879575 
L 101.115999 535.987502 
L 116.797211 518.407436 
L 132.478423 488.086924 
L 148.159635 497.824473 
L 163.840848 490.710815 
L 179.52206 490.47758 
L 195.203272 496.104367 
L 210.884484 483.014069 
L 226.565696 487.562146 
L 242.246908 498.640795 
L 257.92812 489.777876 
L 273.609332 502.634939 
L 289.290545 505.404601 
L 304.971757 510.215067 
L 320.652969 510.594073 
L 336.334181 501.993544 
L 352.015393 489.486333 
L 367.696605 490.827432 
L 383.377817 505.871071 
L 399.059029 507.153861 
L 414.740241 512.226716 
L 430.421454 492.751618 
L 446.102666 514.413292 
L 461.783878 512.489105 
L 477.46509 490.040265 
L 493.146302 484.530095 
L 508.827514 475.200707 
L 524.508726 491.614599 
L 540.189938 503.567878 
L 555.871151 490.594197 
" clip-path="url(#p5afbdc28fa)" style="fill: none; stroke: #dc143c; stroke-width: 1.5; stroke-linecap: square"/>
   </g>
   <g id="line2d_47">
    <path d="M 85.434787 449.311654 
L 101.115999 485.346417 
L 116.797211 482.809989 
L 132.478423 495.696207 
L 148.159635 497.649547 
L 163.840848 499.165573 
L 179.52206 489.457178 
L 195.203272 496.162676 
L 210.884484 498.728258 
L 226.565696 500.215129 
L 242.246908 500.739907 
L 257.92812 494.734113 
L 273.609332 492.02276 
L 289.290545 498.815721 
L 304.971757 489.952802 
L 320.652969 499.427962 
L 336.334181 490.215191 
L 352.015393 495.841978 
L 367.696605 495.637898 
L 383.377817 493.538786 
L 399.059029 497.591239 
L 414.740241 503.71365 
L 430.421454 505.958534 
L 446.102666 507.299633 
L 461.783878 493.422168 
L 477.46509 504.063502 
L 493.146302 500.769061 
L 508.827514 500.302592 
L 524.508726 498.669949 
L 540.189938 504.296736 
L 555.871151 497.562084 
" clip-path="url(#p5afbdc28fa)" style="fill: none; stroke: #008b8b; stroke-width: 1.5; stroke-linecap: square"/>
   </g>
   <g id="line2d_48">
    <path d="M 85.434787 553.596722 
L 101.115999 549.019491 
L 116.797211 540.185727 
L 132.478423 540.389807 
L 148.159635 544.034099 
L 163.840848 539.573486 
L 179.52206 542.313993 
L 195.203272 531.818432 
L 210.884484 539.80672 
L 226.565696 537.357756 
L 242.246908 542.838771 
L 257.92812 536.687206 
L 273.609332 538.115769 
L 289.290545 535.112872 
L 304.971757 530.098326 
L 320.652969 531.701814 
L 336.334181 529.282004 
L 352.015393 536.220737 
L 367.696605 536.541434 
L 383.377817 537.765917 
L 399.059029 528.319911 
L 414.740241 521.118789 
L 430.421454 537.620145 
L 446.102666 534.704711 
L 461.783878 536.745515 
L 477.46509 549.544269 
L 493.146302 533.684309 
L 508.827514 534.908791 
L 524.508726 538.611392 
L 540.189938 544.996192 
L 555.871151 540.418961 
" clip-path="url(#p5afbdc28fa)" style="fill: none; stroke: #daa520; stroke-width: 1.5; stroke-linecap: square"/>
   </g>
   <g id="line2d_49">
    <path d="M 85.434787 542.284839 
L 101.115999 542.751308 
L 116.797211 533.771772 
L 132.478423 542.109913 
L 148.159635 529.369467 
L 163.840848 538.086614 
L 179.52206 545.346045 
L 195.203272 544.092408 
L 210.884484 544.034099 
L 226.565696 539.515177 
L 242.246908 521.585259 
L 257.92812 542.22653 
L 273.609332 535.083717 
L 289.290545 529.048769 
L 304.971757 534.558939 
L 320.652969 523.07213 
L 336.334181 545.054501 
L 352.015393 545.958286 
L 367.696605 547.007842 
L 383.377817 541.672598 
L 399.059029 532.605599 
L 414.740241 542.663845 
L 430.421454 542.955389 
L 446.102666 533.917544 
L 461.783878 528.961306 
L 477.46509 533.917544 
L 493.146302 545.841668 
L 508.827514 553.859111 
L 524.508726 552.867864 
L 540.189938 541.322746 
L 555.871151 542.459765 
" clip-path="url(#p5afbdc28fa)" style="fill: none; stroke: #4169e1; stroke-width: 1.5; stroke-linecap: square"/>
   </g>
   <g id="line2d_50">
    <path d="M 85.434787 531.410271 
L 101.115999 508.378344 
L 116.797211 546.308138 
L 132.478423 555.200211 
L 148.159635 552.605475 
L 163.840848 553.946574 
L 179.52206 553.888266 
L 195.203272 553.305179 
L 210.884484 555.899915 
L 226.565696 556.832854 
L 242.246908 557.67833 
L 257.92812 558.057336 
L 273.609332 553.859111 
L 289.290545 556.54131 
L 304.971757 556.657928 
L 320.652969 556.803699 
L 336.334181 555.404291 
L 352.015393 554.1215 
L 367.696605 551.468456 
L 383.377817 542.634691 
L 399.059029 555.812452 
L 414.740241 541.760061 
L 430.421454 542.459765 
L 446.102666 531.147882 
L 461.783878 549.864967 
L 477.46509 543.917482 
L 493.146302 556.745391 
L 508.827514 557.21186 
L 524.508726 539.719257 
L 540.189938 527.299509 
L 555.871151 550.448054 
" clip-path="url(#p5afbdc28fa)" style="fill: none; stroke: #663399; stroke-width: 1.5; stroke-linecap: square"/>
   </g>
   <g id="line2d_51">
    <path d="M 85.434787 559.281818 
L 101.115999 559.281818 
L 116.797211 559.281818 
L 132.478423 559.281818 
L 148.159635 559.281818 
L 163.840848 559.281818 
L 179.52206 559.281818 
L 195.203272 559.281818 
L 210.884484 559.281818 
L 226.565696 559.281818 
L 242.246908 559.281818 
L 257.92812 559.281818 
L 273.609332 559.048583 
L 289.290545 555.841606 
L 304.971757 559.281818 
L 320.652969 559.165201 
L 336.334181 558.815349 
L 352.015393 559.136046 
L 367.696605 559.281818 
L 383.377817 559.281818 
L 399.059029 559.281818 
L 414.740241 559.281818 
L 430.421454 559.019429 
L 446.102666 559.281818 
L 461.783878 559.281818 
L 477.46509 559.281818 
L 493.146302 559.194355 
L 508.827514 559.281818 
L 524.508726 559.281818 
L 540.189938 559.281818 
L 555.871151 559.281818 
" clip-path="url(#p5afbdc28fa)" style="fill: none; stroke: #ba55d3; stroke-width: 1.5; stroke-linecap: square"/>
   </g>
   <g id="patch_9">
    <path d="M 61.912969 565 
L 61.912969 439.2 
" style="fill: none; stroke: #000000; stroke-width: 0.8; stroke-linejoin: miter; stroke-linecap: square"/>
   </g>
   <g id="patch_10">
    <path d="M 61.912969 565 
L 579.392969 565 
" style="fill: none; stroke: #000000; stroke-width: 0.8; stroke-linejoin: miter; stroke-linecap: square"/>
   </g>
   <g id="text_42">
    <!-- 5Per Formalin -->
    <g transform="translate(279.446094 433.2) scale(0.12 -0.12)">
     <use xlink:href="#DejaVuSans-35"/>
     <use xlink:href="#DejaVuSans-50" x="63.623047"/>
     <use xlink:href="#DejaVuSans-65" x="120.300781"/>
     <use xlink:href="#DejaVuSans-72" x="181.824219"/>
     <use xlink:href="#DejaVuSans-20" x="222.9375"/>
     <use xlink:href="#DejaVuSans-46" x="254.724609"/>
     <use xlink:href="#DejaVuSans-6f" x="308.619141"/>
     <use xlink:href="#DejaVuSans-72" x="369.800781"/>
     <use xlink:href="#DejaVuSans-6d" x="409.164062"/>
     <use xlink:href="#DejaVuSans-61" x="506.576172"/>
     <use xlink:href="#DejaVuSans-6c" x="567.855469"/>
     <use xlink:href="#DejaVuSans-69" x="595.638672"/>
     <use xlink:href="#DejaVuSans-6e" x="623.421875"/>
    </g>
   </g>
  </g>
  <g id="text_43">
   <!-- Group: Combined -->
   <g transform="translate(231.957969 19.3575) scale(0.16 -0.16)">
    <defs>
     <path id="DejaVuSans-47" d="M 3809 666 
L 3809 1919 
L 2778 1919 
L 2778 2438 
L 4434 2438 
L 4434 434 
Q 4069 175 3628 42 
Q 3188 -91 2688 -91 
Q 1594 -91 976 548 
Q 359 1188 359 2328 
Q 359 3472 976 4111 
Q 1594 4750 2688 4750 
Q 3144 4750 3555 4637 
Q 3966 4525 4313 4306 
L 4313 3634 
Q 3963 3931 3569 4081 
Q 3175 4231 2741 4231 
Q 1884 4231 1454 3753 
Q 1025 3275 1025 2328 
Q 1025 1384 1454 906 
Q 1884 428 2741 428 
Q 3075 428 3337 486 
Q 3600 544 3809 666 
z
" transform="scale(0.015625)"/>
     <path id="DejaVuSans-75" d="M 544 1381 
L 544 3500 
L 1119 3500 
L 1119 1403 
Q 1119 906 1312 657 
Q 1506 409 1894 409 
Q 2359 409 2629 706 
Q 2900 1003 2900 1516 
L 2900 3500 
L 3475 3500 
L 3475 0 
L 2900 0 
L 2900 538 
Q 2691 219 2414 64 
Q 2138 -91 1772 -91 
Q 1169 -91 856 284 
Q 544 659 544 1381 
z
M 1991 3584 
L 1991 3584 
z
" transform="scale(0.015625)"/>
     <path id="DejaVuSans-70" d="M 1159 525 
L 1159 -1331 
L 581 -1331 
L 581 3500 
L 1159 3500 
L 1159 2969 
Q 1341 3281 1617 3432 
Q 1894 3584 2278 3584 
Q 2916 3584 3314 3078 
Q 3713 2572 3713 1747 
Q 3713 922 3314 415 
Q 2916 -91 2278 -91 
Q 1894 -91 1617 61 
Q 1341 213 1159 525 
z
M 3116 1747 
Q 3116 2381 2855 2742 
Q 2594 3103 2138 3103 
Q 1681 3103 1420 2742 
Q 1159 2381 1159 1747 
Q 1159 1113 1420 752 
Q 1681 391 2138 391 
Q 2594 391 2855 752 
Q 3116 1113 3116 1747 
z
" transform="scale(0.015625)"/>
     <path id="DejaVuSans-3a" d="M 750 794 
L 1409 794 
L 1409 0 
L 750 0 
L 750 794 
z
M 750 3309 
L 1409 3309 
L 1409 2516 
L 750 2516 
L 750 3309 
z
" transform="scale(0.015625)"/>
     <path id="DejaVuSans-64" d="M 2906 2969 
L 2906 4863 
L 3481 4863 
L 3481 0 
L 2906 0 
L 2906 525 
Q 2725 213 2448 61 
Q 2172 -91 1784 -91 
Q 1150 -91 751 415 
Q 353 922 353 1747 
Q 353 2572 751 3078 
Q 1150 3584 1784 3584 
Q 2172 3584 2448 3432 
Q 2725 3281 2906 2969 
z
M 947 1747 
Q 947 1113 1208 752 
Q 1469 391 1925 391 
Q 2381 391 2643 752 
Q 2906 1113 2906 1747 
Q 2906 2381 2643 2742 
Q 2381 3103 1925 3103 
Q 1469 3103 1208 2742 
Q 947 2381 947 1747 
z
" transform="scale(0.015625)"/>
    </defs>
    <use xlink:href="#DejaVuSans-47"/>
    <use xlink:href="#DejaVuSans-72" x="77.490234"/>
    <use xlink:href="#DejaVuSans-6f" x="116.353516"/>
    <use xlink:href="#DejaVuSans-75" x="177.535156"/>
    <use xlink:href="#DejaVuSans-70" x="240.914062"/>
    <use xlink:href="#DejaVuSans-3a" x="304.390625"/>
    <use xlink:href="#DejaVuSans-20" x="338.082031"/>
    <use xlink:href="#DejaVuSans-43" x="369.869141"/>
    <use xlink:href="#DejaVuSans-6f" x="439.693359"/>
    <use xlink:href="#DejaVuSans-6d" x="500.875"/>
    <use xlink:href="#DejaVuSans-62" x="598.287109"/>
    <use xlink:href="#DejaVuSans-69" x="661.763672"/>
    <use xlink:href="#DejaVuSans-6e" x="689.546875"/>
    <use xlink:href="#DejaVuSans-65" x="752.925781"/>
    <use xlink:href="#DejaVuSans-64" x="814.449219"/>
   </g>
  </g>
  <g id="legend_1">
   <g id="patch_11">
    <path d="M 9.2 632.56 
L 595.185938 632.56 
Q 597.185938 632.56 597.185938 630.56 
L 597.185938 616.881875 
Q 597.185938 614.881875 595.185938 614.881875 
L 9.2 614.881875 
Q 7.2 614.881875 7.2 616.881875 
L 7.2 630.56 
Q 7.2 632.56 9.2 632.56 
z
" style="fill: #ffffff; opacity: 0.8; stroke: #cccccc; stroke-linejoin: miter"/>
   </g>
   <g id="line2d_52">
    <path d="M 11.2 622.980312 
L 21.2 622.980312 
L 31.2 622.980312 
" style="fill: none; stroke: #dc143c; stroke-width: 4; stroke-linecap: square"/>
   </g>
   <g id="text_44">
    <!-- still -->
    <g transform="translate(39.2 626.480312) scale(0.1 -0.1)">
     <defs>
      <path id="DejaVuSans-73" d="M 2834 3397 
L 2834 2853 
Q 2591 2978 2328 3040 
Q 2066 3103 1784 3103 
Q 1356 3103 1142 2972 
Q 928 2841 928 2578 
Q 928 2378 1081 2264 
Q 1234 2150 1697 2047 
L 1894 2003 
Q 2506 1872 2764 1633 
Q 3022 1394 3022 966 
Q 3022 478 2636 193 
Q 2250 -91 1575 -91 
Q 1294 -91 989 -36 
Q 684 19 347 128 
L 347 722 
Q 666 556 975 473 
Q 1284 391 1588 391 
Q 1994 391 2212 530 
Q 2431 669 2431 922 
Q 2431 1156 2273 1281 
Q 2116 1406 1581 1522 
L 1381 1569 
Q 847 1681 609 1914 
Q 372 2147 372 2553 
Q 372 3047 722 3315 
Q 1072 3584 1716 3584 
Q 2034 3584 2315 3537 
Q 2597 3491 2834 3397 
z
" transform="scale(0.015625)"/>
     </defs>
     <use xlink:href="#DejaVuSans-73"/>
     <use xlink:href="#DejaVuSans-74" x="52.099609"/>
     <use xlink:href="#DejaVuSans-69" x="91.308594"/>
     <use xlink:href="#DejaVuSans-6c" x="119.091797"/>
     <use xlink:href="#DejaVuSans-6c" x="146.875"/>
    </g>
   </g>
   <g id="line2d_53">
    <path d="M 76.664062 622.980312 
L 86.664062 622.980312 
L 96.664062 622.980312 
" style="fill: none; stroke: #008b8b; stroke-width: 4; stroke-linecap: square"/>
   </g>
   <g id="text_45">
    <!-- walking -->
    <g transform="translate(104.664062 626.480312) scale(0.1 -0.1)">
     <defs>
      <path id="DejaVuSans-77" d="M 269 3500 
L 844 3500 
L 1563 769 
L 2278 3500 
L 2956 3500 
L 3675 769 
L 4391 3500 
L 4966 3500 
L 4050 0 
L 3372 0 
L 2619 2869 
L 1863 0 
L 1184 0 
L 269 3500 
z
" transform="scale(0.015625)"/>
      <path id="DejaVuSans-6b" d="M 581 4863 
L 1159 4863 
L 1159 1991 
L 2875 3500 
L 3609 3500 
L 1753 1863 
L 3688 0 
L 2938 0 
L 1159 1709 
L 1159 0 
L 581 0 
L 581 4863 
z
" transform="scale(0.015625)"/>
      <path id="DejaVuSans-67" d="M 2906 1791 
Q 2906 2416 2648 2759 
Q 2391 3103 1925 3103 
Q 1463 3103 1205 2759 
Q 947 2416 947 1791 
Q 947 1169 1205 825 
Q 1463 481 1925 481 
Q 2391 481 2648 825 
Q 2906 1169 2906 1791 
z
M 3481 434 
Q 3481 -459 3084 -895 
Q 2688 -1331 1869 -1331 
Q 1566 -1331 1297 -1286 
Q 1028 -1241 775 -1147 
L 775 -588 
Q 1028 -725 1275 -790 
Q 1522 -856 1778 -856 
Q 2344 -856 2625 -561 
Q 2906 -266 2906 331 
L 2906 616 
Q 2728 306 2450 153 
Q 2172 0 1784 0 
Q 1141 0 747 490 
Q 353 981 353 1791 
Q 353 2603 747 3093 
Q 1141 3584 1784 3584 
Q 2172 3584 2450 3431 
Q 2728 3278 2906 2969 
L 2906 3500 
L 3481 3500 
L 3481 434 
z
" transform="scale(0.015625)"/>
     </defs>
     <use xlink:href="#DejaVuSans-77"/>
     <use xlink:href="#DejaVuSans-61" x="81.787109"/>
     <use xlink:href="#DejaVuSans-6c" x="143.066406"/>
     <use xlink:href="#DejaVuSans-6b" x="170.849609"/>
     <use xlink:href="#DejaVuSans-69" x="228.759766"/>
     <use xlink:href="#DejaVuSans-6e" x="256.542969"/>
     <use xlink:href="#DejaVuSans-67" x="319.921875"/>
    </g>
   </g>
   <g id="line2d_54">
    <path d="M 163.003125 622.980312 
L 173.003125 622.980312 
L 183.003125 622.980312 
" style="fill: none; stroke: #daa520; stroke-width: 4; stroke-linecap: square"/>
   </g>
   <g id="text_46">
    <!-- rearing -->
    <g transform="translate(191.003125 626.480312) scale(0.1 -0.1)">
     <use xlink:href="#DejaVuSans-72"/>
     <use xlink:href="#DejaVuSans-65" x="38.863281"/>
     <use xlink:href="#DejaVuSans-61" x="100.386719"/>
     <use xlink:href="#DejaVuSans-72" x="161.666016"/>
     <use xlink:href="#DejaVuSans-69" x="202.779297"/>
     <use xlink:href="#DejaVuSans-6e" x="230.5625"/>
     <use xlink:href="#DejaVuSans-67" x="293.941406"/>
    </g>
   </g>
   <g id="line2d_55">
    <path d="M 246.745313 622.980312 
L 256.745313 622.980312 
L 266.745313 622.980312 
" style="fill: none; stroke: #4169e1; stroke-width: 4; stroke-linecap: square"/>
   </g>
   <g id="text_47">
    <!-- grooming -->
    <g transform="translate(274.745313 626.480312) scale(0.1 -0.1)">
     <use xlink:href="#DejaVuSans-67"/>
     <use xlink:href="#DejaVuSans-72" x="63.476562"/>
     <use xlink:href="#DejaVuSans-6f" x="102.339844"/>
     <use xlink:href="#DejaVuSans-6f" x="163.521484"/>
     <use xlink:href="#DejaVuSans-6d" x="224.703125"/>
     <use xlink:href="#DejaVuSans-69" x="322.115234"/>
     <use xlink:href="#DejaVuSans-6e" x="349.898438"/>
     <use xlink:href="#DejaVuSans-67" x="413.277344"/>
    </g>
   </g>
   <g id="line2d_56">
    <path d="M 342.421875 622.980312 
L 352.421875 622.980312 
L 362.421875 622.980312 
" style="fill: none; stroke: #663399; stroke-width: 4; stroke-linecap: square"/>
   </g>
   <g id="text_48">
    <!-- licking hindpaw L -->
    <g transform="translate(370.421875 626.480312) scale(0.1 -0.1)">
     <defs>
      <path id="DejaVuSans-68" d="M 3513 2113 
L 3513 0 
L 2938 0 
L 2938 2094 
Q 2938 2591 2744 2837 
Q 2550 3084 2163 3084 
Q 1697 3084 1428 2787 
Q 1159 2491 1159 1978 
L 1159 0 
L 581 0 
L 581 4863 
L 1159 4863 
L 1159 2956 
Q 1366 3272 1645 3428 
Q 1925 3584 2291 3584 
Q 2894 3584 3203 3211 
Q 3513 2838 3513 2113 
z
" transform="scale(0.015625)"/>
      <path id="DejaVuSans-4c" d="M 628 4666 
L 1259 4666 
L 1259 531 
L 3531 531 
L 3531 0 
L 628 0 
L 628 4666 
z
" transform="scale(0.015625)"/>
     </defs>
     <use xlink:href="#DejaVuSans-6c"/>
     <use xlink:href="#DejaVuSans-69" x="27.783203"/>
     <use xlink:href="#DejaVuSans-63" x="55.566406"/>
     <use xlink:href="#DejaVuSans-6b" x="110.546875"/>
     <use xlink:href="#DejaVuSans-69" x="168.457031"/>
     <use xlink:href="#DejaVuSans-6e" x="196.240234"/>
     <use xlink:href="#DejaVuSans-67" x="259.619141"/>
     <use xlink:href="#DejaVuSans-20" x="323.095703"/>
     <use xlink:href="#DejaVuSans-68" x="354.882812"/>
     <use xlink:href="#DejaVuSans-69" x="418.261719"/>
     <use xlink:href="#DejaVuSans-6e" x="446.044922"/>
     <use xlink:href="#DejaVuSans-64" x="509.423828"/>
     <use xlink:href="#DejaVuSans-70" x="572.900391"/>
     <use xlink:href="#DejaVuSans-61" x="636.376953"/>
     <use xlink:href="#DejaVuSans-77" x="697.65625"/>
     <use xlink:href="#DejaVuSans-20" x="779.443359"/>
     <use xlink:href="#DejaVuSans-4c" x="811.230469"/>
    </g>
   </g>
   <g id="line2d_57">
    <path d="M 477.115625 622.980312 
L 487.115625 622.980312 
L 497.115625 622.980312 
" style="fill: none; stroke: #ba55d3; stroke-width: 4; stroke-linecap: square"/>
   </g>
   <g id="text_49">
    <!-- licking hindpaw R -->
    <g transform="translate(505.115625 626.480312) scale(0.1 -0.1)">
     <defs>
      <path id="DejaVuSans-52" d="M 2841 2188 
Q 3044 2119 3236 1894 
Q 3428 1669 3622 1275 
L 4263 0 
L 3584 0 
L 2988 1197 
Q 2756 1666 2539 1819 
Q 2322 1972 1947 1972 
L 1259 1972 
L 1259 0 
L 628 0 
L 628 4666 
L 2053 4666 
Q 2853 4666 3247 4331 
Q 3641 3997 3641 3322 
Q 3641 2881 3436 2590 
Q 3231 2300 2841 2188 
z
M 1259 4147 
L 1259 2491 
L 2053 2491 
Q 2509 2491 2742 2702 
Q 2975 2913 2975 3322 
Q 2975 3731 2742 3939 
Q 2509 4147 2053 4147 
L 1259 4147 
z
" transform="scale(0.015625)"/>
     </defs>
     <use xlink:href="#DejaVuSans-6c"/>
     <use xlink:href="#DejaVuSans-69" x="27.783203"/>
     <use xlink:href="#DejaVuSans-63" x="55.566406"/>
     <use xlink:href="#DejaVuSans-6b" x="110.546875"/>
     <use xlink:href="#DejaVuSans-69" x="168.457031"/>
     <use xlink:href="#DejaVuSans-6e" x="196.240234"/>
     <use xlink:href="#DejaVuSans-67" x="259.619141"/>
     <use xlink:href="#DejaVuSans-20" x="323.095703"/>
     <use xlink:href="#DejaVuSans-68" x="354.882812"/>
     <use xlink:href="#DejaVuSans-69" x="418.261719"/>
     <use xlink:href="#DejaVuSans-6e" x="446.044922"/>
     <use xlink:href="#DejaVuSans-64" x="509.423828"/>
     <use xlink:href="#DejaVuSans-70" x="572.900391"/>
     <use xlink:href="#DejaVuSans-61" x="636.376953"/>
     <use xlink:href="#DejaVuSans-77" x="697.65625"/>
     <use xlink:href="#DejaVuSans-20" x="779.443359"/>
     <use xlink:href="#DejaVuSans-52" x="811.230469"/>
    </g>
   </g>
  </g>
 </g>
 <defs>
  <clipPath id="p558970ffe5">
   <rect x="61.912969" y="71.52" width="517.48" height="125.8"/>
  </clipPath>
  <clipPath id="p54578dfb50">
   <rect x="61.912969" y="255.36" width="517.48" height="125.8"/>
  </clipPath>
  <clipPath id="p5afbdc28fa">
   <rect x="61.912969" y="439.2" width="517.48" height="125.8"/>
  </clipPath>
 </defs>
</svg>
